<svg width="174" height="111" xmlns="http://www.w3.org/2000/svg" xmlns:xlink="http://www.w3.org/1999/xlink"><svg width="25.92" height="21.54" viewBox="-1 -1 25.92 21.54" x="118.55" y="65.66" xmlns="http://www.w3.org/2000/svg"><g data-name="Layer 2"><path d="M7.3 19.4h4.08l.1-10c0-1.36-.09-3.39-.09-3.39h.06s.78 1.66 1.43 2.69l6.86 10.75h4V13.7c0-.43-.09-.67-.07-1a16.28 16.28 0 00.1-2.61c-.05-.53-.06-1.07-.06-1.6a6.94 6.94 0 010-.79c0-.17.08-.32.09-.5.06-1.65 0-3.32 0-5V.11h-4.08l-.1 10.15c0 1.35.09 3.35.09 3.35h-.06S19 12 18.37 11L11.68.1h-4.2v3.62a11.27 11.27 0 000 1.84 2.12 2.12 0 010 .71 5.61 5.61 0 000 .82v12.34zM0 19.34h4.14V9.24a2.88 2.88 0 000-.72v-.34a1.45 1.45 0 010-.35 2.35 2.35 0 000-.59 1.61 1.61 0 010-.44v-.7a2.8 2.8 0 00.06-.28V0H.18v5.12L.1 8.2v5.67a9.13 9.13 0 010 1.28 4.56 4.56 0 000 .64v3.55z" fill="#fff" data-name="Layer 1"/></g></svg><svg width="118.55" height="52.93" viewBox="-1 -1 118.55 52.93" xmlns="http://www.w3.org/2000/svg"><g data-name="Layer 2"><g data-name="Layer 1" fill="#fff"><path d="M60 34.28l-.06.08a.48.48 0 000 .17 1.66 1.66 0 01-.06.21v.16a1 1 0 01-.14.41c-.07.12-.15.23-.23.35s0 .1 0 .16a.35.35 0 01-.07.12.51.51 0 00-.13.24 1.37 1.37 0 01-.07.34s-.06.06-.08.1a1.32 1.32 0 01-.16.25s-.08.06-.11.1 0 .09-.06.13-.14.2-.2.31 0 .1-.08.16a1.17 1.17 0 000 .2 7 7 0 01-.26.77c-.1.27-.2.54-.31.81s-.18.41-.26.62a4.53 4.53 0 01-.23.55c0 .08-.08.16-.12.24a1.83 1.83 0 01-.16.26 2.15 2.15 0 01-.14.26.14.14 0 000 .1.42.42 0 010 .12.85.85 0 00-.12.37.79.79 0 010 .22v.07a.7.7 0 000 .14.77.77 0 01-.07.27 3.59 3.59 0 01-.17.34.64.64 0 00-.13.33c0 .23-.26.34-.37.51s0 .11-.07.16a.35.35 0 000 .08.89.89 0 00-.09.26 1 1 0 01-.16.49 1.38 1.38 0 00-.14.24c0 .1 0 .21-.1.31s-.09.13-.12.19a.37.37 0 010 .14 2.53 2.53 0 00-.12.23 1.61 1.61 0 01-.17.28s-.09.1-.09.13.28-.05.21 0H55s-.1.06-.14.08a.44.44 0 00-.19.1 1.44 1.44 0 00-.2.39.25.25 0 000 .17l-.11.14a1 1 0 00-.2.41 1.09 1.09 0 00-.07.3c0 .1 0 .19-.06.29a.34.34 0 01-.11.24c-.06.06-.15.11-.18.19a.24.24 0 01-.12.16s-.1.06-.13.11a1 1 0 01-.18.22.46.46 0 00-.15.16 1.36 1.36 0 01-.32.21v.07c0 .07.15.15.21.21l.24.22.56.52.33.3s.09.12.13.13c1.41.08 2.4-2.31 2.87-3.23s6.6-15.46 7.71-17.86 4.2-10.32 7.2-17.12 3.22-9.54 3-10.41S72.91.05 71 0s-4.71.39-19.5 8l-.65.33a3.63 3.63 0 01-.52.19c-.33.12-.47.53-.74.73a1.17 1.17 0 01-.61.14 1.31 1.31 0 00-.52.2 5.81 5.81 0 00-.75.37 2.75 2.75 0 00-.57.56 1.06 1.06 0 01-.71.25.87.87 0 00-.6.39 1.75 1.75 0 01-.33.39 1.25 1.25 0 01-.69.11 1.28 1.28 0 00-.73.29 6 6 0 01-.71.38c-.17.09-.24.23-.39.35a1.61 1.61 0 00-.36.27c-.28.36 0 .69-.54.85a1.12 1.12 0 01-.63 0c-.14 0-.34-.16-.49-.1s-.09.1-.13.14a1.59 1.59 0 01-.55.41 4.09 4.09 0 00-.83.29c-.19.11-.37.25-.56.37a4.68 4.68 0 00-.86.68 3.25 3.25 0 01-.86.65 4.69 4.69 0 00-.79.49.66.66 0 01-.62.18c-.49-.06-.54.41-.81.71s-.26.14-.46.16A.71.71 0 0034 18a2.19 2.19 0 01-.74.46 4 4 0 00-.72.35c-.6.35-1.23.64-1.81 1-.81.51-1.61 1-2.41 1.56l-.76.5 8.22-1.69c2.36-1.66 12.83-7.52 22.22-12.3s13.26-5.3 14-5.28-.52 4.53-1.15 5.49-.14 1-.48 1.23a1 1 0 00-.25.86c-.52.45-.33.74-.46 1.07a6.93 6.93 0 00-.69 1.68c-.12.69-.91 1.19-.91 1.68a3.24 3.24 0 01-.4 1.23c-.14.33.13.45-.15.71a10.68 10.68 0 00-1.37 2.9 12.64 12.64 0 01-1.3 3.13c-.52.86-.12.74-.35 1.07a6.33 6.33 0 00-.52 1q-.14.3-.24.6a2.3 2.3 0 00-.2.61.24.24 0 010 .12v.47a.66.66 0 01-.08.21c0 .08 0 .16-.06.23a1 1 0 01-.26.36.82.82 0 00-.23.33 3.36 3.36 0 00-.14.45c0 .13-.1.23-.11.36a1 1 0 010 .3 1.54 1.54 0 00-.17.34 1.48 1.48 0 01-.22.64 1.8 1.8 0 00-.2.19l-.11.18-.14.21v.09c0 .03 0 0 0 0s-.06.18-.05.29-.08.23-.1.27-.13.3-.2.44a3.3 3.3 0 01-.26.39c-.15.23-.3.47-.43.72a5.17 5.17 0 00-.33.72.84.84 0 00-.06.14.54.54 0 000 .18.34.34 0 010 .17c0 .06-.07.15 0 .21s0 0 0 .1a.94.94 0 00-.06.15.27.27 0 010 .13zM36.44 18.06c-.06 0 0 .08 0 .08l-.12.13H36c-.11 0-.05-.05.06-.1s0-.07 0-.07v-.07c0-.07 0 0 .09 0h.19c.11 0 .1 0 0 .06zm2-1h-.23v-.05a.08.08 0 01.09-.08.36.36 0 01.13 0h.05zm.47-.41a.11.11 0 010-.06H39c.09 0 0 0 0 0zm.25-.21l-.06.05c-.06.05 0 0 0 0v-.05h.08c.08 0 0 0 0 0zm11.67-5.91h-.08c-.08 0 0 0 0 0v-.06c0-.06 0 0 .07 0zm.48-.39h.06zm.29-.27h.07c.07 0 0 0 0 0h-.06zm6.14-3.55l-.07.06c-.07.06 0 0-.08.06s-.11-.08 0-.12.15 0 .12 0zm.75-.43a1.29 1.29 0 01-.29 0h.16c.16 0 .22.06.13.07z"/><path d="M4.46 38.86a1.2 1.2 0 00.32.32 4.49 4.49 0 001.15.64c1.09.29 2.35-1 3.15-1.62s1.73-1.34 2.6-2c2.23-1.68 4.5-3.31 6.8-4.91 3.8-2.64 7.66-5.19 11.56-7.69l15.75-2.53c5.35-.85 17.42-2.24 19.64.17l.53-.77a6.62 6.62 0 00-5.45-3.08 170.83 170.83 0 00-25.15 2.7c-12 2.06-22.42 4.26-25.87 4.85s-4.07.75-5.87.95-3.11.17-3.62.54a.39.39 0 00.24.35c.27.15 0 .35.34.77s.64.39.83.79.44.34 1.46.22A31.5 31.5 0 009 27.78c3.11-.77 12.26-2.47 13.4-2.65 0 0-6.08 4.13-8 5.59-1.52 1.13-3 2.27-4.53 3.41L7 36.29a10.87 10.87 0 01-2.81 2c.16.25.21.43.32.61zm73.18-25.22c0 .45-.16.38.22.53s.68 0 .76-.29.54-1.26.46-1.6a3.35 3.35 0 00-1.28-1.55c-.48-.18-.8-.12-1.21-.26s-.44 0-.38.45-.16 1.09.08 1.26a2.41 2.41 0 01.68.61c.09.18.23.42.23.42s.14.16.2.25.23-.05.24.18zM70.39 28.6c0 .08-.08.13-.09.21s-.07.16-.1.19a.65.65 0 00-.11.22.9.9 0 00-.08.23.37.37 0 010 .11c0 .06-.07.09-.09.15a.11.11 0 000 .08s0 .06-.06.08a2 2 0 00-.1.21c0 .07-.14.14 0 .18a1.36 1.36 0 01-.14.33c0 .07-.16.18-.16.27v.13c0 .07-.11.11-.13.18s0 .05 0 .08-.12.15-.16.23a2.67 2.67 0 01-.22.36c0 .08-.06.16-.1.24a2.11 2.11 0 01-.19.23 2.29 2.29 0 00-.18.29s-.1.14-.08.19 0 0 0 .05-.07.14-.08.18a.74.74 0 010 .14c0 .07-.2.19-.16.27v.14c0 .04 0 0-.06.08a.17.17 0 000 .07 2 2 0 00-.1.28v.1c0 .05 0 .22-.08.33a4.87 4.87 0 01-.45.84 3.12 3.12 0 00-.18.42c-.08.15-.2.28-.29.43a2.41 2.41 0 00-.21.5c-.06.18-.07.37-.13.55l-.14.36c-.07.17-.16.33-.24.5s-.11.28-.19.41a4.35 4.35 0 00-.34.91c-.22.83-.4 1.1-.44 1.42s-.32.59-.24.89v.14c0 .03.15 0 .15.08s.13 0 .17.11a.49.49 0 010 .11c.07.12.18.23.26.34l.21.25c.2.21.43.39.63.6.48.49.94 0 1.18-.36S69 39 69.65 37.69s3.24-7.29 3.58-8 2.2-5.14 2.62-6.28a4.37 4.37 0 00.38-2.52c-.16-.57-1.1-1-1.9-1.2s-.78.09-.74.53a4.93 4.93 0 01-.43 1.38 1.64 1.64 0 00-.15.91c.07.23-.26.52-.52.94s-.09.52 0 .71-.33.56-.43.88-.36.15-.43.41-.12.43-.19.64a4.75 4.75 0 01-.17.49A3.74 3.74 0 0071 27v.09a.27.27 0 00.15 0c0 .1.2 0 .2.13s-.07.1 0 .1-.24.15-.31.19a.87.87 0 00-.22.21 3.72 3.72 0 01-.3.37c0 .05-.05.11-.07.16a1.09 1.09 0 00-.08.31zm46.16-23.27c-.06-.34-.14-.22 0-.49s-.18-.48-.27-.61 0-.12-.08-.37-.16-.14-.38-.26 0-.19 0-.19A7.05 7.05 0 00113 1.27a10.34 10.34 0 00-4.37-.1c-.43.14-2 .33-2.4.47a12 12 0 01-1.54.39c-.35.06-1.29.56-1.87.75s-2.46 1.07-2.87 1.29a7 7 0 01-1.11.67c-.21 0-.28.22-.46.41s-.25.06-.4.11-.28.24.09.33-.72.57-.88.66S97 6.25 97 6s-.55.21-.83.46A19 19 0 0094.61 8c-.23.32.14.59-.09.66a2.58 2.58 0 00-.84.77c-.11.21-.48.05-.54.28s-.37.46-.67.72-.24 0-.47.31a2.58 2.58 0 01-.65.64c-.09 0-.09.21 0 .42s-.31.34-.5.42a.51.51 0 00-.31.39c0 .12-.09.11-.37.27s-.1.34-.24.44a7.58 7.58 0 00-1 1.09c-.11.2-.46.9-.52 1.06a.94.94 0 01-.28.35V16a3.26 3.26 0 00-.34.49c0 .11.28.19.18.24s-.34-.05-.38.27-.14.16-.3.24-1.75 2.25-2 2.59-1.19 2-1.36 2.29-.48.24-.6.42.13.16 0 .37-.4.3-.54.74-.19.44-.35.56 0 .43-.14.49 0 .34 0 .47-.18 0-.32.06-.18.23-.19.36a.54.54 0 01-.16.41.52.52 0 00-.24.43c0 .17-.12.5-.24.53s-.09 0-.27.39a1.45 1.45 0 01-.31.47v.49c0 .27-.13.36-.29.28s-.23.23-.21.52a.56.56 0 01-.24.55c-.18.15-.1.6-.13.84s-.14.07-.33.15-.22.52-.25.71-.1 0-.27.09 0 .23-.13.4a1.57 1.57 0 00-.29.48 1.39 1.39 0 01-.18.44c-.08.09 0 .23-.07.38s0 0-.16.23 0 .39-.17.63a.8.8 0 00-.17.56c0 .18-.24.45-.45.62a3 3 0 00-.46.91c-.16.31 0 .34-.16.63s0 .46-.31.65-.31.78-.37.82 0 .26-.12.43a2.26 2.26 0 01-.25.73 2.73 2.73 0 00-.56 1.08c0 .27-.09 0-.1.25s.08.21-.2.54a1.45 1.45 0 00-.26.61 2.8 2.8 0 00-.09.31v.37c0 .12-.13.29-.17.45a.3.3 0 01-.07.15.71.71 0 000 .38v.28c0 .3-.11.61-.15.91a3.1 3.1 0 01-.35 1.07c-.28.57.17 1 .45 1.32a4.41 4.41 0 01.78 1.17c.21.54 1.54.11 1.61-.14a9.47 9.47 0 00.21-1.5c0-.17.22-.49.22-.68v-1.12c0-.44.27-1.36.36-2a21.77 21.77 0 01.67-2.4c.13-.4 1-2.2 1.09-2.53s.3-.79.32-.84a6.75 6.75 0 00.25-.67c.1-.35.91-1.81 1-2s.66-1.42.8-1.65.21-.6.5-1.19.25-.52.24-.58a.34.34 0 01.06-.31c.11-.08.18-.32.29-.68s2-3.46 2.17-3.76.21-.31.31-.54.1-.41.19-.64a3.93 3.93 0 01.71-.88c.1-.09.09-.18.14-.29a.86.86 0 00.08-.27 1 1 0 01.08-.32c.07-.19.17-.11.32-.24a4.92 4.92 0 00.46-.8c.19-.33.89-1.22 1.11-1.62a13.69 13.69 0 011-1.49 16.69 16.69 0 001.38-1.72 54.79 54.79 0 013.46-4.31 43.26 43.26 0 014.23-4.29 29.39 29.39 0 015-2.92 5.78 5.78 0 011.54-.66c.75-.15 3.9-1.43 6.37-1.55s2.62.16 2.75.26 0 .84-.11 1.17-.49 1.15-.52 1.27-.18.13-.17.41.06.45-.14.53a1.26 1.26 0 00-.54.46c-.12.2 0 .46-.11.63s-.44.41-.44.59-.27.33-.38.56-.28.16-.44.17-.2.4-.28.61a2.26 2.26 0 01-.37.52s.28 0 0 0-.51.42-.64.46-.16.31-.29.44-.66.25-.7.57a.67.67 0 01-.49.55c-.19 0-.92.86-1.12 1.07s-2 1.62-2.12 1.79a7 7 0 00-.78.74c-.08.16-1.35.94-1.55 1.13a9.58 9.58 0 00-.92.68 18 18 0 01-1.62 1.37 4.58 4.58 0 00-.82.63 13.1 13.1 0 01-1.19.89 7.91 7.91 0 01-1 .8c-.31.15-.52.57-.86.7s-1.21.84-1.52 1-.26.17-.37.33-.22.18-.44.24a8.78 8.78 0 00-1.45 1c-.17.16-1.16 1-1.33 1.15a1.81 1.81 0 00-.54.4c-.12.15-.2 0-.29.2a.8.8 0 01-.29.4l-.77.7c-.11.11-.64.79-.79.81s-.09.28-.23.39-.39.57-.56.75-.12.25-.12.41-.1.07-.2.25-.5 1-.57 1.15a1.32 1.32 0 00-.16.44c-.06.26-.12.13-.18.33s.06.23.16.26 0 .13 0 .17-.13.25 0 .34-.12.08-.21.33a3 3 0 00.19 1.09 2.64 2.64 0 01.2.76c0 .37.37.59.48.9a2.37 2.37 0 00.37.86c.2.26.22.57.45.72s.23.15.25.41.22.25.28.38a7.41 7.41 0 00.96 1.17c.18.06.19.08.24.21s1 1.12 1.32 1.13-.06-.14.49.32a35.88 35.88 0 005.16 2.2c.72.21 1.74.32 2.15.41a1.36 1.36 0 001-.12c.47-.16 1 .29 1.65.39a15.67 15.67 0 003.22-.23c.22-.08.15-.67.15-.67h-.62c-.3 0-.27-.21-.84-.55a9.37 9.37 0 00-3-.5 19.35 19.35 0 01-6.23-1.88c-3.64-1.59-3.81-2.3-4.89-4.4s.09-4.14 1.2-5.49a31.87 31.87 0 016.09-5.17c3.13-2.22 9.33-7.19 12.76-10.11a30.9 30.9 0 006.09-6.87 7.46 7.46 0 001.17-3.4zm-14.18 38.06l.22-.09c.23-.09.15 0 .23 0s0 0 .06.11-.13 0-.21.12 0 .22-.12.21-.09-.09-.31-.28 0-.08.13-.11z"/></g></g></svg><svg width="107.75" height="22.21" viewBox="-1 -1 107.75 22.21" y="66.18" xmlns="http://www.w3.org/2000/svg"><g data-name="Layer 2"><g data-name="Layer 1" fill="#fff"><path d="M97.57.5h-3.52a7.3 7.3 0 00-.81 0h-2.86a4.69 4.69 0 00-.53 0h-.48a2.55 2.55 0 01-.39 0h-8.42a4.27 4.27 0 00-.8 0h-2.57a4.69 4.69 0 00-.53 0H41.37a2.42 2.42 0 01-.38 0 2.68 2.68 0 00-.49 0 4.53 4.53 0 01-.52 0H25.75a.65.65 0 01-.14 0 3.7 3.7 0 00-.94 0h-.94a1.31 1.31 0 00-.28 0 2 2 0 01-.42 0 5.53 5.53 0 00-1.22 0 1 1 0 01-.24 0 6 6 0 00-1.12 0 5.19 5.19 0 01-.56 0 1.47 1.47 0 00-.21 0 2.34 2.34 0 01-.59 0 1.75 1.75 0 00-.56 0 2 2 0 01-.55 0h-1.54a9.73 9.73 0 01-1.08 0h-1.01a14.42 14.42 0 00-1.47 0 .66.66 0 01-.14 0 7.58 7.58 0 00-1.26 0 2.57 2.57 0 01-.62 0 1.78 1.78 0 00-.46 0h-.14a11.62 11.62 0 00-1.18 0H2.47C2 .54 1.44.59.93.57L.31.52a.14.14 0 01-.1-.1A.17.17 0 01.37.2h1.82a3 3 0 00.52 0A1.62 1.62 0 013 .15h1.1a3.49 3.49 0 01.56 0 5.53 5.53 0 00.91 0 1.92 1.92 0 01.24 0 2 2 0 00.42 0 1.61 1.61 0 01.31 0 1 1 0 00.35 0 3 3 0 01.42 0 2.62 2.62 0 00.56 0H8a1.51 1.51 0 00.52 0h1.05a3.33 3.33 0 00.63 0h.28a1.33 1.33 0 01.2 0 5.67 5.67 0 001.09 0 1.61 1.61 0 01.38 0 2.91 2.91 0 00.66 0 1 1 0 01.24 0 6.55 6.55 0 00.88 0h.7a6.22 6.22 0 011.22 0h3.8a6.09 6.09 0 00.74 0 1.18 1.18 0 00.27 0 .32.32 0 01.27 0 .32.32 0 00.14 0 2 2 0 01.49 0 1 1 0 00.17 0h.38a3.46 3.46 0 00.91 0 1.36 1.36 0 01.45 0 6.93 6.93 0 00.91 0h.21a1.11 1.11 0 01.48 0 3 3 0 00.6 0h3.14a2.33 2.33 0 01.59 0h.35a4.43 4.43 0 00.63 0 4.51 4.51 0 01.9 0h.94a1.1 1.1 0 00.18 0 1.92 1.92 0 01.24 0 1.08 1.08 0 00.31 0 4.61 4.61 0 01.91 0 2.42 2.42 0 00.76 0 .74.74 0 01.21 0 1 1 0 00.35 0 2 2 0 01.35 0h18.86a4.22 4.22 0 00.87 0 .65.65 0 01.24 0 4.12 4.12 0 00.7 0h2.38a1.29 1.29 0 01.48 0h.21a.81.81 0 01.38 0h.07a6.09 6.09 0 01.74 0h8.72a8.62 8.62 0 00.88 0 .65.65 0 00.14 0h3.31a5.89 5.89 0 00.84 0 1 1 0 01.17 0 3 3 0 00.67 0h.66a6.46 6.46 0 011 0 .81.81 0 00.31 0 1.48 1.48 0 01.42 0 1 1 0 00.34 0h2.69a2.67 2.67 0 00.49 0 .74.74 0 01.21 0L86 .06h3.7a2 2 0 01.49 0 2.55 2.55 0 00.73 0h.14a2.91 2.91 0 00.66 0 3.51 3.51 0 01.56 0 1 1 0 00.35 0A2.34 2.34 0 0193 0h9.71a6 6 0 011.12 0h.1a5.89 5.89 0 01.84 0h.14a3.85 3.85 0 01.59 0h.1a.18.18 0 01.14.18.19.19 0 01-.11.2 1 1 0 01-.34.07h-7.72zM3.31 3.61h1.85l3.1 9H6.4l-.59-1.92H2.63l-.58 1.92H.24zm-.26 5.72h2.33l-.79-2.61c-.15-.48-.36-1.39-.36-1.39s-.23.91-.39 1.39zM9 3.61h1.8v9H9zm3.16 0h4A2.54 2.54 0 0119 6.13a2.06 2.06 0 01-1.61 2.18 1.78 1.78 0 011.34 1.82c.13 1.28.08 2.26.38 2.39v.09h-1.68c-.22-.1-.24-1.11-.32-2.08A1.52 1.52 0 0015.39 9H14v3.63h-1.84zm1.79 4h1.89c1 0 1.46-.52 1.46-1.24a1.24 1.24 0 00-1.41-1.28H14zm11.82-4h2.51l1.24 4.54c.31 1.14.56 2.44.56 2.44s.24-1.3.54-2.44l1.25-4.54h2.55v9h-1.65V7.47c0-.74.08-1.88.08-1.88s-.19 1.07-.38 1.73l-1.51 5.33h-1.74l-1.48-5.33c-.19-.66-.38-1.73-.38-1.73s.08 1.14.08 1.88v5.18h-1.67zm12.45 0h1.84l3.11 9h-1.86l-.59-1.92h-3.18L37 12.65h-1.85zM38 9.33h2.33l-.83-2.61c-.15-.48-.36-1.39-.36-1.39s-.23.91-.37 1.39zm8.17-1.41l-2.63-4.31h2l1.63 2.86 1.63-2.86h1.94l-2.58 4.3 2.92 4.74H49l-1.8-3.3-1.82 3.3h-2zm10.7-4.31h1.87l1.55 5.24c.18.59.39 1.44.39 1.44s.21-.86.38-1.44l1.54-5.24h1.81l-3 9h-1.57zm8.26 0h6.48v1.54h-4.69v2H71v1.5h-4.08v2.44h4.73v1.53h-6.52zm7.62 0h4a2.54 2.54 0 012.83 2.52A2.06 2.06 0 0178 8.31a1.78 1.78 0 011.34 1.82c.13 1.28.08 2.26.38 2.39v.09H78c-.22-.1-.24-1.11-.32-2.08A1.52 1.52 0 0076 9h-1.46v3.63h-1.79zm1.79 4h1.89c1 0 1.46-.52 1.46-1.24a1.24 1.24 0 00-1.41-1.28h-1.94zm5.85.54c0-2.71 1.65-4.72 4.25-4.72s4.23 2 4.23 4.72-1.64 4.71-4.23 4.71-4.25-2-4.25-4.71zm6.66 0c0-1.81-.79-3.21-2.4-3.21s-2.44 1.4-2.44 3.21.82 3.2 2.44 3.2 2.4-1.35 2.4-3.2zm2.79-4.54h1.81l2.93 5.05a13.62 13.62 0 01.62 1.26V3.61h1.77v9h-1.76l-3-5a13.49 13.49 0 01-.63-1.26v6.25h-1.74zm10.88 0h1.84l3.11 9h-1.86l-.6-1.92H100l-.58 1.92h-1.77zm-.26 5.72h2.32L102 6.72c-.15-.48-.36-1.39-.36-1.39s-.22.91-.37 1.39zm5.17 5.85a.23.23 0 00-.2-.19h-.14a7.3 7.3 0 00-.81 0h-.19a11.08 11.08 0 00-1.15 0H103a9.91 9.91 0 00-1.54 0H87.55a1.93 1.93 0 01-.48 0 6.52 6.52 0 00-.77 0 5.51 5.51 0 01-.91 0 .62.62 0 00-.19 0 4.87 4.87 0 01-1 0 3.75 3.75 0 00-.67 0A3.85 3.85 0 0183 15H71.58a3.74 3.74 0 01-.67 0h-3.22a3.77 3.77 0 00-.48 0 2.57 2.57 0 01-.48 0 2.81 2.81 0 00-.58 0 3.09 3.09 0 01-.43 0 10 10 0 00-1.34 0h-.92a5.53 5.53 0 01-.91 0 1 1 0 00-.24 0 11 11 0 01-1.15 0H59c-.56 0-1.12.05-1.68 0h-8.57c-.58 0-1.12-.05-1.68 0h-.87c-.57 0-1.15.05-1.73 0a1.93 1.93 0 00-.24 0h-1.06c-.36 0-.67-.05-1 0a.17.17 0 01-.1 0 2.26 2.26 0 00-.52 0 1.43 1.43 0 01-.29 0 3 3 0 00-.67 0 3.1 3.1 0 01-.43 0h-2.84a6.29 6.29 0 01-1 0 1.85 1.85 0 00-.33 0 6.87 6.87 0 01-1.2 0H8.39a1.93 1.93 0 01-.48 0 1.31 1.31 0 00-.28 0 4.18 4.18 0 01-1.06 0 7.46 7.46 0 00-1.25 0 2.08 2.08 0 01-.43 0h-1.9a7.47 7.47 0 00-1.25 0 5.06 5.06 0 01-.87 0H.43a1.13 1.13 0 00-.26 0 .23.23 0 00-.12 0 .18.18 0 000 .07v.07H0a.32.32 0 010 .14c0 .05 0 .08.05.11a.41.41 0 00.19 0h15.48a5 5 0 01.67 0 4.7 4.7 0 00.53 0h52.91a5.78 5.78 0 011.1 0h1.54a7.54 7.54 0 01.82 0H105a1.45 1.45 0 00.47-.07.21.21 0 00.16-.21zm-33.34 2.31h.28l1.28 1.87c.14.21.27.44.27.44v-2.31h.25v2.67h-.27l-1.27-1.85c-.13-.19-.29-.46-.29-.46v2.31h-.25zm2.59 0h.26v2.67h-.26zm.77 0h.26v1.42l1.5-1.42h.34l-1.16 1.08 1.23 1.59h-.31l-1.1-1.41-.5.47v.94h-.26zm2.42 0H80v.22h-1.67v1h1.49v.22h-1.49v1H80v.23h-1.93zm2.74 1.8h.26c0 .45.34.71.86.71s.71-.2.71-.56-.26-.47-.85-.58-.87-.25-.87-.72.37-.71.92-.71a.87.87 0 011 .79h-.25a.65.65 0 00-.72-.58c-.43 0-.68.2-.68.49s.25.42.75.51 1 .23 1 .79-.39.78-1 .78a1 1 0 01-1.13-.92zm2.47-1.8h1.09a.83.83 0 01.65.23.69.69 0 01.2.52c0 .49-.3.76-.88.76h-.8v1.16h-.26zm1 1.29c.45 0 .63-.2.63-.54s-.21-.53-.61-.53h-.8v1.07zm1.16.04a1.29 1.29 0 112.58 0 1.29 1.29 0 11-2.58 0zm2.31 0a1 1 0 10-2 0 1 1 0 102 0zm.66-1.33h1.23a.69.69 0 01.79.72.61.61 0 01-.47.64c.29.1.38.3.4.71s.07.54.12.58h-.28c-.06 0-.07-.14-.1-.6s-.19-.59-.59-.59h-.84v1.19h-.26zm1.14 1.26c.41 0 .61-.19.61-.52s-.15-.52-.57-.52h-.92v1zm2.02-1.04h-.94v-.22h2.14v.22h-.94v2.45h-.26zm1.28 1.58h.26A.75.75 0 0094 20c.41 0 .71-.2.71-.56s-.26-.47-.85-.58-.87-.25-.87-.72.37-.71.92-.71a.87.87 0 011 .79h-.25a.65.65 0 00-.72-.58c-.43 0-.68.2-.68.49s.25.42.75.51 1 .23 1 .79-.39.78-1 .78a1 1 0 01-1.16-.92zm2.2-1.8h.26l.48 1.8c.06.2.13.53.13.53l.13-.52.51-1.81h.28l.51 1.81c0 .19.12.52.12.52l.13-.53.48-1.8h.26l-.75 2.67h-.26l-.53-1.95c0-.17-.11-.43-.11-.43s0 .26-.1.43l-.54 1.95h-.28zm3.6 0h1.89v.22h-1.63v1h1.49v.22h-1.49v1h1.67v.23h-1.93zm3.16 0h.3l1 2.67h-.27l-.33-.84h-1.2l-.33.84h-.26zm.68 1.62l-.38-1c-.06-.14-.14-.38-.14-.38s-.07.22-.14.38l-.39 1zm.95-1.62h1.24a.69.69 0 01.78.72.61.61 0 01-.46.64c.28.1.38.3.4.71s.07.54.12.58h-.28c-.06 0-.08-.14-.1-.6s-.19-.59-.6-.59h-.84v1.19h-.26zm1.15 1.26c.4 0 .6-.19.6-.52s-.15-.52-.57-.52h-.92v1zM38.27 19c.36-.21.61-.34.61-.71a.52.52 0 00-.58-.55.6.6 0 00-.44.17.76.76 0 00-.17.5h-.25a.83.83 0 01.23-.64 1 1 0 01.65-.23.74.74 0 01.81.74c0 .51-.38.69-.77.92s-.64.37-.7.73h1.44v.22h-1.72c.01-.65.47-.9.89-1.15zm1.14-.12c0-.83.39-1.34 1-1.34s1 .5 1 1.34-.35 1.33-1 1.33-1-.52-1-1.33zm1.71 0c0-.69-.25-1.13-.72-1.13s-.73.42-.73 1.13.25 1.12.73 1.12.72-.42.72-1.12zm1.42.12c.36-.21.6-.34.6-.71a.52.52 0 00-.57-.55.57.57 0 00-.44.17.71.71 0 00-.17.5h-.25a.83.83 0 01.23-.64.94.94 0 01.65-.23.74.74 0 01.81.74c0 .51-.38.69-.77.92s-.65.37-.7.73h1.43v.22h-1.72c.02-.65.48-.9.9-1.15zm1.14-.12c0-.83.38-1.34 1-1.34s1 .5 1 1.34-.34 1.33-1 1.33-1-.52-1-1.33zm1.71 0c0-.69-.26-1.13-.73-1.13s-.72.42-.72 1.13.25 1.12.72 1.12.73-.42.73-1.12zm-42.8-1.37A2.56 2.56 0 000 20a.08.08 0 00.09.08h1.43a.08.08 0 00.09-.08 1 1 0 011-.95 1 1 0 011 .95.08.08 0 00.09.08h1.4a.08.08 0 00.09-.08 2.56 2.56 0 00-2.6-2.51m4.3.2H5.45a.08.08 0 00-.08.08V20a.08.08 0 00.08.08h1.44A.08.08 0 007 20v-2.23a.08.08 0 00-.08-.08m2.83-.18A2.56 2.56 0 007.15 20a.08.08 0 00.09.08h1.43a.08.08 0 00.09-.08 1 1 0 011-.95.09.09 0 00.08-.05v-1.4a.09.09 0 00-.09-.09"/><path d="M58.07 15.84a9.57 9.57 0 000 1.07v3.19h.39a.45.45 0 000-.11.65.65 0 010-.24.82.82 0 000-.22.71.71 0 010-.29.5.5 0 000-.17 2.22 2.22 0 010-.63 1.7 1.7 0 000-.39v-.31a3.17 3.17 0 010-.44.83.83 0 000-.22 1.46 1.46 0 010-.36v-1.07a1.34 1.34 0 000-.2c0-.08-.11-.13-.24-.11s-.1 0-.11.07 0 .29 0 .43zm-33.57 0a9.57 9.57 0 000 1.07v3.19h.39a.45.45 0 000-.11.65.65 0 010-.24.81.81 0 000-.22.94.94 0 010-.29.48.48 0 000-.17 2.22 2.22 0 010-.63 1.7 1.7 0 000-.39v-.31a3.17 3.17 0 010-.44.83.83 0 000-.22 1.46 1.46 0 010-.36v-1.07a1.34 1.34 0 000-.2c0-.08-.11-.13-.24-.11s-.1 0-.11.07 0 .29-.05.43z"/></g></g></svg><svg width="110.47" height="13.25" viewBox="-1 -1 110.47 13.25" y="52.93" xmlns="http://www.w3.org/2000/svg"><path data-name="CÓMPRALAS AQUÍ" d="M4.236 10.759a3.737 3.737 0 002.747-.971 3.382 3.382 0 001.031-2.2H5.891a1.577 1.577 0 01-1.667 1.427c-1.271 0-2.063-1.139-2.063-2.71s.66-2.723 2.051-2.723a1.551 1.551 0 011.619 1.356h2.123a3.362 3.362 0 00-1.283-2.363 3.989 3.989 0 00-2.447-.756 4.474 4.474 0 00.012 8.94zm7.873-9.186h1.487l1.271-1.56h-2.243zm.8 7.471c-1.379 0-2.087-1.187-2.087-2.746s.708-2.759 2.087-2.759 2.075 1.2 2.075 2.759-.681 2.746-2.072 2.746zm-.012 1.727a4.48 4.48 0 10-4.233-4.473 4.154 4.154 0 004.236 4.473zm5.318-.2h1.907V6.265c0-.348-.036-1.727-.036-1.727h.024s.3 1.3.4 1.607l1.223 4.426h1.751l1.236-4.438c.1-.312.4-1.6.4-1.6h.024s-.036 1.367-.036 1.715v4.318h1.942V1.988h-2.878l-1.055 3.754c-.144.54-.48 1.955-.48 1.955h-.024s-.336-1.415-.492-1.955l-1.043-3.754h-2.855v8.576zm10.248 0h2.159V7.704h2a2.707 2.707 0 002.9-2.806 2.815 2.815 0 00-.863-2.111 3.254 3.254 0 00-2.339-.792h-3.862v8.576zm2.159-4.546V3.782h1.571a1.062 1.062 0 011.2 1.1 1.082 1.082 0 01-1.2 1.139h-1.571zm5.905 4.546h2.123V7.356h1.283a1.258 1.258 0 011.428 1.224 6.1 6.1 0 00.323 1.991h2.063v-.108c-.3-.108-.18-1.188-.36-2.315a1.715 1.715 0 00-1.247-1.571v-.039a2.053 2.053 0 001.487-2.075c0-1.6-1.295-2.471-3-2.471h-4.1v8.576zm2.123-4.786V3.674h1.643a1.07 1.07 0 11-.048 2.111H38.65zm5.569 4.786h2.135l.492-1.548h3l.5 1.548h2.231l-3.094-8.576H47.3zM47.338 7.5l.659-2.075c.144-.443.348-1.211.348-1.211h.024s.192.768.336 1.211l.648 2.075h-2.012zm6.085 3.071h5.973v-1.8h-3.85V1.988h-2.115v8.576zm6.42 0h2.135l.492-1.548h3l.5 1.548h2.231l-3.09-8.583h-2.18zM62.961 7.5l.66-2.075c.144-.443.348-1.211.348-1.211h.024s.192.768.336 1.211l.647 2.075h-2.015zm9.5 3.274c1.979 0 3.514-1 3.514-2.794 0-1.835-1.439-2.327-3.034-2.7-1.284-.287-1.943-.431-1.943-1.031a1.026 1.026 0 011.235-.8 1.213 1.213 0 011.379 1.032h2.075c-.084-1.8-1.523-2.639-3.382-2.639-1.919 0-3.406.8-3.406 2.639 0 1.8 1.571 2.255 3.058 2.6 1.175.288 1.871.432 1.871 1.116a1.145 1.145 0 01-1.379.9c-1.02 0-1.583-.359-1.679-1.223h-2.135c.055 1.89 1.554 2.897 3.833 2.897zm6.122-.2h2.135l.492-1.548h3l.5 1.548h2.23l-3.094-8.576h-2.183zm3.118-3.071l.66-2.075c.144-.443.348-1.211.348-1.211h.024s.192.768.336 1.211l.647 2.075h-2.015zm9.971 1.547c-1.379 0-2.074-1.187-2.074-2.746s.695-2.759 2.074-2.759 2.063 1.2 2.063 2.759a3.8 3.8 0 01-.3 1.583l-.791-.756-.984 1.02.78.755a1.947 1.947 0 01-.761.138zm3.227 2.219l.983-1.043-.971-.912a4.7 4.7 0 00.983-3.01 4.234 4.234 0 10-4.234 4.473 4.3 4.3 0 002.159-.539zm5.606-.54c2.386 0 3.574-1.2 3.574-3.178V1.988h-2.123v5.589a1.321 1.321 0 01-1.451 1.439 1.287 1.287 0 01-1.476-1.4V1.988h-2.122v5.553c.007 2.007 1.206 3.182 3.605 3.182zm4.945-.155h2.123V1.988h-2.123v8.576zm.264-9h1.487l1.272-1.56h-2.243z" fill="#fff" fill-rule="evenodd"/></svg><svg width="32.92" height="21.94" viewBox="-1 -1 32.92 21.94" x="118.55" y="43.72" xmlns="http://www.w3.org/2000/svg"><g data-name="Layer 2"><path d="M9.34 7.74h-2l.16-3.46-1.37 3.46h-2L7.11 0H9.3L9 3.31 10.32 0h1.95L9.34 7.74zm.44 0h2L14.72 0h-1.94l-3 7.73zm12-.81l9.17-2.18-23.72 9.34c-2.12.84-5 1.36-6.62-.5a2.94 2.94 0 01-.43-2.87c.66-2.33 2.3-4.08 3.9-5.81-.82 1.6-1.49 3.85.36 5.12a3.21 3.21 0 002.55.4l11.25-2.67h-2.79V5c0-.13 0-.11-.07-.09a.33.33 0 00-.09.13l-1 2.7h-2L15.2 0h2l-.78 2.05 1.83-2L24 0l-.56 1.43h-1.78L21.06 3h1.77l-.53 1.37h-1.77l-.72 1.85H22l-.27.71zm-4.52.45L20 .35l-3 3.28.19 3.75zM4.88 19.26l-.32.67h-.37l1.34-2.77 1.33 2.77h-.37l-.32-.67zm.65-1.37L5 19h1l-.49-1.07zm8.91-.61h-.35v2.66h.34v-2.66zm9.26 2.66h-.42l-.82-1.12h-.15v1.12H22v-2.66h.43a1.51 1.51 0 01.73.13.71.71 0 01.37.63.75.75 0 01-.67.75l.88 1.15zm-1.39-1.4h.11c.36 0 .75-.06.75-.48s-.42-.48-.77-.48h-.09v1z" fill="#fff" data-name="Layer 1"/></g></svg><svg width="54.96" height="21.89" viewBox="-1 -1 54.96 21.89" x="118.55" xmlns="http://www.w3.org/2000/svg"><g data-name="Layer 2"><path d="M41.94 16.5l.06-5.25 9.52.08V8.1L42 8V3.65l10.87.09.13-3.3h-4.66a10.29 10.29 0 01-1.11 0h-1.37a1.83 1.83 0 00-.33 0H38v6.39a1.16 1.16 0 000 .18v4.68a5.83 5.83 0 000 .59v7.48l15.09.13v-3.3H50.1c-.32 0-.42.06-.64.05h-1.98c-.28 0-.78-.05-1.17-.06h-1.19a.54.54 0 00-.18 0 .47.47 0 01-.16 0h-2.66M18.34 19.6h4.14l.08-8.56 8 .06-.08 8.57h4.14L34.81.29h-4.14v3.48a2.72 2.72 0 010 .57 2.46 2.46 0 000 .47v.79a2.74 2.74 0 010 .7 3.47 3.47 0 000 .79v.82l-8-.07-.01-7.65h-4.14v4.98c0 .15 0 .29.05.44a2.91 2.91 0 000 .42 1.43 1.43 0 010 .46v1.94M6 19.5h4.13l.14-16.1 6.14.05V.14H13.5a5.51 5.51 0 01-.7 0H7.62L4.87 0H0v3.32l6.13.05v2.6a1.55 1.55 0 000 .21v.21a5.81 5.81 0 010 .59v5.38a1.66 1.66 0 000 .32 1.13 1.13 0 010 .32 1.47 1.47 0 000 .21c0 .06 0 .08-.05.13a1.29 1.29 0 000 .48v5.69" fill="#fff" data-name="Layer 1"/></g></svg><svg width="107.71" height="22.44" viewBox="-1 -1 107.71 22.44" y="88.39" xmlns="http://www.w3.org/2000/svg"><g data-name="Layer 2"><path d="M.18 20.32h4.13l-.07-8 8.87-.08V8.87h-.53a1.17 1.17 0 01-.27 0c-.14 0-.27-.06-.41-.06h-.71c-.24 0-.43.05-.65.06H9.08a2.62 2.62 0 01-.28 0 1.49 1.49 0 00-.36 0 8.08 8.08 0 01-.85 0H4.2V4.19h5a5.61 5.61 0 00.71 0c.19 0 .53-.23.71-.15s.13.15.27.19a2 2 0 00.59 0c.17 0 .2-.18.4-.15s.17.12.29.15c.19 0 2.52-.08 2.52-.08V.81L0 .88v2.18c0 1.72 0 3.45.05 5.18 0 1 .17 1.87.17 2.83v.73c0 .24.14.46.15.71a3.31 3.31 0 01-.3 1.11 1.82 1.82 0 000 .77c0 .14.11.08.08.29a5.62 5.62 0 00-.1.7v2.44L.17 20v.36zm24.82.12c5.22 0 7.88-2.48 7.85-6.65v-8.2c0-.13 0-.25-.06-.38s.07-.24.08-.37-.08-.53 0-.81 0-.34 0-.51a3.15 3.15 0 000-.43V.6h-4.13v4.34a6.51 6.51 0 00.08 1.65 2.11 2.11 0 01-.02.41.92.92 0 01-.07.32c0 .08 0 .17-.05.25s0 .16 0 .24a1.64 1.64 0 010 .5 2.32 2.32 0 000 .87 7 7 0 010 .79v3.81c0 2-1.2 3.5-3.82 3.52s-3.84-1.38-3.86-3.4L20.91.7h-4.13v5.93a8 8 0 000 1A2.13 2.13 0 0017 8a2.34 2.34 0 010 1c0 .13-.06.27-.08.4a1.89 1.89 0 000 .53 8 8 0 010 .85v3a1.15 1.15 0 010 .19c0 4.21 2.82 6.56 8.1 6.51zm9.67-16.53l6.13-.05v1.52a2.32 2.32 0 010 .59c0 .18-.06.37-.08.56a5.91 5.91 0 000 .6v12.85h4.14l.08-16.16h.14a8.61 8.61 0 00.88 0c.13 0 .22-.07.35-.07a4.71 4.71 0 00.53 0 2.94 2.94 0 01.42 0h3.81L51 .45 34.64.59v3.32zm26.51 16.23c5.22 0 7.88-2.49 7.84-6.65L68.9.3h-4.14v2.38a5.68 5.68 0 010 .92v9.78c0 2-1.2 3.49-3.82 3.52-2.77 0-3.84-1.39-3.86-3.4L57.09.4 53 .44v5.19a16 16 0 00.06 2v.24a7.32 7.32 0 010 .81 2.9 2.9 0 010 .51 1 1 0 000 .35.92.92 0 010 .16v2a4.13 4.13 0 010 .93.94.94 0 00-.06.29v.83c0 4.21 2.83 6.55 8.11 6.51zM76 3.43h4.5c2.2 0 3.27 1.14 3.28 2.72s-1.05 2.63-3.3 2.65h-4.4V3.46zm-4 16.29h4.13l-.07-7.81h3.34c2.57 0 3.83 1.16 4 3.28s.26 4.27.78 4.48h4v-.27l-.18-.13a1.14 1.14 0 01-.15-.23 2.57 2.57 0 01-.2-.72 21.94 21.94 0 01-.2-2.32c0-.23 0-.45-.06-.69a5.52 5.52 0 00-.12-.8 2.53 2.53 0 01-.07-.38 1.47 1.47 0 00-.08-.55c0-.09 0-.21-.07-.3s-.09-.1-.13-.16a.31.31 0 01-.06-.23 1.47 1.47 0 000-.21.44.44 0 00-.08-.25c-.09-.1 0-.19-.09-.3a2.42 2.42 0 00-.44-.62 3.45 3.45 0 00-1.25-.82 5.87 5.87 0 00-.89-.31v-.09a4.5 4.5 0 003.7-4.73c0-3.24-2.68-5.39-6.61-5.36l-9.33.08V7.1c0 .85 0 1.82.07 2.72v.51a4.49 4.49 0 01.11 1.15c0 .21-.07.42-.09.62s0 .42 0 .63-.06.48-.06.72a6.37 6.37 0 01.06 1 6.54 6.54 0 000 1v4.3zm18.57-.15l15.09-.13v-3.29l-11 .09V11h2.3a2.09 2.09 0 00.25 0 7.55 7.55 0 01.83 0 6.42 6.42 0 01.76 0 4.75 4.75 0 00.53 0h4.83V7.76l-9.53.08V3.49h3.06a6.17 6.17 0 00.86 0 2 2 0 01.26 0h2.58c.18 0 .37.07.54.06s.28-.06.42-.08l.57-.05a1.6 1.6 0 01.44 0h2.14V.1l-15 .12v10.03c0 .19.08.35.08.53v.4a8.19 8.19 0 000 1.4v1a2 2 0 000 .24 2.62 2.62 0 000 .28v.22a.45.45 0 010 .11v.78a3.28 3.28 0 000 .63.9.9 0 000 .23c0 .16-.12.31-.1.48s0 .26.06.4v2.47" fill="#fff" data-name="Layer 1"/></g></svg><svg width="25.19" height="22.13" viewBox="-1 -1 25.19 22.13" x="118.55" y="87.2" xmlns="http://www.w3.org/2000/svg"><g data-name="Layer 2"><path d="M15.2 20.13h.33a9.91 9.91 0 001.33-.13 10.54 10.54 0 001.25-.22 7.51 7.51 0 001.14-.35 7.26 7.26 0 001-.47 6.29 6.29 0 00.89-.6 6.38 6.38 0 00.75-.72 5.73 5.73 0 00.58-.84 5.09 5.09 0 00.42-1 5.67 5.67 0 00.23-1.07 1.83 1.83 0 000-.57 1.33 1.33 0 010-.21 1.76 1.76 0 000-.23c0-.12-.06-.25-.08-.37s0-.1-.05-.16A1.41 1.41 0 0123 13a1.85 1.85 0 00-.07-.41c-.07-.2-.18-.4-.27-.6a2.21 2.21 0 00-.16-.35c0-.08-.1-.16-.14-.24a.41.41 0 00-.07-.15 2.17 2.17 0 00-.31-.37c-.07-.08-.12-.17-.19-.24s-.21-.13-.3-.2l-.28-.24-.4-.37a1.68 1.68 0 00-.4-.3l-.49-.23a14.14 14.14 0 00-2-.69c-.75-.21-1.52-.38-2.29-.55-3-.65-4.44-1.12-4.43-2.69 0-1.38 1.48-2.26 3.7-2.24s3.7 1 3.91 3h4C22.5 2.2 19.55 0 15 0a14.17 14.17 0 00-1.6.08 10.26 10.26 0 00-1.47.25 10.13 10.13 0 00-1.32.42 6.6 6.6 0 00-1.17.63 5.19 5.19 0 00-1.15 1l-.12.14a3.69 3.69 0 00-.25.34c-.06.1-.08.2-.14.29a2.84 2.84 0 00-.27.62V4a2.4 2.4 0 01-.12.38v.58a2.35 2.35 0 010 .26v.33a2.44 2.44 0 00-.06.71c0 .16 0 .32.08.49a5.29 5.29 0 00.24 1 4.26 4.26 0 001 1.49 5.64 5.64 0 001.47 1 11.82 11.82 0 001.85.72c.68.2 1.37.37 2.07.53l.27.06c3.1.7 5 1.1 5 3S17.17 17 15.06 17c-2.91 0-4.3-1-4.56-3.29h-4a6.93 6.93 0 00.3 1.92 1.17 1.17 0 00.09.24L7 16c.08.1.16.21.25.31a1.5 1.5 0 01.27.34c.06.12.09.26.15.38s.1.15.14.22a1.18 1.18 0 00.11.19c.22.23.42.49.66.7.08.08.18.14.26.21a.21.21 0 00.08.06s.11.05.15.1.09.12.16.17a3.53 3.53 0 00.5.28 7.58 7.58 0 001.1.47 12.34 12.34 0 002.63.57 16.51 16.51 0 001.72.09zM0 19.57h4.14v-5.36a1.29 1.29 0 000-.44v-.16a1.16 1.16 0 010-.32V11.9a2.47 2.47 0 010-.47c0-.21 0-.42.07-.63a5.78 5.78 0 000-.72V.27L.18.23 0 19.57z" fill="#fff" data-name="Layer 1"/></g></svg><svg width="25.92" height="21.54" viewBox="-1 -1 25.92 21.54" x="144.47" y="65.66" xmlns="http://www.w3.org/2000/svg"><g data-name="Layer 2"><path d="M7.3 19.4h4.08l.1-10c0-1.36-.09-3.39-.09-3.39h.06s.78 1.66 1.43 2.69l6.86 10.75h4V13.7c0-.43-.09-.67-.07-1a16.28 16.28 0 00.1-2.61c-.05-.53-.06-1.07-.06-1.6a6.94 6.94 0 010-.79c0-.17.08-.32.09-.5.06-1.65 0-3.32 0-5V.11h-4.08l-.1 10.15c0 1.35.09 3.35.09 3.35h-.06S19 12 18.37 11L11.68.1h-4.2v3.62a11.27 11.27 0 000 1.84 2.12 2.12 0 010 .71 5.61 5.61 0 000 .82v12.34zM0 19.34h4.14V9.24a2.88 2.88 0 000-.72v-.34a1.45 1.45 0 010-.35 2.35 2.35 0 000-.59 1.61 1.61 0 010-.44v-.7a2.8 2.8 0 00.06-.28V0H.18v5.12L.1 8.2v5.67a9.13 9.13 0 010 1.28 4.56 4.56 0 000 .64v3.55z" fill="#fff" data-name="Layer 1"/></g></svg><svg width="54.96" height="21.83" viewBox="-1 -1 54.96 21.83" x="118.55" y="21.89" xmlns="http://www.w3.org/2000/svg"><g data-name="Layer 2"><path d="M37.77 19.66h4.48a1.75 1.75 0 00.33.06h.65c.42 0 .82.06 1.24.05.18 0 .33 0 .5.06a4.51 4.51 0 00.52 0h7.35v-3.28l-11-.09.16-5.26c0-.03 2.28 0 2.49 0a1.67 1.67 0 01.39 0 4.93 4.93 0 00.55 0c.26 0 .53.05.79 0a3.43 3.43 0 00.44-.09 10.68 10.68 0 011.6 0h3.27V7.89h-6.84a2.73 2.73 0 00-.49.11H42V3.67l10.87.09V.46H50.1a10.76 10.76 0 00-1.39 0h-.95a2.93 2.93 0 00-.41 0c-.45.07-.91 0-1.37 0l-.93.05a7.54 7.54 0 00-1.24-.07 6.5 6.5 0 01-1.08 0c-.58 0-1.15 0-1.73-.05h-.78L38 .32v7.25a.94.94 0 000 .29.92.92 0 010 .25 2.67 2.67 0 000 .4.88.88 0 01.06.27V10a4.46 4.46 0 00-.07.65v1.94a3.18 3.18 0 00-.06.43v6.64zm-15.27-2.5v-6.15l8 .07v8.52h4.13V8.24a8.06 8.06 0 000-1.3 4.91 4.91 0 01-.06-.66 1.57 1.57 0 01.09-.43 2.5 2.5 0 000-.47V.33h-4.14l.08 7.5-8-.06.06-7.58h-4.14v7.92c0 .16-.06.29-.07.44s.1.32.16.48-.05.47-.06.67 0 .36-.05.55a4.86 4.86 0 000 .54v.37c0 .17-.06.32-.06.5 0 .35.06.67.06 1v1.16c0 .33 0 .66-.05 1v4.67h4.14s0-4.3.06-6.79M0 3.31h6.14L6 19.4h4.13v-5.83a2.63 2.63 0 010-.49 2.59 2.59 0 000-.48v-1.49c0-.53-.06-1-.06-1.55a2.8 2.8 0 010-.29c0-.11.06-.2.06-.31v-.67a3.19 3.19 0 01.1-.69 1.35 1.35 0 000-.53 4.56 4.56 0 010-.64V3.39h6.14V.09h-4.12a6.48 6.48 0 00-.88 0h-.25a1.65 1.65 0 00-.31 0H8.43C8.18.13 8 0 7.73 0s-.66.05-1 .05c-.48 0-.94.06-1.42.06S4.2.08 3.64.05C2.44 0 1.23 0 0 0v3.31z" fill="#fff" data-name="Layer 1"/></g></svg></svg>