<svg width="75" height="63" xmlns="http://www.w3.org/2000/svg" xmlns:xlink="http://www.w3.org/1999/xlink"><svg width="48.76" height="23" viewBox="-1 -1 48.76 23" y="23.09" xmlns="http://www.w3.org/2000/svg"><g data-name="Layer 2"><g data-name="Layer 1" fill="#fff"><path d="M24.08 14.13a.19.19 0 000 .08v.08a.14.14 0 000 .07.58.58 0 01-.06.17l-.09.14v.12a.41.41 0 00-.05.09.58.58 0 010 .14.39.39 0 01-.06.11h-.05c-.05 0 0 0 0 .05a1.48 1.48 0 01-.08.13v.15c0 .03-.07.21-.11.32l-.12.33-.11.26c0 .07-.05.15-.09.23l-.05.09a3268706032143.57 3268706032143.57 0 01-.12.22.09.09 0 000 .05.27.27 0 000 .15v.09a.13.13 0 010 .06.23.23 0 010 .11.84.84 0 01-.06.14.31.31 0 00-.06.13c0 .1-.1.14-.14.22s0 0 0 .06v.11a.34.34 0 01-.06.2l-.06.1a.65.65 0 010 .13s0 .05-.05.08a.13.13 0 010 .06.41.41 0 00-.05.09.75.75 0 01-.61.31h.08c-.03 0 0 0 0 0h-.05l-.08.05a.6.6 0 00-.08.16.14.14 0 000 .07v.05a.65.65 0 00-.08.17.61.61 0 000 .13v.12a.24.24 0 01-.05.1s-.06 0-.07.07a.09.09 0 01-.05.07l-.05.05a.32.32 0 01-.08.09l-.06.06a.54.54 0 01-.12.09l.08.08.1.1.23.21.13.13.05.05c.57 0 1-1 1.15-1.33s2.65-6.38 3.1-7.37 1.68-4.25 2.88-7S30.21 1.31 30.11 1a2 2 0 00-1.62-1c-.75 0-1.89.16-7.82 3.31l-.26.13a1.8 1.8 0 01-.21.08c-.13 0-.19.22-.29.3a.46.46 0 01-.25.06.54.54 0 00-.21.08 2.8 2.8 0 00-.3.15 1.25 1.25 0 00-.23.23c-.07.09-.18.09-.28.11a.34.34 0 00-.24.16s-.08.12-.14.16a.5.5 0 01-.27.05.43.43 0 00-.29.12l-.29.15c-.07 0-.1.1-.16.15s-.1 0-.14.11 0 .28-.22.35a.43.43 0 01-.25 0c-.06 0-.14-.07-.2 0h-.05a.52.52 0 01-.22.17 2 2 0 00-.34.12 1.7 1.7 0 01-.22.15 1.87 1.87 0 00-.34.29 1.28 1.28 0 01-.35.26 2.14 2.14 0 00-.32.2.24.24 0 01-.24.08c-.2 0-.22.17-.33.29s-.11.06-.19.07a.31.31 0 00-.2.09.73.73 0 01-.3.19 2.7 2.7 0 00-.29.15c-.24.14-.49.26-.72.41l-1 .65-.3.2 3.29-.7c1-.7 5.15-3.11 8.9-5.08s5.34-2.18 5.62-2.18-.21 1.87-.46 2.27-.06.39-.2.5a.43.43 0 00-.1.36c-.21.18-.13.3-.18.44a3 3 0 00-.28.69c0 .28-.36.49-.36.69a1.39 1.39 0 01-.16.51c-.06.14.05.19-.07.29A4.76 4.76 0 0026.52 8 5.56 5.56 0 0126 9.31c-.21.35 0 .3-.14.44a3.17 3.17 0 00-.21.41l-.09.25a1 1 0 00-.08.25v.05a.64.64 0 010 .07v.21a.38.38 0 000 .1.36.36 0 01-.1.15.24.24 0 00-.09.13.7.7 0 00-.06.19.74.74 0 000 .14v.13A.37.37 0 0025 12a.8.8 0 01-.09.26.6.6 0 00-.08.08.25.25 0 000 .07l-.06.09v.23l-.08.18c0 .06-.07.11-.1.16l-.18.3c-.05.1-.09.2-.13.3a.14.14 0 000 .06v.07a.14.14 0 010 .07.13.13 0 000 .09v.06a.09.09 0 010 .05zm-9.46-6.68h-.1.08c.05 0 0 0 0 0zm.8-.41h-.08V7h.08zm.18-.17zm.1-.09h.06zm4.68-2.44zm.2-.15zm.12-.12zm2.46-1.46s-.05 0 0-.05zm.3-.18a.33.33 0 01-.12 0c-.06 0 0 0 0 0h.12z"/><path d="M1.79 16a.4.4 0 00.13.13 1.79 1.79 0 00.46.27c.44.12.94-.41 1.26-.67l1-.82c.9-.7 1.81-1.37 2.73-2q2.29-1.63 4.64-3.16l6.32-1.05c2.15-.35 7-.92 7.88.07l.22-.32a2.67 2.67 0 00-2.19-1.27 67.24 67.24 0 00-10.1 1.11c-4.8.86-9 1.76-10.37 2s-1.63.31-2.36.39A4.64 4.64 0 000 10.9s0 .08.1.15 0 .14.13.31.26.16.34.33.17.14.58.09a12.3 12.3 0 002.46-.33c1.25-.31 4.92-1 5.38-1.09 0 0-2.44 1.7-3.23 2.31l-1.82 1.4-1.15.93a4.36 4.36 0 01-1.13.81 2.05 2.05 0 01.13.25zM31.15 5.62c0 .19-.06.16.09.22s.27 0 .31-.12a2.59 2.59 0 00.18-.66 1.4 1.4 0 00-.51-.64c-.2-.07-.32 0-.49-.1s-.18 0-.16.18-.06.45 0 .52a1.33 1.33 0 01.27.25l.1.18.08.1s.09 0 .09.07zm-2.91 6.17v.17a.2.2 0 00-.05.09.32.32 0 000 .09v.22a.59.59 0 01-.06.14s-.06.07-.06.11 0 .05-.05.08 0 .06-.06.09a1.29 1.29 0 01-.09.16.36.36 0 000 .09.39.39 0 01-.08.1.47.47 0 00-.07.12v.08c0 .08 0 0 0 0v.14c0 .06-.08.07-.06.11s0 0 0 .06a.19.19 0 010 .08v.18a2.31 2.31 0 01-.18.35.87.87 0 00-.07.17 1.88 1.88 0 01-.12.18 1.31 1.31 0 00-.08.21c0 .07 0 .15-.06.22a.88.88 0 010 .15l-.1.21c0 .05 0 .11-.07.17a1.49 1.49 0 00-.14.37c-.09.34-.16.45-.18.59s-.12.24-.09.36 0 .05 0 .06.06 0 .06 0 .05 0 .07.05a.71.71 0 00.1.14l.09.11.25.25c.19.2.38 0 .47-.15s.51-1.62.76-2.15 1.3-3 1.44-3.28.88-2.12 1.05-2.59a1.78 1.78 0 00.15-1c-.06-.23-.44-.42-.76-.49s-.31 0-.3.21a1.57 1.57 0 01-.17.57.73.73 0 00-.06.38c0 .09-.1.21-.21.38a.23.23 0 000 .3c.05.08-.13.23-.17.36s-.14.06-.17.17-.05.18-.08.26a1.72 1.72 0 01-.07.21c0 .06-.08.1-.11.17h.06s.08 0 .08.05-.09.06-.12.08-.06.06-.09.09l-.12.15v.19zM46.76 2.2V2c0-.11-.07-.2-.1-.26s0 0 0-.15-.06-.05-.15-.11 0-.07 0-.07a2.8 2.8 0 00-1.18-.89 4.18 4.18 0 00-1.75 0c-.17.06-.79.14-1 .2a6.33 6.33 0 01-.58.12c-.14 0-.52.23-.75.31a12.54 12.54 0 00-1.15.53c-.16.09-.36.27-.45.27s-.11.09-.18.17-.1 0-.16 0-.12.1 0 .13-.29.24-.35.28-.06 0-.06-.09-.21.09-.33.19a6.25 6.25 0 00-.57.67c-.09.13 0 .25 0 .28a.89.89 0 00-.33.31c-.05.09-.2 0-.22.12a.88.88 0 01-.27.29c-.12.11-.09 0-.19.13a.94.94 0 01-.26.27v.17c0 .09-.13.14-.2.17a.22.22 0 00-.13.16l-.14.11c-.14.11 0 .14-.1.19a3.49 3.49 0 00-.41.44l-.21.44a.43.43 0 01-.11.15v.07a1.58 1.58 0 00-.14.2s.12.08.08.1-.14 0-.16.11-.05.06-.12.1-.7.93-.8 1.06-.48.82-.55.95-.19.1-.24.17.06.07 0 .16-.16.12-.21.3-.08.18-.14.23 0 .18-.06.2 0 .14 0 .2-.07 0-.13 0-.07.09-.07.15a.26.26 0 01-.07.17.2.2 0 00-.09.18c0 .07-.05.2-.1.22s0 0-.11.16a.57.57 0 01-.12.19v.2q0 .16-.12.12c-.06 0-.09.09-.08.21a.23.23 0 01-.1.23c-.07.06 0 .24-.05.34s-.05 0-.13.06-.09.22-.1.3 0 0-.11 0 0 .09-.05.16a.76.76 0 00-.12.2.55.55 0 01-.07.18v.16c0 .06 0 0-.06.09s0 .16-.07.26a.4.4 0 00-.07.23c0 .08-.1.19-.18.26a1.28 1.28 0 00-.18.37c-.07.13 0 .14-.07.26s0 .19-.12.27-.13.32-.15.34 0 .11-.05.18 0 .21-.1.3a1 1 0 00-.17.44v.11c0 .11 0 .08-.08.22a.52.52 0 00-.11.25v.28c0 .05-.05.12-.06.18v.07a.41.41 0 000 .16.45.45 0 010 .11 2.2 2.2 0 01-.06.37 1.24 1.24 0 01-.14.45c-.11.23.07.39.19.54a1.71 1.71 0 01.3.48c.09.22.62.05.65-.05a4.15 4.15 0 00.09-.62c0-.08.09-.21.09-.28v-.47c0-.19.11-.56.15-.83a6.86 6.86 0 01.27-1c.05-.17.39-.91.43-1a3.2 3.2 0 01.13-.35 2.2 2.2 0 00.1-.28 9 9 0 01.4-.82c0-.08.27-.59.32-.68s.09-.25.2-.49.1-.22.1-.24v-.13a.64.64 0 00.11-.28c0-.15.82-1.43.87-1.55s.09-.13.13-.22 0-.17.07-.27a1.57 1.57 0 01.29-.36v-.12a.29.29 0 000-.11.38.38 0 010-.13c0-.08.07-.05.12-.1a1.52 1.52 0 00.19-.33c.07-.14.35-.51.45-.67a4.93 4.93 0 01.38-.61c.09-.12.35-.41.55-.71a20.62 20.62 0 011.39-1.78 17.05 17.05 0 011.74-1.76 12.64 12.64 0 012-1.2 2.13 2.13 0 01.49-.24 12.53 12.53 0 012.55-.64c1-.05 1.06.06 1.11.11a1.1 1.1 0 01-.05.48 5 5 0 01-.21.52s-.07 0-.06.17 0 .19-.06.22a.57.57 0 00-.28.19c-.05.08 0 .19 0 .26s-.18.17-.18.24-.11.14-.15.23-.11.07-.18.07-.08.17-.11.25a.86.86 0 01-.15.22s.11 0 0 0-.2.17-.26.19-.06.12-.11.18-.27.1-.28.23a.28.28 0 01-.2.23 2.62 2.62 0 00-.45.44c-.08.08-.78.67-.85.74s-.28.24-.31.3-.54.39-.62.47a2.4 2.4 0 00-.37.28 7.32 7.32 0 01-.65.56 1.72 1.72 0 00-.33.26c-.08.09-.42.32-.48.37a2.55 2.55 0 01-.41.33c-.12.06-.2.23-.34.29s-.49.35-.61.4-.1.07-.15.14-.08.07-.18.09a3.8 3.8 0 00-.57.42c-.07.07-.47.43-.54.47a.92.92 0 00-.22.17c-.05.06-.08 0-.11.08a.32.32 0 01-.12.17l-.31.29s-.25.32-.31.33 0 .11-.1.16-.15.24-.22.31-.05.1-.05.17 0 0-.08.1-.2.42-.23.47a.53.53 0 00-.06.19c0 .1 0 0-.07.13s0 .1.06.11 0 0 0 .07v.14c0 .04 0 0-.08.14a1.06 1.06 0 00.08.45 1.3 1.3 0 01.08.31c0 .15.15.24.19.37a1 1 0 00.15.36c.08.1.09.23.18.29s.09.06.1.17.09.1.11.16a2.79 2.79 0 00.43.48c.07 0 .08 0 .1.09s.39.46.53.47 0-.06.19.13a14.75 14.75 0 002.07.91c.29.08.7.12.87.16a.5.5 0 00.39 0c.19-.07.4.11.66.16a6.07 6.07 0 001.3-.1c.08 0 .06-.28.06-.28h-.25c-.12 0-.11-.09-.34-.23a3.87 3.87 0 00-1.22-.21 7.21 7.21 0 01-2.49-.77c-1.46-.66-1.53-.95-2-1.82a2.1 2.1 0 01.49-2.26 12.26 12.26 0 012.44-2.13c1.25-.92 3.74-3 5.12-4.17a12.67 12.67 0 002.43-2.83 3 3 0 00.47-1.4zm-5.69 15.69h.18c.03 0 0 0 0 0s-.05 0-.09.05 0 .1 0 .09 0 0-.13-.11 0 0 0-.05z"/></g></g></svg><svg width="62.23" height="13.59" viewBox="-1 -1 62.23 13.59" y="9.5" xmlns="http://www.w3.org/2000/svg"><g data-name="Layer 2"><g data-name="Layer 1" fill="#fff"><path d="M55.56.3h-8.73a1.3 1.3 0 00-.34 0h-.64a1.78 1.78 0 00-.46 0h-22.1a1.31 1.31 0 00-.28 0h-8.53a1.88 1.88 0 00-.53 0h-.54a.86.86 0 00-.16 0H13a3.18 3.18 0 00-.69 0 .33.33 0 01-.14 0 3.42 3.42 0 00-.64 0h-.44a1.22 1.22 0 01-.33 0 .86.86 0 00-.32 0 1.14 1.14 0 01-.32 0H7.15a3.47 3.47 0 00-.72 0 1.37 1.37 0 01-.35 0 .76.76 0 00-.26 0H1.3a8.55 8.55 0 01-.88 0 2 2 0 01-.36 0A.06.06 0 010 .25C0 .18 0 .12.09.12h1a1.51 1.51 0 00.3 0h1.15a3 3 0 00.52 0h.14a1 1 0 00.24 0h.61a1.71 1.71 0 00.32 0 .06.06 0 01.06 0 .76.76 0 00.3 0h.59a2.17 2.17 0 00.36 0h.16A.48.48 0 016 .1a2.57 2.57 0 00.62 0 1.61 1.61 0 01.18 0 1.15 1.15 0 00.37 0 .33.33 0 01.14 0 2.8 2.8 0 00.5 0h.4a4.09 4.09 0 01.7 0h2.75a.16.16 0 01.15 0h.08a1.22 1.22 0 01.27 0h.32a1.81 1.81 0 00.52 0h.26a3 3 0 00.52 0h.11a.66.66 0 01.28 0 1.94 1.94 0 00.34 0h1.79a1.29 1.29 0 01.34 0h.56a2.27 2.27 0 01.52 0h.13a2.67 2.67 0 01.4 0h.42a1.81 1.81 0 01.52 0 1.24 1.24 0 00.43 0h11.27a2.09 2.09 0 00.5 0h.13a2.71 2.71 0 00.4 0h1.36a.87.87 0 01.28 0 .24.24 0 00.12 0h.25a2.94 2.94 0 01.42 0h.44a.17.17 0 01.1 0h4.48a4.17 4.17 0 00.5 0h1.97a3.85 3.85 0 00.48 0h.1a1.21 1.21 0 00.38 0h.37a3.47 3.47 0 01.56 0 .54.54 0 00.18 0 1 1 0 01.24 0 .45.45 0 00.2 0h1.53a.88.88 0 00.28 0h5a.88.88 0 01.28 0 1.41 1.41 0 00.41 0h.08a2.41 2.41 0 00.38 0 1.72 1.72 0 01.32 0h.2L53 0h5.54a3.32 3.32 0 01.63 0h.06a2.57 2.57 0 01.48 0h.08a1.93 1.93 0 01.34 0h.06a.12.12 0 01.08.1.13.13 0 01-.07.12.43.43 0 01-.19 0h-4.45zM1.77 1.84h1l1.82 5.31H3.53L3.2 6H1.38l-.33 1.15H0zM1.62 5.2H3l-.5-1.53c-.08-.28-.2-.82-.2-.82s-.12.54-.21.82zM5 1.84h1v5.31H5zm1.82 0h2.31a1.47 1.47 0 011.61 1.48 1.2 1.2 0 01-.92 1.28c.47.15.7.43.77 1.07s0 1.32.22 1.4v.06h-1c-.13-.06-.14-.66-.18-1.23a.88.88 0 00-1-.9h-.79v2.15h-1zm1 2.35h1.1c.56 0 .83-.31.83-.73A.71.71 0 009 2.71H7.84zm6.77-2.35H16l.71 2.67c.17.66.31 1.43.31 1.43s.13-.77.31-1.43l.71-2.67h1.45v5.31h-1v-3c0-.43.05-1.1.05-1.1s-.11.62-.22 1l-.86 3.13h-1L15.71 4c-.11-.39-.22-1-.22-1v4.1h-.93zm7.1 0h1l1.77 5.31h-1.01L23.11 6H21.3L21 7.15h-1zm-.15 3.36h1.33l-.45-1.53c-.08-.28-.2-.82-.2-.82s-.12.54-.21.82zm4.69-.83l-1.51-2.53h1.15l.93 1.68.93-1.68h1.11l-1.47 2.52L29 7.15h-1.15l-1-1.94-1 1.94H24.6zm6.1-2.53h1.07l.89 3.07c.09.35.21.85.21.85s.12-.51.22-.85l.87-3.07h1L35 7.15h-1zm4.72 0h3.69v.91h-2.67v1.18h2.34v.89h-2.34v1.43h2.69v.9h-3.71zm4.35 0h2.3a1.47 1.47 0 011.62 1.48 1.21 1.21 0 01-.92 1.28 1 1 0 01.76 1.07c.07.75 0 1.32.22 1.4v.06h-1c-.12-.06-.14-.66-.18-1.23a.87.87 0 00-1-.9h-.82v2.15h-1zm1 2.35h1.1c.55 0 .83-.31.83-.73a.71.71 0 00-.8-.75h-1.11zm3.35.32a2.44 2.44 0 114.84 0 2.44 2.44 0 11-4.84 0zm3.8 0c0-1.06-.45-1.89-1.37-1.89s-1.39.83-1.39 1.89.47 1.87 1.39 1.87 1.37-.82 1.37-1.87zm1.6-2.67h1l1.67 3a6.82 6.82 0 01.35.74V1.84h1v5.31h-1L52.5 4.22c-.16-.29-.36-.74-.36-.74v3.67h-1zm6.2 0h1.06l1.77 5.31h-1.06L58.78 6H57l-.33 1.13h-1zm-.14 3.36h1.32l-.45-1.53c-.08-.28-.2-.82-.2-.82s-.13.54-.22.82zm3.02 3.44a.14.14 0 00-.11-.11H60a3.69 3.69 0 00-.47 0h-.11a4.85 4.85 0 00-.66 0h-.08a6.32 6.32 0 00-.87 0H54.8a3.27 3.27 0 00-.44 0h-4.71a3.31 3.31 0 00-.44 0 2.27 2.27 0 01-.52 0h-.11a2.81 2.81 0 01-.58 0h-7.19a2.38 2.38 0 01-.38 0h-2.71a1 1 0 01-.25 0 6.54 6.54 0 00-.77 0h-.52a3 3 0 01-.52 0h-.13a4.85 4.85 0 01-.66 0H24.56a5.61 5.61 0 00-.58 0H24a.76.76 0 00-.3 0h-.17a1.61 1.61 0 00-.38 0h-1.87a5 5 0 01-.55 0 .61.61 0 00-.19 0 5.3 5.3 0 01-.69 0H4.51a.43.43 0 00-.16 0 2.41 2.41 0 01-.6 0 4.33 4.33 0 00-.72 0 1 1 0 01-.24 0h-.33a4.86 4.86 0 00-.54 0h-.2A3.36 3.36 0 001 8.6a4 4 0 01-.49 0H0a.27.27 0 010 .09v.06a.21.21 0 00.11 0h9.26a1.51 1.51 0 00.3 0h30.09a3.32 3.32 0 01.63 0h.88a3.7 3.7 0 01.47 0h6.35a2.43 2.43 0 01.27 0h11.46a.84.84 0 00.27 0 .13.13 0 00.09-.13zM41.22 10h.16l.73 1.1a2.81 2.81 0 01.15.26V10h.14v1.57h-.16l-.72-1.09-.17-.26v1.35h-.14zm1.48 0h.14v1.57h-.14zm.44 0h.14v.84l.86-.84h.19l-.66.64.7.93h-.18l-.62-.83-.29.28v.55h-.14zm1.37 0h1.08v.13h-.93v.57h.85v.12h-.85v.61h1v.14h-1.1zm1.56 1.05h.15a.44.44 0 00.49.42c.24 0 .41-.12.41-.33s-.15-.28-.49-.35-.49-.14-.49-.41.21-.42.52-.42a.5.5 0 01.56.46h-.14a.38.38 0 00-.41-.34c-.25 0-.39.12-.39.29s.14.25.43.3.56.13.56.46-.23.46-.56.46a.57.57 0 01-.64-.54zM47.49 10h.62a.48.48 0 01.37.14.41.41 0 01.11.3c0 .29-.17.45-.5.45h-.46v.68h-.14zm.59.76c.25 0 .36-.12.36-.31s-.12-.32-.35-.32h-.46v.63zm.64.01a.74.74 0 01.73-.81.74.74 0 01.74.81.74.74 0 11-1.47 0zm1.31 0a.59.59 0 10-1.16 0c0 .38.2.69.58.69s.55-.31.55-.69zm.38-.77h.7a.4.4 0 01.45.43.34.34 0 01-.27.37c.17 0 .22.17.23.42s0 .31.07.33h-.16s0-.08-.06-.35-.1-.35-.33-.35h-.49v.7h-.14zm.65.75c.23 0 .35-.12.35-.31s-.09-.31-.33-.31h-.53v.62zm1.15-.63h-.53V10h1.21v.13h-.53v1.44h-.15zm.73.93h.15c0 .27.19.42.49.42s.4-.12.4-.33-.14-.28-.48-.35-.5-.14-.5-.41.21-.42.53-.42a.5.5 0 01.56.46h-.15a.37.37 0 00-.41-.34c-.24 0-.38.12-.38.29s.14.25.42.3.56.13.56.46-.22.46-.55.46a.56.56 0 01-.64-.54zM54.19 10h.16l.27 1.06c0 .12.07.31.07.31s0-.19.07-.3l.3-1.07h.16l.29 1.07c0 .11.07.3.07.3s0-.19.07-.31l.28-1.06h.15l-.43 1.57h-.15l-.3-1.14c0-.1-.06-.26-.06-.26s0 .16-.06.26l-.31 1.14h-.16zm2.06 0h1.07v.13h-.92v.57h.84v.12h-.84v.61h1v.14h-1.1zm1.8 0h.17l.6 1.57h-.16l-.18-.49h-.69l-.18.49h-.15zm.38 1l-.21-.59a2.19 2.19 0 01-.08-.23l-.07.23-.22.59zm.57-1h.7a.4.4 0 01.45.43.34.34 0 01-.26.37c.16 0 .21.17.22.42s0 .31.07.33H60v-.35c0-.27-.11-.35-.34-.35h-.48v.7H59zm.65.75c.23 0 .35-.12.35-.31s-.09-.31-.33-.31h-.52v.62zm-37.83.13c.2-.12.34-.19.34-.41a.29.29 0 00-.32-.32.33.33 0 00-.25.09.43.43 0 00-.1.3h-.14a.5.5 0 01.13-.38.51.51 0 01.37-.13.43.43 0 01.46.43c0 .3-.22.41-.44.54s-.37.22-.4.43h.82v.13h-1c.03-.39.29-.56.53-.68zm.65-.07c0-.49.22-.78.56-.78s.56.29.56.78-.2.78-.56.78-.56-.3-.56-.78zm1 0c0-.41-.14-.66-.41-.66s-.41.25-.41.66.14.66.41.66.38-.25.38-.66zm.78.07c.21-.12.35-.19.35-.41a.3.3 0 00-.33-.32.35.35 0 00-.25.09.49.49 0 00-.1.3h-.14a.54.54 0 01.13-.38.52.52 0 01.37-.13.43.43 0 01.46.43c0 .3-.21.41-.44.54s-.36.22-.39.43h.81v.13h-1c.03-.39.28-.56.53-.68zm.65-.07c0-.49.22-.78.56-.78s.56.29.56.78-.2.78-.56.78-.56-.3-.56-.78zm1 0c0-.41-.15-.66-.42-.66s-.41.25-.41.66.15.66.41.66.4-.25.4-.66zM1.48 10A1.47 1.47 0 000 11.48a.05.05 0 00.05 0h.82a.06.06 0 00.05 0 .56.56 0 111.12 0H2h1A1.48 1.48 0 001.48 10m2.45.11h-.82v1.37h.82v-1.32a.05.05 0 000-.05M5.56 10a1.47 1.47 0 00-1.48 1.47H5a.56.56 0 01.56-.56l.05-.05v-.81L5.56 10"/><path d="M33.11 9v2.5h.22v-.07a.66.66 0 010-.14.29.29 0 000-.13 1 1 0 010-.17.17.17 0 000-.1 1.53 1.53 0 010-.37.87.87 0 000-.23 1.09 1.09 0 010-.18v-.26a.49.49 0 000-.12.86.86 0 010-.22V8.8c0-.05-.06-.07-.14-.06s-.06 0-.06 0a2.3 2.3 0 000 .26zM14 9a4.42 4.42 0 000 .63v1.87h.22a.17.17 0 000-.07.66.66 0 010-.14.29.29 0 000-.13.49.49 0 010-.17.34.34 0 000-.1 1.53 1.53 0 010-.37.59.59 0 000-.23v-.44a.49.49 0 000-.12.86.86 0 010-.22V8.8c0-.05-.06-.07-.14-.06s-.06 0-.06 0A2.3 2.3 0 0014 9z"/></g></g></svg><svg width="74.09" height="9.5" viewBox="-1 -1 74.09 9.5" xmlns="http://www.w3.org/2000/svg"><path data-name="CÓMPRALAS AQUÍ" d="M2.806 7.152a2.486 2.486 0 001.826-.646 2.249 2.249 0 00.685-1.459H3.906a1.049 1.049 0 01-1.108.949 1.544 1.544 0 01-1.371-1.8c0-1.037.438-1.81 1.363-1.81a1.031 1.031 0 011.076.9h1.411a2.231 2.231 0 00-.853-1.571 2.649 2.649 0 00-1.626-.5 2.974 2.974 0 00.008 5.937zm5.233-6.107h.989L9.873.009H8.382zm.534 4.967c-.917 0-1.387-.789-1.387-1.826s.47-1.834 1.387-1.834S9.95 3.15 9.95 4.187s-.452 1.825-1.377 1.825zM8.565 7.16A2.978 2.978 0 105.75 4.187 2.762 2.762 0 008.565 7.16zm3.535-.136h1.268V4.163c0-.231-.024-1.148-.024-1.148h.016s.2.861.263 1.068l.813 2.942H15.6l.822-2.95c.063-.207.263-1.06.263-1.06h.016s-.024.909-.024 1.14v2.87h1.291v-5.7h-1.913l-.7 2.5c-.095.359-.319 1.3-.319 1.3h-.016s-.223-.941-.326-1.3L14 1.325h-1.9v5.7zm6.813 0h1.437V5.119h1.331a1.8 1.8 0 001.93-1.866 1.875 1.875 0 00-.574-1.4 2.164 2.164 0 00-1.555-.526h-2.567v5.7zm1.435-3.022v-1.49h1.044a.706.706 0 01.8.733.719.719 0 01-.8.757H20.35zm3.925 3.022h1.411V4.887h.854a.835.835 0 01.948.813 4.02 4.02 0 00.216 1.323h1.371v-.07a4.015 4.015 0 01-.239-1.539 1.142 1.142 0 00-.829-1.044v-.024a1.365 1.365 0 00.988-1.379A1.73 1.73 0 0027 1.325h-2.727v5.7zm1.411-3.181v-1.4h1.093a.712.712 0 11-.032 1.4h-1.061zm3.7 3.181h1.419l.327-1.028h1.993l.335 1.028h1.483l-2.057-5.7h-1.451zm2.076-2.037l.438-1.379c.1-.3.231-.805.231-.805h.021s.128.51.223.805l.431 1.379H31.46zm4.045 2.041h3.97v-1.2h-2.559v-4.5h-1.411v5.7zm4.268 0h1.419L41.519 6h1.993l.335 1.028h1.483l-2.057-5.7h-1.451zm2.077-2.041l.438-1.379c.1-.3.231-.805.231-.805h.016s.128.51.223.805l.431 1.379H41.85zm6.317 2.177c1.315 0 2.336-.662 2.336-1.858 0-1.22-.957-1.547-2.017-1.794-.853-.191-1.292-.287-1.292-.686a.682.682 0 01.821-.534.806.806 0 01.917.686h1.38c-.056-1.2-1.013-1.754-2.249-1.754-1.275 0-2.264.534-2.264 1.754 0 1.2 1.044 1.5 2.033 1.73.781.191 1.244.287 1.244.742a.762.762 0 01-.917.6.921.921 0 01-1.116-.813H45.62c.03 1.25 1.03 1.923 2.543 1.923zm4.07-.136h1.413L53.977 6h1.993l.335 1.028h1.483l-2.057-5.7H54.28zm2.072-2.041l.439-1.379c.1-.3.231-.805.231-.805h.016s.128.51.223.805l.432 1.379h-1.34zm6.629 1.028c-.917 0-1.379-.789-1.379-1.826s.462-1.834 1.379-1.834 1.371.8 1.371 1.834a2.539 2.539 0 01-.2 1.052l-.526-.5-.654.678.518.5a1.292 1.292 0 01-.513.093zm2.144 1.475l.654-.694-.65-.609a3.123 3.123 0 00.654-2 2.815 2.815 0 10-2.814 2.974 2.86 2.86 0 001.435-.359zm3.727-.359c1.587 0 2.376-.8 2.376-2.113V1.324H67.77v3.715a.878.878 0 01-.965.957.856.856 0 01-.981-.933V1.324h-1.411v3.691c0 1.332.797 2.113 2.392 2.113zm3.288-.1h1.411v-5.7h-1.411v5.7zm.175-5.979h.989l.845-1.036h-1.491z" fill="#fff" fill-rule="evenodd"/></svg><svg width="11.02" height="7.98" viewBox="-1 -1 11.02 7.98" x="62.23" y="9.5" xmlns="http://www.w3.org/2000/svg"><g data-name="Layer 2"><path d="M2.72 2.32h-.58v-1l-.4 1H1.2L2.08 0h.63l-.07 1L3 0h.57l-.85 2.32zm.13 0h.59L4.3 0h-.57l-.88 2.32zm3.5-.24L9 1.43l-6.89 2.8a1.7 1.7 0 01-1.93-.15.93.93 0 01-.13-.87 4.58 4.58 0 011.14-1.74C1 2 .76 2.63 1.3 3a.91.91 0 00.7.13l3.28-.8h-.77V1.5l-.3.82h-.6L4.44 0H5l-.21.62.54-.62H7l-.17.44h-.51L6.15.9h.51l-.15.41H6l-.21.55h.65l-.08.21zM5 2.21l.82-2.1-.82.98v1.12zM1.43 5.78l-.1.2h-.11l.39-.83L2 6h-.11l-.09-.2zm.18-.42l-.14.33h.29l-.15-.33zm2.6-.18h-.1V6h.1v-.8zM6.92 6h-.13l-.24-.34V6h-.1v-.8h.12a.41.41 0 01.22 0 .21.21 0 01.11.19.22.22 0 01-.2.22l.22.39zm-.41-.42c.11 0 .22 0 .22-.15s-.12-.14-.22-.14v.29z" fill="#fff" data-name="Layer 1"/></g></svg><svg width="17.59" height="8.1" viewBox="-1 -1 17.59 8.1" x="48.76" y="31.17" xmlns="http://www.w3.org/2000/svg"><g data-name="Layer 2"><path d="M12.34 5.06V3.45h2.8v-1h-2.8V1.12h3.2v-1H13.9a.85.85 0 00-.16 0h-2.57v2a.4.4 0 010 .11v1.35a1.09 1.09 0 000 .18v2.3h4.44v-1H12.4m-7 1h1.22V3.43L9 3.41V6h1.22l.05-6H9v.89a2.09 2.09 0 000 .25.55.55 0 010 .18v.14a1.93 1.93 0 000 .24.81.81 0 010 .22 1 1 0 000 .24v.25H6.64V.08H5.45v1.48a.59.59 0 000 .13v.13a.33.33 0 010 .14 1.93 1.93 0 000 .24v.36M1.76 6H3V1h1.81V0H0v1h1.81v1a1.08 1.08 0 010 .18v.83a2.43 2.43 0 010 .27v.3a.49.49 0 000 .12v.12a.31.31 0 000 .1V4a.75.75 0 000 .15V6" fill="#fff" data-name="Layer 1"/></g></svg><svg width="33.11" height="8.27" viewBox="-1 -1 33.11 8.27" y="46.09" xmlns="http://www.w3.org/2000/svg"><g data-name="Layer 2"><path d="M.05 6.23h1.22V3.76h2.61v-1a.85.85 0 00-.16 0H1.23V1.28h1.46a1.47 1.47 0 00.21 0c.06 0 .16-.07.21-.05s0 .05.08.06a.48.48 0 00.17 0c.05 0 .06-.05.12-.05s0 0 .09.05h.74v-1L0 .27v2.26c0 .29.05.57.05.86v.45a1 1 0 01-.05.34.45.45 0 000 .23v.09a1.52 1.52 0 000 .21A2.26 2.26 0 010 5v1.26zm7.31 0c1.54 0 2.32-.77 2.31-2V1.08a.69.69 0 000-.13V.19H8.41v1.32a2.1 2.1 0 000 .5v.21a.24.24 0 000 .08v.07a.92.92 0 010 .16.57.57 0 000 .26 1.93 1.93 0 010 .24V4.2a1 1 0 01-1.08 1.1c-.82 0-1.13-.42-1.14-1v-4H4.94V2a1.61 1.61 0 000 .31.54.54 0 000 .1.81.81 0 010 .31v.12C5 2.94 5 3 5 3v1.26c0 1.29.84 2 2.39 2zM10.2 1.2h1.81v.47a.52.52 0 010 .18L12 2v4.12h1.22V1.17a2.25 2.25 0 00.26 0h.26a.48.48 0 01.12 0H15v-1h-4.83v1zm7.81 5c1.53 0 2.32-.76 2.3-2v-4h-1.25v.35a2.62 2.62 0 000 .28 1.41 1.41 0 010 .29v3.01A1 1 0 0118 5.21c-.81 0-1.13-.43-1.13-1v-4h-1.29v1.5a4 4 0 000 .6.17.17 0 000 .07 2.18 2.18 0 010 .25v.16a.2.2 0 000 .11v.61a1.31 1.31 0 010 .28.37.37 0 000 .09v.26c0 1.29.83 2 2.39 2zm4.37-5.12h1.33c.64 0 1 .35 1 .83s-.32.82-1 .83h-1.3V1.05zm-1.18 5h1.22v-2.4h1a1 1 0 011.19 1c.05.64.08 1.31.23 1.38H26V6h-.06a.25.25 0 010-.07.9.9 0 01-.06-.22c0-.23 0-.47-.07-.71a1.49 1.49 0 010-.21v-.36a.5.5 0 000-.17v-.09a.14.14 0 010-.07v-.06a.11.11 0 000-.08v-.09a.62.62 0 00-.12-.19 1.14 1.14 0 00-.69-.4l-.26-.1a1.37 1.37 0 001.11-1.48A1.71 1.71 0 0023.91.06h-2.76v2.12a7.67 7.67 0 000 .83.85.85 0 010 .16 1.39 1.39 0 010 .35v.38a1.7 1.7 0 000 .22 1.51 1.51 0 010 .3v1.63zm5.47 0h4.44V5h-3.23V3.37h2.76v-1h-2.8V1h.9A1 1 0 0029 1h.2a4.51 4.51 0 01.52 0h.57a.56.56 0 01.13 0H31V0h-4.38v3.41a2 2 0 000 .43v.3a.17.17 0 000 .07.27.27 0 000 .09.2.2 0 000 .07v.06a1.09 1.09 0 010 .18 1.21 1.21 0 000 .19v1.1" fill="#fff" data-name="Layer 1"/></g></svg><svg width="8.83" height="8.2" viewBox="-1 -1 8.83 8.2" y="54.36" xmlns="http://www.w3.org/2000/svg"><g data-name="Layer 2"><path d="M4.47 6.2h.49l.37-.07.34-.13A2.1 2.1 0 006 5.85a1.51 1.51 0 00.26-.18l.22-.22a2.33 2.33 0 00.17-.26 1.57 1.57 0 00.12-.3 1.14 1.14 0 00.07-.33.49.49 0 000-.17v-.07a.16.16 0 000-.07.52.52 0 000-.11.27.27 0 000-.09.57.57 0 000-.13 1.42 1.42 0 01-.08-.18 1.17 1.17 0 000-.11v-.07l-.09-.11-.06-.08-.09-.06-.08-.07L6.13 3A.54.54 0 006 2.93l-.14-.07a3.19 3.19 0 00-.59-.21c-.23-.07-.45-.12-.68-.17-.89-.2-1.31-.35-1.3-.83S3.73 1 4.39 1a1 1 0 011.15.91H6.7C6.62.68 5.75 0 4.4 0h-.47a3.25 3.25 0 00-.43.1 3 3 0 00-.39.13 1.9 1.9 0 00-.34.2 1.22 1.22 0 00-.34.3l-.11.15v.09a.54.54 0 00-.08.19.17.17 0 000 .07v.26a.41.41 0 010 .11.78.78 0 000 .22v.15a1 1 0 00.07.29 1.36 1.36 0 00.28.46 2 2 0 00.44.32 3.21 3.21 0 00.54.22l.61.16h.08c.91.22 1.48.34 1.48.92s-.56.76-1.18.76c-.85 0-1.26-.3-1.34-1H1.9a2 2 0 00.1.7.19.19 0 000 .07l.07.1a.39.39 0 01.08.1.56.56 0 010 .12v.12a1.37 1.37 0 00.19.22s.06 0 .08.07h.05l.15.09.57.31a3.39 3.39 0 00.81.17 4.19 4.19 0 00.5 0zM0 6h1.22V4.38a.66.66 0 000-.14.28.28 0 010-.09v-.48a.76.76 0 010-.15v-.19a1.7 1.7 0 000-.22 1.62 1.62 0 010-.22V.08H.05L0 6z" fill="#fff" data-name="Layer 1"/></g></svg><svg width="9.04" height="8.02" viewBox="-1 -1 9.04 8.02" x="33.11" y="46.09" xmlns="http://www.w3.org/2000/svg"><g data-name="Layer 2"><path d="M2.15 6h1.2V1.92s.23.51.42.83L5.81 6H7V3.93a4.25 4.25 0 000-.8v-.5a1.92 1.92 0 010-.24.8.8 0 000-.15V.06H5.84v4.13s-.22-.51-.41-.84L3.44 0H2.2v1.14a5.28 5.28 0 000 .56.81.81 0 010 .22 2.09 2.09 0 000 .25V6zM0 6h1.22V2.86a.79.79 0 000-.22v-.22a.53.53 0 000-.18.56.56 0 010-.13V0H.05v4.27a2.67 2.67 0 010 .4 1.27 1.27 0 000 .2V6z" fill="#fff" data-name="Layer 1"/></g></svg><svg width="17.65" height="8.08" viewBox="-1 -1 17.65 8.08" x="48.76" y="23.09" xmlns="http://www.w3.org/2000/svg"><g data-name="Layer 2"><path d="M11.21 6h1.14a1.21 1.21 0 01.19 0h3.11V5h-3.23V3.37h.85a.42.42 0 00.16 0 .87.87 0 00.23 0 .61.61 0 00.13 0 2.46 2.46 0 01.47 0h1v-1H12.4V1.05h3.2V0h-1.37a.81.81 0 01-.16 0h-.74a2.67 2.67 0 00-.4 0 1.63 1.63 0 01-.31 0h-1.41v2.36a.24.24 0 010 .08.48.48 0 000 .12.29.29 0 010 .09v.37a1.36 1.36 0 000 .2V6zM6.7 5.31V3.36h2.36L9.07 6h1.22V2.5a2.67 2.67 0 000-.4 1.49 1.49 0 010-.21.61.61 0 010-.13V.05H9v2.34H6.64V.06h-1.2V3.2a1 1 0 000 .17.4.4 0 010 .11v2.54h1.27V3.93M0 1.15h1.8l.05 4.94h1.23V4.26a.76.76 0 010-.15v-.6C3.08 3.39 3 3.19 3 3a.27.27 0 010-.09v-.3a1.36 1.36 0 010-.21.33.33 0 000-.17.66.66 0 010-.2v-.9h1.81V.1H2.47a1.42 1.42 0 00-.2 0H1.06C.71.12.35.13 0 .14v1.01z" fill="#fff" data-name="Layer 1"/></g></svg></svg>