<svg width="140" height="90" xmlns="http://www.w3.org/2000/svg" xmlns:xlink="http://www.w3.org/1999/xlink"><svg width="93.86" height="41.89" viewBox="-1 -1 93.86 41.89" y="11.69" xmlns="http://www.w3.org/2000/svg"><g data-name="Layer 2"><g data-name="Layer 1" fill="#fff"><path d="M47.3 26.85v.06a.74.74 0 000 .14.75.75 0 000 .16.5.5 0 000 .13.82.82 0 01-.11.31c0 .1-.12.18-.18.28s0 .08 0 .13a.47.47 0 01-.06.09.46.46 0 00-.1.18 1.18 1.18 0 01-.06.27s0 .05-.06.08a2.12 2.12 0 01-.12.2s-.07 0-.09.08 0 .06 0 .1l-.16.24a1.39 1.39 0 01-.06.13v.15a5.27 5.27 0 01-.2.6c-.08.22-.17.43-.25.64l-.21.49a3.93 3.93 0 01-.18.43l-.09.18a1.43 1.43 0 01-.12.21c0 .07-.07.14-.12.2s0 0 0 .08v.1a.59.59 0 00-.1.29.53.53 0 010 .17.22.22 0 000 .11.55.55 0 01-.06.22c-.05.08-.07.17-.13.26a.6.6 0 00-.11.26c0 .18-.2.26-.28.4s0 .08-.07.12v.06a.86.86 0 00-.07.21.72.72 0 01-.13.38 1.18 1.18 0 00-.11.19 2.25 2.25 0 01-.08.24c0 .06-.07.1-.09.15a.45.45 0 010 .11l-.1.18a1 1 0 01-.13.23s-.08.07-.07.09.22 0 .16 0h.07s-.08 0-.11.06a.25.25 0 00-.14.08.87.87 0 00-.16.3.25.25 0 000 .14c0 .06-.06.07-.09.11a.88.88 0 00-.16.32 1.55 1.55 0 00-.06.23 1.85 1.85 0 010 .23.31.31 0 01-.09.19s-.12.08-.14.15a.17.17 0 01-.1.12.81.81 0 00-.1.09.46.46 0 01-.14.17.46.46 0 00-.12.12.85.85 0 01-.25.17v.05c0 .05.12.12.17.17l.19.18.44.4.26.24s.08.09.1.09c1.12.07 1.89-1.81 2.26-2.52s5.21-12.12 6.08-14 2.78-7.98 5.15-13.27 2.53-7.48 2.33-8.16A3.87 3.87 0 0056 0c-1.51 0-3.74.31-15.4 6.28l-.5.26a2.67 2.67 0 01-.42.15c-.26.09-.37.42-.58.57a.81.81 0 01-.48.11 1 1 0 00-.41.16 6.49 6.49 0 00-.59.28 2.68 2.68 0 00-.45.44.82.82 0 01-.56.2.71.71 0 00-.47.3 1.16 1.16 0 01-.27.31.89.89 0 01-.54.09.93.93 0 00-.57.23 4.25 4.25 0 01-.56.29c-.14.07-.19.19-.31.28a1 1 0 00-.28.21c-.22.28 0 .54-.43.67a.85.85 0 01-.5 0c-.11 0-.26-.12-.38-.07s-.07.08-.1.11a1.35 1.35 0 01-.44.31 4 4 0 00-.66.23c-.14.09-.28.2-.43.29a3.94 3.94 0 00-.68.54 2.26 2.26 0 01-.68.5 5 5 0 00-.62.39.5.5 0 01-.49.14c-.39 0-.42.32-.64.56s-.21.11-.36.13a.49.49 0 00-.4.18 1.77 1.77 0 01-.59.35 3.75 3.75 0 00-.57.28c-.47.27-1 .5-1.42.79-.64.4-1.27.81-1.9 1.22l-.6.4 6.48-1.33c1.86-1.33 10.11-5.92 17.47-9.67S56.16 2 56.71 2s-.41 3.55-.91 4.3-.11.75-.38 1a.8.8 0 00-.2.67c-.41.36-.25.59-.36.85a5.84 5.84 0 00-.55 1.31c-.09.54-.71.93-.71 1.32a2.58 2.58 0 01-.31 1c-.11.26.1.35-.13.55a8.46 8.46 0 00-1.07 2.28 10 10 0 01-1 2.45c-.41.67-.09.58-.27.84a4.5 4.5 0 00-.42.78c-.06.15-.13.31-.18.47a1.74 1.74 0 00-.16.47.15.15 0 010 .1.68.68 0 000 .14v.23a.35.35 0 01-.06.17 1.21 1.21 0 000 .18.71.71 0 01-.21.28.65.65 0 00-.17.26 1.1 1.1 0 00-.11.35c0 .1-.08.18-.09.28a.93.93 0 010 .23 1.66 1.66 0 00-.13.27 1.12 1.12 0 01-.18.5 1.14 1.14 0 00-.16.15s0 .1-.08.14l-.11.16v.07c0 .07 0 0 0 0v.23c0 .09-.06.17-.07.21s-.11.23-.17.34a2.7 2.7 0 01-.2.31c-.12.18-.23.37-.34.56a4.17 4.17 0 00-.26.57.54.54 0 00-.05.11.57.57 0 000 .13.33.33 0 010 .14c0 .05-.06.12 0 .17s0 0 0 .08v.11a.16.16 0 010 .1zm-18.58-12.7v.06l-.09.1h-.2c-.09 0 0 0 0-.07v-.12h.22c.08 0 .08 0 0 .05zm1.56-.78h-.1c-.05 0 0 0 0 0a.06.06 0 01.07-.06h.1zm.37-.32h-.07a.08.08 0 010-.05h.07zm.2-.16h-.05c-.05 0 0 0 0 0h.1zM40 8.26a.08.08 0 010-.05zm.42-.26zm.24-.21h-.06zM45.49 5h-.12c-.06 0-.08-.06 0-.1a.15.15 0 01.1 0zm.59-.33a.88.88 0 01-.23 0c-.13 0 0 0 0 0h.23z"/><path d="M3.51 30.44a1.17 1.17 0 00.25.25 3.78 3.78 0 00.92.51c.85.22 1.84-.78 2.48-1.28l2-1.56q2.64-2 5.36-3.84 4.5-3.11 9.11-6l12.42-2c4.21-.67 13.73-1.76 15.48.12L52 16a5.24 5.24 0 00-4.3-2.41 135.62 135.62 0 00-19.83 2.11c-9.44 1.62-17.66 3.35-20.38 3.8s-3.2.59-4.62.75a9 9 0 00-2.87.47s0 .15.19.27 0 .27.27.6.5.31.65.62.35.27 1.15.17a25.73 25.73 0 004.83-.62c2.46-.6 9.67-1.94 10.57-2.07 0 0-4.8 3.23-6.35 4.38-1.2.88-2.38 1.77-3.57 2.66l-2.26 1.7A8.47 8.47 0 013.26 30c.13.2.17.34.25.48zm57.68-19.76c0 .36-.12.31.18.42s.53 0 .6-.23.42-1 .36-1.25a2.57 2.57 0 00-1-1.21c-.38-.15-.63-.1-1-.21s-.35 0-.3.35-.13.86.06 1a2 2 0 01.54.48l.19.33.16.19c0 .06.17 0 .18.14zM55.48 22.4c0 .06-.07.11-.07.17s-.06.12-.08.15a.56.56 0 00-.09.17.43.43 0 00-.06.18v.09c0 .03-.06.07-.07.11a.07.07 0 000 .06v.06a.89.89 0 00-.08.17s-.11.11 0 .14a1.12 1.12 0 01-.11.25c0 .06-.13.14-.13.22v.09c0 .09-.09.1-.1.15s0 0 0 .06-.09.12-.12.18-.11.19-.17.29a1 1 0 00-.09.18.65.65 0 01-.15.18c-.06.07-.09.16-.14.23s-.07.11-.06.15 0 .11-.06.15a.76.76 0 010 .11s-.15.14-.12.21 0 .07 0 .11l-.05.06a.13.13 0 000 .06c0 .05-.06.1-.08.16s0 0 0 .08a1.14 1.14 0 01-.06.25 3.45 3.45 0 01-.35.66 3.11 3.11 0 00-.15.33c-.06.12-.16.23-.22.34a2 2 0 00-.17.4c0 .14-.06.29-.11.42s-.06.19-.1.29-.13.25-.19.39-.09.21-.15.32a3.83 3.83 0 00-.27.71c-.17.65-.31.86-.35 1.12s-.25.46-.19.69v.11c0 .02.11 0 .11.06s.1 0 .14.09v.09c0 .09.14.17.2.26l.17.2.5.47c.37.38.74 0 .93-.29s1-3.07 1.49-4.07 2.55-5.72 2.82-6.24 1.74-4 2.07-4.92a3.46 3.46 0 00.3-2c-.13-.45-.87-.8-1.5-.94s-.62.06-.58.41a3.5 3.5 0 01-.33 1.23 1.33 1.33 0 00-.12.72c.05.18-.2.4-.41.73s-.07.41 0 .56-.27.43-.34.69-.28.11-.34.32-.09.33-.15.5a2.46 2.46 0 01-.14.38c0 .12-.16.21-.21.33s0 .06 0 .08h.11c0 .08.16 0 .16.1s-.06.08 0 .08-.19.11-.24.15a.72.72 0 00-.18.17 2.17 2.17 0 01-.24.29s0 .09-.05.13a1.05 1.05 0 00-.06.24zM91.86 4.17c0-.26-.11-.17 0-.38s-.13-.37-.21-.48 0-.09-.06-.29-.12-.1-.3-.2 0-.15 0-.15A5.55 5.55 0 0089.05 1a8.21 8.21 0 00-3.44-.08c-.34.1-1.56.25-1.89.37a11.35 11.35 0 01-1.22.3c-.27 0-1 .44-1.48.59s-1.93.84-2.25 1-.71.51-.88.52-.22.18-.36.32-.2 0-.32.09-.22.19.07.26-.56.45-.69.51-.13 0-.11-.16-.43.16-.66.36a14.06 14.06 0 00-1.25 1.19c-.18.24.1.46-.08.51a2 2 0 00-.65.6c-.09.17-.39 0-.43.22s-.3.36-.53.57-.19 0-.37.24a2.1 2.1 0 01-.52.51c-.07 0-.07.16 0 .32s-.25.27-.39.33a.41.41 0 00-.25.3c0 .1-.07.09-.29.22s-.08.26-.19.34a6.52 6.52 0 00-.8.85 8.94 8.94 0 00-.4.84.74.74 0 01-.23.27v.13a2.77 2.77 0 00-.27.39c0 .09.23.14.15.19s-.27 0-.3.21-.12.12-.24.19-1.38 1.76-1.57 2-.94 1.56-1.08 1.8-.37.18-.47.32.1.14 0 .3-.32.23-.42.57-.16.35-.28.45 0 .33-.11.38 0 .26 0 .37-.14 0-.26 0-.13.18-.14.29a.44.44 0 01-.13.32.4.4 0 00-.19.33c0 .13-.1.4-.18.42s-.08 0-.22.3a1.06 1.06 0 01-.25.37v.39c0 .21-.1.28-.23.22s-.17.18-.16.4a.46.46 0 01-.19.44c-.14.11-.08.46-.1.65s-.11.06-.26.12-.18.41-.2.55-.08 0-.21.08 0 .18-.1.31a1.24 1.24 0 00-.24.38 1 1 0 01-.13.34c-.07.07 0 .18-.06.29s0 0-.12.19 0 .31-.14.5a.61.61 0 00-.13.43c0 .14-.2.35-.36.48s-.24.47-.36.72 0 .27-.12.5 0 .36-.25.5-.25.61-.29.64 0 .21-.1.34a1.66 1.66 0 01-.19.57 2.09 2.09 0 00-.34.85c0 .21-.08 0-.08.19s.06.17-.16.42a1.22 1.22 0 00-.21.48c0 .09 0 .17-.07.25s0 .19 0 .29-.1.23-.13.35a.43.43 0 01-.05.12.6.6 0 000 .3v.22c0 .23-.09.47-.12.71a2.2 2.2 0 01-.28.83c-.22.45.14.76.36 1a3.2 3.2 0 01.61.92c.17.42 1.22.08 1.27-.11a6.37 6.37 0 00.17-1.18c0-.13.17-.38.17-.53v-.88c0-.35.21-1.06.28-1.59a14.75 14.75 0 01.53-1.88c.1-.31.78-1.72.86-2s.23-.62.25-.66a3.85 3.85 0 00.19-.53c.09-.27.72-1.41.79-1.56s.52-1.12.63-1.3.17-.46.39-.92.21-.41.2-.46a.25.25 0 010-.24c.08-.06.13-.25.22-.53s1.61-2.71 1.72-2.95.16-.24.24-.42.07-.33.15-.51a3.11 3.11 0 01.56-.69c.08-.06.07-.14.11-.22a.58.58 0 00.06-.21.53.53 0 01.06-.25c.06-.15.14-.09.25-.19a3.16 3.16 0 00.37-.63c.14-.26.69-1 .87-1.27a11.1 11.1 0 01.67-.98 13.54 13.54 0 001.09-1.35c.38-.58 2.26-2.93 2.72-3.38a36.27 36.27 0 013.43-3.34 23.06 23.06 0 013.91-2.33 4.3 4.3 0 011.21-.52 25.39 25.39 0 015-1.21c2-.09 2.07.12 2.16.2s0 .66-.08.91-.39.9-.41 1-.14.1-.13.32 0 .36-.11.42a1 1 0 00-.43.36c-.09.16 0 .36-.08.49S88 6.89 88 7s-.21.26-.3.44-.22.13-.35.14-.16.31-.22.47a1.91 1.91 0 01-.29.41s.22 0 0 0-.4.33-.51.36-.12.24-.22.35-.52.2-.56.44a.53.53 0 01-.39.44 5.1 5.1 0 00-.87.83c-.16.17-1.54 1.27-1.67 1.4a5.06 5.06 0 00-.62.59c-.06.12-1.06.73-1.23.88s-.47.28-.72.53a13.87 13.87 0 01-1.27 1.08 3.17 3.17 0 00-.65.49c-.15.17-.82.6-.94.7a6 6 0 01-.8.63c-.24.11-.4.44-.67.55s-1 .65-1.2.75-.2.14-.29.26-.17.14-.35.19a7.26 7.26 0 00-1.14.79c-.14.13-.91.82-1 .9a1.48 1.48 0 00-.42.31c-.1.12-.17 0-.23.16a.76.76 0 01-.23.32l-.61.54c-.09.09-.5.62-.62.64s-.07.22-.18.3-.31.45-.45.59-.09.2-.09.32-.08.06-.16.2-.39.79-.44.9a1 1 0 00-.13.34c-.05.21-.09.11-.14.26s0 .18.12.21 0 .1 0 .13-.1.2 0 .26-.09.07-.16.26a2.24 2.24 0 00.15.86 2.11 2.11 0 01.16.59c0 .29.29.46.37.71a1.92 1.92 0 00.29.67c.17.21.18.44.36.57s.18.11.2.32.17.19.22.29a5.3 5.3 0 00.85.93c.13.05.14.06.18.16s.78.88 1 .89 0-.11.39.25a27.76 27.76 0 004.07 1.72c.56.17 1.37.25 1.69.32a1 1 0 00.78-.09c.37-.13.79.22 1.3.3a11.7 11.7 0 002.54-.18c.17-.06.12-.52.12-.52h-.5c-.23 0-.21-.16-.65-.43a7.56 7.56 0 00-2.4-.39 15.44 15.44 0 01-4.9-1.47c-2.87-1.25-3-1.8-3.86-3.45s.07-3.25 1-4.3a25.09 25.09 0 014.8-4.05c2.46-1.74 7.35-5.63 10.06-7.92a24.32 24.32 0 004.8-5.38 6 6 0 00.92-2.67zM80.68 34l.18-.07c.17-.07.11 0 .17 0s0 0 0 .09-.1 0-.16.09 0 .18-.09.17-.08-.07-.25-.22 0-.07.1-.09z"/></g></g></svg><svg width="85.35" height="17.83" viewBox="-1 -1 85.35 17.83" y="53.58" xmlns="http://www.w3.org/2000/svg"><g data-name="Layer 2"><g data-name="Layer 1" fill="#fff"><path d="M76.9.39h-5.46a2.43 2.43 0 00-.27 0h-5.59L65 .43h-.16a2.47 2.47 0 00-.47 0h-.88a2.66 2.66 0 00-.63 0H32.3a2.41 2.41 0 00-.38 0H20.18a3.05 3.05 0 00-.74 0h-.74a.81.81 0 00-.22 0 1.82 1.82 0 01-.33 0 4.4 4.4 0 00-1 0 .61.61 0 01-.19 0 4.31 4.31 0 00-.88 0h-.61a1.42 1.42 0 01-.46 0 1.62 1.62 0 00-.44 0 1.3 1.3 0 01-.44 0h-.63a5.61 5.61 0 01-.58 0h-1.65a11.22 11.22 0 00-1.16 0H10a6.55 6.55 0 00-1 0 1.61 1.61 0 01-.49 0 1.09 1.09 0 00-.36 0H.73L.24.41A.1.1 0 01.17.33C.15.23.2.16.29.16h1.43a2 2 0 00.42 0h1.53a4.33 4.33 0 00.72 0 .61.61 0 01.19 0 1.82 1.82 0 00.33 0 1 1 0 01.25 0h.27a1.83 1.83 0 01.33 0 2.16 2.16 0 00.44 0h.08a1.13 1.13 0 00.41 0 1 1 0 01.25 0h.58A2.68 2.68 0 008 .14h.4a4.83 4.83 0 00.85 0 1.5 1.5 0 01.3 0 1.81 1.81 0 00.52 0 .67.67 0 01.2 0 5.1 5.1 0 00.68 0h.55a5.24 5.24 0 011 0h3a5.42 5.42 0 00.57 0 .78.78 0 00.22 0 .26.26 0 01.21 0h.11a1.63 1.63 0 01.38 0h.44a2.48 2.48 0 00.72 0 1 1 0 01.35 0 5.77 5.77 0 00.72 0h.16a1 1 0 01.39 0 2.37 2.37 0 00.46 0h2.48a2.46 2.46 0 01.47 0h.27a2.79 2.79 0 00.5 0 3.38 3.38 0 01.71 0h.19a5.09 5.09 0 01.55 0 .66.66 0 00.14 0 .61.61 0 01.19 0 1 1 0 00.25 0 3.37 3.37 0 01.71 0 2 2 0 00.6 0 .49.49 0 01.17 0 .82.82 0 00.27 0h15.13a3.09 3.09 0 00.68 0h.19a3.41 3.41 0 00.55 0h1.88a1 1 0 01.38 0 .5.5 0 00.17 0 1 1 0 01.3 0H47a3.75 3.75 0 01.58 0h2.12a.22.22 0 00.11 0h5.49a3.27 3.27 0 01.44 0 7.81 7.81 0 001 0h.74a3.7 3.7 0 01.47 0 4.85 4.85 0 00.66 0 .29.29 0 01.13 0 2.35 2.35 0 00.53 0h.52a5 5 0 01.77 0 1.07 1.07 0 00.25 0 1.22 1.22 0 01.33 0 .82.82 0 00.27 0h2.12a1.61 1.61 0 00.38 0h6.84a1.61 1.61 0 01.38 0 1.88 1.88 0 00.58 0 .2.2 0 01.11 0 2.27 2.27 0 00.52 0 3.31 3.31 0 01.44 0A.62.62 0 0073 0h8a5.15 5.15 0 01.88 0h.08a3.64 3.64 0 01.66 0h.66a.15.15 0 01.11.14.17.17 0 01-.09.16.86.86 0 01-.27 0H76.9zM2.61 2.83h1.45l2.45 7.08H5l-.46-1.5H2.07l-.45 1.5H.19zM2.4 7.31h1.84l-.62-2c-.12-.37-.28-1.09-.28-1.09s-.2.67-.34 1.04zm4.7-4.48h1.41v7.08H7.1zm2.49 0h3.18A2 2 0 0115 4.8a1.62 1.62 0 01-1.27 1.71A1.41 1.41 0 0114.79 8c.09 1 .06 1.76.3 1.87v.07h-1.35c-.18-.08-.2-.87-.25-1.63a1.19 1.19 0 00-1.36-1.21H11v2.81H9.59zM11 6h1.5c.76 0 1.14-.41 1.14-1a1 1 0 00-1.1-1H11zm9.31-3.17h2l1 3.55c.24.9.44 1.92.44 1.92s.18-1 .42-1.92l1-3.55h2v7.08h-1.34V5.85c0-.58.06-1.47.06-1.47s-.15.84-.3 1.35l-1.21 4.18H23l-1.14-4.18c-.14-.51-.3-1.35-.3-1.35s.06.89.06 1.47v4.06h-1.31zm9.81 0h1.46L34 9.91h-1.44l-.47-1.5h-2.5l-.46 1.5H27.7zm-.2 4.48h1.83l-.62-2c-.12-.37-.28-1.09-.28-1.09s-.18.72-.29 1.09zm6.47-1.1l-2.08-3.38h1.58l1.28 2.24 1.29-2.24H40L38 6.2l2.3 3.71h-1.67l-1.42-2.58-1.45 2.58h-1.61zm8.43-3.38h1.48l1.22 4.1c.13.47.3 1.13.3 1.13s.16-.67.3-1.13l1.21-4.1h1.43l-2.32 7.08h-1.28zm6.51 0h5.11V4h-3.7v1.62H56V6.8h-3.26v1.91h3.73v1.2h-5.14zm6.01 0h3.18a2 2 0 012.23 2 1.61 1.61 0 01-1.27 1.71A1.41 1.41 0 0162.54 8c.1 1 .06 1.76.3 1.87v.07h-1.35c-.17-.08-.19-.87-.25-1.63a1.19 1.19 0 00-1.36-1.21h-1.13v2.81h-1.41zM58.75 6h1.49c.77 0 1.15-.41 1.15-1a1 1 0 00-1.11-1h-1.53zm4.61.38c0-2.12 1.3-3.69 3.34-3.69S70 4.26 70 6.38s-1.29 3.69-3.34 3.69-3.3-1.57-3.3-3.69zm5.25 0c0-1.41-.63-2.51-1.9-2.51S64.79 5 64.79 6.38s.65 2.51 1.92 2.51 1.9-1.1 1.9-2.51zm2.2-3.55h1.42l2.31 4c.23.39.49 1 .49 1S75 7 75 6.54V2.83h1.4v7.08H75L72.67 6c-.22-.38-.49-1-.49-1v4.91h-1.37zm8.57 0h1.45l2.45 7.08h-1.47l-.46-1.5h-2.51l-.45 1.5H77zm-.21 4.48H81l-.62-2a19 19 0 01-.29-1.09s-.17.72-.29 1.09zm4.08 4.58c0-.07-.07-.13-.15-.15H83a4.7 4.7 0 00-.65 0h-1.17a9.77 9.77 0 00-1.21 0H69a1.61 1.61 0 01-.38 0 3 3 0 00-.6 0 5.77 5.77 0 01-.72 0h-.15a4.17 4.17 0 01-.79 0 2.35 2.35 0 00-.53 0 2.44 2.44 0 01-.38 0h-9a3.13 3.13 0 01-.53 0H53a1.61 1.61 0 01-.38 0 1.7 1.7 0 00-.45 0 2 2 0 01-.34 0 7.55 7.55 0 00-1.06 0H50a4.33 4.33 0 01-.72 0 .61.61 0 00-.19 0h-12a.38.38 0 01-.15 0h-2.91a7.12 7.12 0 00-.8 0h-.07a1.48 1.48 0 00-.42 0h-.22a1.88 1.88 0 00-.53 0h-2.58a4.83 4.83 0 01-.76 0 1.15 1.15 0 00-.26 0 6 6 0 01-.95 0H6.62a1.53 1.53 0 01-.37 0 .91.91 0 00-.23 0 3.84 3.84 0 01-.83 0 6.54 6.54 0 00-1 0 1.22 1.22 0 01-.33 0H2.38a5.33 5.33 0 00-1 0 5.15 5.15 0 01-.68 0H0v.11a.45.45 0 010 .11v.09a.35.35 0 00.15 0h12.27a3.13 3.13 0 01.53 0h38.67a5.43 5.43 0 01.57 0h2.84a5.06 5.06 0 01.87 0h26.86a1.18 1.18 0 00.37 0 .17.17 0 00.12-.17zM57 13.7h.22l1 1.47.22.34V13.7h.2v2.09h-.21l-1-1.45c-.11-.15-.23-.36-.23-.36v1.81H57zm2 0h.2v2.09H59zm.63 0h.2v1.11L61 13.7h.26l-.91.85 1 1.24h-.25l-.86-1.11-.39.37v.74h-.2zm1.9 0H63v.17h-1.26v.75h1.17v.17h-1.17v.82h1.31v.18h-1.52zm2.16 1.41h.2c0 .36.27.56.68.56s.56-.16.56-.44-.2-.37-.67-.46-.69-.19-.69-.56.3-.55.73-.55a.67.67 0 01.77.61h-.2a.5.5 0 00-.56-.45c-.34 0-.54.15-.54.38s.2.33.59.4.78.18.78.62-.31.61-.77.61-.86-.31-.88-.72zm1.95-1.41h.86a.67.67 0 01.51.18.54.54 0 01.15.4c0 .39-.23.6-.69.6h-.63v.91h-.2zm.81 1c.36 0 .5-.16.5-.42s-.16-.42-.48-.42h-.63v.84zm.89.04a1 1 0 112 0 1 1 0 11-2 0zm1.82 0a.81.81 0 10-1.61 0 .81.81 0 101.61 0zm.52-1.04h1a.54.54 0 01.62.56.49.49 0 01-.37.51c.23.07.3.23.32.55s0 .42.09.45h-.22s-.06-.11-.08-.47-.15-.46-.46-.46h-.67v.93h-.2zm.9 1c.32 0 .48-.15.48-.41s-.12-.41-.45-.41h-.73v.82zm1.59-.83h-.74v-.17h1.68v.17h-.73v1.92h-.21zm1.01 1.24h.2c0 .36.27.56.68.56s.56-.16.56-.44-.2-.37-.67-.46-.69-.19-.69-.56.3-.55.73-.55a.67.67 0 01.77.61h-.2a.5.5 0 00-.57-.45c-.33 0-.53.15-.53.38s.2.33.59.4.78.18.78.62-.31.61-.77.61-.86-.31-.88-.72zm1.73-1.41h.21l.38 1.41c0 .15.1.41.1.41l.11-.4.4-1.42h.22l.4 1.42.1.4.11-.41.38-1.41h.2l-.59 2.09h-.21l-.41-1.52c0-.14-.09-.34-.09-.34s0 .2-.08.34l-.42 1.52h-.22zm2.84 0h1.48v.17H78v.75h1.17v.17H78v.82h1.31v.18h-1.56zm2.49 0h.24l.83 2.09h-.22l-.26-.66h-1l-.25.66h-.21zm.53 1.3l-.3-.78-.11-.31s-.06.18-.11.31l-.31.78zm.75-1.3h1a.54.54 0 01.62.56.49.49 0 01-.37.51c.23.07.3.23.31.55s.06.42.1.45h-.22s-.06-.11-.08-.47-.15-.46-.47-.46h-.66v.93h-.21zm.91 1c.31 0 .48-.15.48-.41s-.13-.41-.46-.41h-.72v.82zm-52.27.19c.28-.16.48-.26.48-.56a.4.4 0 00-.45-.42.48.48 0 00-.35.12.58.58 0 00-.13.4h-.2a.64.64 0 01.18-.5.75.75 0 01.51-.19.59.59 0 01.64.59c0 .4-.3.54-.61.72s-.5.29-.55.57h1.13v.17h-1.35c.01-.51.37-.71.7-.9zm.9-.1c0-.65.3-1 .78-1s.77.39.77 1-.28 1-.78 1-.77-.36-.77-1zm1.34 0c0-.54-.19-.89-.56-.89s-.57.34-.57.89.19.88.57.88.56-.33.56-.88zm1.12.1c.29-.16.48-.26.48-.56a.4.4 0 00-.45-.42.48.48 0 00-.35.12.58.58 0 00-.13.4h-.2a.64.64 0 01.19-.5.7.7 0 01.5-.19.59.59 0 01.64.59c0 .4-.3.54-.6.72s-.51.29-.55.57h1.13v.17h-1.36c.01-.51.37-.71.7-.9zm.9-.1c0-.65.31-1 .78-1s.77.39.77 1-.27 1-.77 1-.78-.36-.78-1zm1.35 0c0-.54-.2-.89-.57-.89s-.57.34-.57.89.2.88.57.88.57-.33.57-.88zM2 13.72a2 2 0 00-2 2 .07.07 0 00.07.07H1.2a.07.07 0 00.07-.07.76.76 0 01.73-.78.76.76 0 01.78.74.07.07 0 00.07.07H4a.07.07 0 00.07-.07 2 2 0 00-2-2m3.36.17H4.3a.07.07 0 00-.07.07v1.76a.07.07 0 00.07.07h1.13a.07.07 0 00.07-.07v-1.76a.07.07 0 00-.07-.07m2.25-.13a2 2 0 00-2 2 .07.07 0 00.07.07h1.09a.07.07 0 00.07-.07.75.75 0 01.77-.74.07.07 0 00.07-.07v-1.12a.07.07 0 00-.07-.07"/><path d="M45.77 12.41a7.86 7.86 0 000 .84v2.5h.31a.28.28 0 010-.09.41.41 0 010-.19.47.47 0 000-.17.59.59 0 010-.23.57.57 0 000-.13 1.61 1.61 0 010-.49 1.07 1.07 0 000-.31 2.18 2.18 0 000-.25v-.34a1 1 0 000-.17.89.89 0 010-.28v-.84a.86.86 0 000-.16c0-.06-.08-.1-.19-.08s-.08 0-.08.05a2 2 0 000 .34zm-26.46 0a7.86 7.86 0 000 .84v2.5h.31v-.09a.41.41 0 010-.19.47.47 0 000-.17.59.59 0 010-.23.57.57 0 000-.13 1.61 1.61 0 010-.49 1.07 1.07 0 000-.31 2.18 2.18 0 000-.25v-.34a.5.5 0 000-.17.89.89 0 010-.28v-.84a.86.86 0 000-.16c0-.06-.08-.1-.19-.08s-.08 0-.08.05v.34z"/></g></g></svg><svg width="95.38" height="11.69" viewBox="-1 -1 95.38 11.69" xmlns="http://www.w3.org/2000/svg"><path data-name="CÓMPRALAS AQUÍ" d="M3.63 9.256a3.22 3.22 0 002.365-.836 2.909 2.909 0 00.888-1.89H5.055A1.358 1.358 0 013.62 7.759c-1.1 0-1.776-.981-1.776-2.334s.568-2.344 1.766-2.344a1.335 1.335 0 011.394 1.167h1.828a2.9 2.9 0 00-1.105-2.035 3.442 3.442 0 00-2.107-.65 3.852 3.852 0 00.01 7.693zm6.779-7.91h1.28L12.784.004h-1.931zm.691 6.433c-1.187 0-1.8-1.022-1.8-2.364s.609-2.375 1.8-2.375 1.787 1.032 1.787 2.375-.589 2.364-1.787 2.364zm-.01 1.487a3.857 3.857 0 10-3.645-3.851 3.577 3.577 0 003.645 3.847zm4.579-.175h1.642V5.384c0-.3-.031-1.487-.031-1.487h.021s.258 1.115.34 1.383l1.054 3.811h1.507l1.064-3.821c.083-.268.341-1.373.341-1.373h.02s-.031 1.177-.031 1.476v3.718h1.673V1.707h-2.478l-.909 3.233c-.124.464-.413 1.683-.413 1.683h-.02s-.29-1.219-.424-1.683l-.9-3.233h-2.458v7.384zm8.824 0h1.859V6.623h1.723a2.332 2.332 0 002.5-2.417 2.424 2.424 0 00-.743-1.817 2.8 2.8 0 00-2.014-.682h-3.325v7.384zm1.859-3.914V3.246h1.352a.914.914 0 011.033.95.931.931 0 01-1.033.981h-1.352zm5.084 3.914h1.828V6.323h1.105a1.082 1.082 0 011.228 1.054 5.24 5.24 0 00.279 1.714h1.776v-.093c-.258-.093-.154-1.022-.309-1.993a1.481 1.481 0 00-1.074-1.353v-.031a1.767 1.767 0 001.28-1.786c0-1.374-1.115-2.128-2.581-2.128h-3.532v7.384zm1.828-4.12V3.153h1.411a.922.922 0 11-.041 1.818h-1.373zm4.8 4.12h1.838l.423-1.332h2.582l.434 1.332h1.921l-2.665-7.384h-1.879zm2.685-2.644l.568-1.786c.124-.382.3-1.043.3-1.043h.021s.165.661.289 1.043l.558 1.786H40.75zm5.239 2.644h5.143V7.542h-3.315V1.707h-1.828v7.384zm5.528 0h1.838l.421-1.329h2.581l.434 1.332h1.921L56.047 1.71h-1.88zm2.685-2.644l.568-1.786c.124-.382.3-1.043.3-1.043h.02s.165.661.289 1.043l.558 1.786h-1.735zm8.174 2.815c1.7 0 3.025-.857 3.025-2.406 0-1.58-1.239-2-2.612-2.323-1.1-.248-1.673-.372-1.673-.888a.883.883 0 011.063-.692 1.044 1.044 0 011.188.888h1.787c-.073-1.549-1.312-2.272-2.913-2.272-1.652 0-2.932.692-2.932 2.272 0 1.549 1.352 1.941 2.633 2.241 1.012.248 1.611.372 1.611.96a.987.987 0 01-1.188.775 1.193 1.193 0 01-1.445-1.054h-1.834c.041 1.636 1.332 2.499 3.29 2.499zm5.271-.175h1.838l.423-1.332h2.582l.434 1.332h1.92l-2.664-7.384H70.3zm2.685-2.644l.568-1.786c.124-.382.3-1.043.3-1.043h.021s.165.661.289 1.043l.558 1.786h-1.732zm8.585 1.332c-1.187 0-1.786-1.022-1.786-2.364s.6-2.375 1.786-2.375 1.776 1.032 1.776 2.375a3.27 3.27 0 01-.258 1.363l-.681-.651-.847.878.671.651a1.686 1.686 0 01-.657.127zm2.778 1.911l.847-.9-.837-.784a4.047 4.047 0 00.847-2.592 3.646 3.646 0 10-3.645 3.851 3.711 3.711 0 001.859-.464zm4.827-.465c2.055 0 3.077-1.032 3.077-2.736V1.703h-1.823v4.813a1.138 1.138 0 01-1.249 1.239 1.108 1.108 0 01-1.27-1.208V1.703h-1.828v4.782c-.001 1.728 1.031 2.74 3.097 2.74zm4.258-.134h1.828V1.703h-1.828v7.384zm.227-7.745h1.281L93.381 0H91.45z" fill="#fff" fill-rule="evenodd"/></svg><svg width="26.37" height="17.62" viewBox="-1 -1 26.37 17.62" x="95.38" y="35.03" xmlns="http://www.w3.org/2000/svg"><g data-name="Layer 2"><path d="M7.36 6.07H5.78l.12-2.7-1.07 2.69H3.24L5.61 0h1.72l-.2 2.59L8.14 0h1.53L7.36 6.07zm.35 0h1.58L11.6 0h-1.53L7.71 6.07zm9.43-.64l7.23-1.71L5.7 11c-1.7.69-3.92 1.11-5.22-.35A2.3 2.3 0 01.14 8.4a11.65 11.65 0 013.08-4.55c-.65 1.25-1.17 3 .28 4a2.52 2.52 0 002 .31l8.86-2.09h-2.2V3.92c0-.1 0-.08-.06-.07a.35.35 0 00-.07.11l-.82 2.11H9.62L12 0h1.57l-.61 1.6L14.39 0h4.51l-.44 1.12h-1.39l-.47 1.24H18l-.41 1.06h-1.4l-.57 1.45h1.75l-.22.56zm-3.56.35l2.14-5.5-2.29 2.56.15 2.94zm-9.73 9.31l-.25.52h-.3l1.06-2.17 1 2.17h-.3l-.25-.52zM4.36 14l-.4.84h.79L4.36 14zm7-.48h-.26v2.09h.28v-2.08zm7.3 2.09h-.33l-.65-.88h-.12v.88h-.27v-2.07h.33a1.19 1.19 0 01.59.1.56.56 0 01.29.49.6.6 0 01-.53.59l.69.9zm-1.1-1.1h.09c.28 0 .59 0 .59-.38s-.33-.37-.6-.37h-.07v.75z" fill="#fff" data-name="Layer 1"/></g></svg><svg width="43.74" height="17.5" viewBox="-1 -1 43.74 17.5" x="95.38" xmlns="http://www.w3.org/2000/svg"><g data-name="Layer 2"><path d="M33.05 12.86V8.77l7.51.06V6.31l-7.51-.06V2.86l8.57.07V.34h-3.54a8.42 8.42 0 01-.87 0H29.9v4.91a.7.7 0 010 .14 2.61 2.61 0 010 .28V9.1a3.71 3.71 0 000 .47v5.83l11.89.1v-2.57H39.4c-.17 0-.33.05-.5.05h-3.42a.38.38 0 00-.15 0H33.2m-18.75 2.29h3.27l.06-6.68 6.32.06-.1 6.7h3.26L27.43.23 24.17.2v2.7a2.24 2.24 0 010 .45 2.29 2.29 0 000 .37v.61a2.52 2.52 0 010 .55 2.51 2.51 0 000 .61v.64h-6.32l.01-5.98h-3.27v4.51a1.37 1.37 0 010 .35v1.52m-9.87 8.66h3.26L8.1 2.65h4.83L13 .11h-2.28a5.23 5.23 0 01-.56 0H8.21L6 .05 3.84 0H0v2.59h4.83v7.03a1.06 1.06 0 000 .25.65.65 0 010 .24v.17c0 .06 0 .06-.05.1a1.2 1.2 0 000 .38v4.43" fill="#fff" data-name="Layer 1"/></g></svg><svg width="85.32" height="17.93" viewBox="-1 -1 85.32 17.93" y="71.41" xmlns="http://www.w3.org/2000/svg"><g data-name="Layer 2"><path d="M.14 15.84H3.4l-.06-6.3 7-.06V6.85h-.45a1.55 1.55 0 01-.21 0 3.26 3.26 0 00-.33-.05H6.94a1.43 1.43 0 00-.29 0H3.32V3.15h3.93a3.49 3.49 0 00.56 0c.15 0 .42-.18.56-.12s.1.12.21.15a1.85 1.85 0 00.47 0c.13 0 .15-.14.31-.12s.14.1.23.12c.15 0 2-.06 2-.06V.51L0 .68v5.7c0 .75.14 1.46.14 2.21v.57c0 .19.11.35.12.55a2.44 2.44 0 01-.24.86 1.51 1.51 0 000 .6c0 .11.09.07.07.23a2.61 2.61 0 000 .6v3.86zm19.57.09c4.11 0 6.21-1.94 6.18-5.18V4.06a1 1 0 01.07-.29c0-.21-.07-.41-.05-.63s0-.27 0-.4a1.75 1.75 0 000-.33V.47L22.53.5v3.38a5.59 5.59 0 00.07 1.29 2.68 2.68 0 01.07.27 1.19 1.19 0 01-.05.26.65.65 0 000 .19 1.37 1.37 0 000 .19 1.67 1.67 0 010 .39 1.74 1.74 0 000 .68 4.08 4.08 0 010 .61v2.97c0 1.57-.95 2.73-3 2.74s-3-1.07-3-2.64L16.48.55h-3.26v5.39a1.14 1.14 0 00.09.26 1.76 1.76 0 010 .79 1.65 1.65 0 00-.06.32 1.13 1.13 0 000 .41v3.11c0 3.29 2.23 5.11 6.39 5.08zM27.32 3h4.84v1.18a1.79 1.79 0 010 .46c0 .14-.05.29-.06.44s0 .31 0 .47v10.02h3.26L35.42 3h.8a2.8 2.8 0 01.28-.06 3 3 0 00.42 0h3.33V.35L27.3.46v2.58zm20.9 12.7c4.11 0 6.21-1.94 6.18-5.18L54.3.24 51 .26v1.89a3.48 3.48 0 010 .72 7.34 7.34 0 000 .94v6.69c0 1.57-.94 2.72-3 2.74s-3-1.08-3-2.65V.31h-3.26v4a13 13 0 000 1.53v.19a4.36 4.36 0 010 .63v.39a.66.66 0 000 .28V9a3.56 3.56 0 010 .73.86.86 0 000 .23v.64c0 3.28 2.23 5.11 6.39 5.08zm11.71-13h3.55c1.73 0 2.57.89 2.58 2.12s-.86 2.08-2.63 2.1L60 6.89a.76.76 0 010-.15V2.67zm-3.15 12.7h3.26V9.32h2.63c2 0 3 .91 3.17 2.56s.21 3.33.62 3.49h3.12v-.15l-.14-.1a.94.94 0 01-.12-.18 2.23 2.23 0 01-.16-.56 15.28 15.28 0 01-.18-1.79l-.11-.59a3.42 3.42 0 00-.09-.63 1.45 1.45 0 010-.3 1.23 1.23 0 00-.07-.42v-.23a1.47 1.47 0 00-.1-.13.23.23 0 01-.05-.18v-.2a.35.35 0 00-.07-.2c-.07-.08 0-.15-.07-.24A1.77 1.77 0 0068 9a2.73 2.73 0 00-1-.67 4.13 4.13 0 00-.7-.24V8a3.51 3.51 0 002.91-3.69c0-2.52-2.11-4.2-5.21-4.17l-7.36.08v5.31a18.63 18.63 0 00.06 2.12v.4a3.4 3.4 0 01.09.9c0 .16-.05.32-.07.48s0 .33 0 .49v.56a4.87 4.87 0 01.06.76 5.06 5.06 0 000 .78v3.35zm14.64-.12l11.9-.1v-2.56l-8.63.07V8.6h3.17a3 3 0 00.42 0h3.83V6.08l-7.51.06V2.75h3.07a1.3 1.3 0 01.21 0h2.03c.14 0 .29.06.43.05s.22-.05.33-.06h.45a1 1 0 01.35 0 5 5 0 00.55 0h1.13V.15L71.28.1V8c0 .14.06.27.06.41a3 3 0 010 .31 6.74 6.74 0 000 1.1v1.16a1.11 1.11 0 000 .17v.09a.8.8 0 010 .15v.45a2.63 2.63 0 000 .49v.18c0 .06-.09.25-.08.38a2.51 2.51 0 01.05.31v1.92" fill="#fff" data-name="Layer 1"/></g></svg><svg width="20.28" height="17.77" viewBox="-1 -1 20.28 17.77" x="95.38" y="69.96" xmlns="http://www.w3.org/2000/svg"><g data-name="Layer 2"><path d="M12 15.77h.26a9.26 9.26 0 001-.07 8.54 8.54 0 001-.17 5.73 5.73 0 00.89-.28 4.92 4.92 0 00.81-.37 4.76 4.76 0 00.7-.47 5.21 5.21 0 00.59-.56 4.88 4.88 0 00.46-.66 5 5 0 00.33-.75 4.06 4.06 0 00.18-.84 1.31 1.31 0 000-.44.47.47 0 010-.17 1.08 1.08 0 000-.18c0-.09-.05-.19-.07-.29s0-.08 0-.12v-.23a1.64 1.64 0 00-.05-.32c-.06-.16-.14-.32-.21-.47a2.39 2.39 0 00-.13-.28c0-.06-.08-.12-.11-.18s0-.09-.05-.13a2.18 2.18 0 00-.25-.28c-.05-.06-.09-.13-.15-.19s-.2-.1-.2-.16L16.73 8l-.31-.28a1.22 1.22 0 00-.32-.24c-.13 0-.26-.12-.39-.18a10.9 10.9 0 00-1.58-.54c-.6-.17-1.21-.3-1.81-.43-2.38-.51-3.5-.88-3.49-2.11s1.17-1.8 2.92-1.78 2.91.78 3.08 2.31h3.12C17.73 1.72 15.41 0 11.79 0a10.63 10.63 0 00-1.26.06 7.6 7.6 0 00-1.16.2 6.6 6.6 0 00-1 .33 5.41 5.41 0 00-.92.49 4.22 4.22 0 00-.91.77L6.41 2a2.69 2.69 0 00-.2.27c0 .07-.06.15-.11.22a1.85 1.85 0 00-.21.48 1.37 1.37 0 000 .19c0 .1-.07.2-.1.3s0 .09 0 .13v.06a.38.38 0 000 .1 1.13 1.13 0 000 .15v.47a1.75 1.75 0 000 .56l.06.38a3.83 3.83 0 00-.02.69 3.27 3.27 0 00.77 1.19A4.32 4.32 0 007.76 8a9.06 9.06 0 001.45.56c.54.16 1.09.29 1.63.42h.21c2.45.55 4 .86 4 2.35s-1.48 1.93-3.14 1.92c-2.29 0-3.39-.75-3.6-2.57H5.12a5.41 5.41 0 00.24 1.5.62.62 0 00.07.19 1.13 1.13 0 00.1.13l.19.24a1.09 1.09 0 01.21.27c.05.1.07.2.12.3a1.77 1.77 0 00.12.17.64.64 0 00.08.14c.18.19.33.39.52.56s.14.1.21.16 0 0 .06.05.08 0 .11.08l.13.13a2.6 2.6 0 00.4.23 6.5 6.5 0 00.86.36 9.81 9.81 0 002.07.45c.45 0 .91.07 1.36.07zm-12-.44h3.26v-4.24a1.28 1.28 0 000-.34.93.93 0 010-.13.52.52 0 010-.25V9.32a2.17 2.17 0 010-.36v-.5a3.63 3.63 0 000-.57V.21L.14.18 0 15.33z" fill="#fff" data-name="Layer 1"/></g></svg><svg width="20.85" height="17.31" viewBox="-1 -1 20.85 17.31" x="95.38" y="52.65" xmlns="http://www.w3.org/2000/svg"><g data-name="Layer 2"><path d="M5.76 15.2h3.21L9 7.41c.05-1.06 0-2.65 0-2.65s.62 1.3 1.13 2.1l5.41 8.42h3.15v-4.53c0-.33-.07-.52-.05-.8a11.72 11.72 0 00.07-2c0-.42-.05-.84-.05-1.26a4.14 4.14 0 010-.61c0-.13.06-.25.07-.39.05-1.3 0-2.6 0-3.9V.15h-3.22l-.07 7.94c0 1.06.07 2.63.07 2.63h-.05s-.46-1.31-.98-2.15L9.2.07 5.9.05v2.84a9.89 9.89 0 000 1.44 2.53 2.53 0 010 .55 4.56 4.56 0 000 .64v.36a3 3 0 010 .31v9zM0 15.15h3.26V7.24a2.69 2.69 0 000-.57 2.06 2.06 0 010-.26 2.66 2.66 0 010-.28 1.75 1.75 0 000-.46 1 1 0 010-.34v-.55a.85.85 0 000-.22V0H.14v.53L.12 2v8.92a8.35 8.35 0 010 1 2.75 2.75 0 000 .5v2.78z" fill="#fff" data-name="Layer 1"/></g></svg><svg width="43.74" height="17.53" viewBox="-1 -1 43.74 17.53" x="95.38" y="17.5" xmlns="http://www.w3.org/2000/svg"><g data-name="Layer 2"><path d="M29.77 15.4h3.05a2.78 2.78 0 01.5 0 1.87 1.87 0 00.25 0h.52c.32 0 .64.05 1 0h6.55v-2.56L33 12.77v-4.1c0-.03 1.8 0 2 0a1 1 0 01.3 0 3.24 3.24 0 00.44 0h.62c.21 0 .23-.06.35-.08A8.83 8.83 0 0138 8.8h2.57V6.27h-5.3a2.44 2.44 0 00-.39 0h-1.77V2.88l8.56.07V.37h-2.18a10.09 10.09 0 00-1.1 0h-.75a1.72 1.72 0 00-.32 0h-1.81a9.51 9.51 0 00-1-.06 5 5 0 01-.86 0h-1.36L32 .23h-2.09v5.69a.89.89 0 000 .23.58.58 0 010 .19 1.71 1.71 0 000 .32.72.72 0 01.05.21v.44a4.34 4.34 0 010 .51 4.2 4.2 0 00-.05.51v7.1zm-12-2V8.59h6.32L24 15.36h3.27V6.45a6.81 6.81 0 000-1 3.05 3.05 0 01-.05-.52 1.28 1.28 0 01.07-.34 1.53 1.53 0 000-.37V.24L24.18.2l-.06 5.94-6.32-.06.06-5.93L14.6.12v6.22c0 .13 0 .23-.06.35s.09.25.13.37 0 .37 0 .53 0 .28-.05.43 0 .28 0 .42a2.8 2.8 0 010 .29v6.5h3.26s0-3.36.05-5.31M0 2.59h4.84L4.72 15.2h3.26v-4.59a1.71 1.71 0 010-.39 1.61 1.61 0 000-.37V7.49a1.76 1.76 0 010-.23C8 7.18 8 7.11 8 7v-.53A4.85 4.85 0 018.09 6a1 1 0 000-.42 2.79 2.79 0 010-.5V2.66h4.83L13 .11h-.29L11 .09H9.71a5.45 5.45 0 00-.7 0h-.19a1.07 1.07 0 00-.25 0H6.64C6.45.1 6.28 0 6.09 0s-.52.05-.78 0-.74.11-1.11.11S3.31.06 2.87 0H0v2.59z" fill="#fff" data-name="Layer 1"/></g></svg></svg>