<svg width="130" height="120" xmlns="http://www.w3.org/2000/svg" xmlns:xlink="http://www.w3.org/1999/xlink"><svg width="100.89" height="46.99" viewBox="-1 -1 100.89 46.99" y="57.45" xmlns="http://www.w3.org/2000/svg"><g data-name="Layer 2"><g data-name="Layer 1" fill="#fff"><path d="M50.93 30.28l-.06.07a.75.75 0 000 .16v.18a.74.74 0 000 .14.9.9 0 01-.12.36c-.06.11-.13.2-.19.31s0 .09 0 .15a.53.53 0 01-.06.1.43.43 0 00-.11.21 1.45 1.45 0 01-.06.3s-.05 0-.07.09a1 1 0 01-.13.22s-.07 0-.1.09v.11c0 .1-.11.18-.16.27s0 .1-.07.15a.53.53 0 000 .18c-.06.22-.15.45-.23.67s-.17.48-.26.72-.15.37-.22.55-.12.33-.2.49-.06.14-.1.21l-.13.23c0 .07-.07.16-.12.23s0 0 0 .09a.22.22 0 010 .11.72.72 0 00-.11.32.58.58 0 010 .19v.07a.53.53 0 000 .12.65.65 0 01-.06.24 2.59 2.59 0 01-.14.29.73.73 0 00-.12.3c0 .2-.21.29-.3.45s0 .1-.07.14 0 0 0 .07a1 1 0 00-.07.23.91.91 0 01-.14.43 1.13 1.13 0 00-.12.21c0 .09 0 .19-.08.28a1.51 1.51 0 00-.1.17.56.56 0 010 .12l-.1.2a2.15 2.15 0 01-.14.26s-.09.08-.08.1.24 0 .17 0h.08c0 .05-.09.06-.12.07a.46.46 0 00-.15.09 1 1 0 00-.17.35.2.2 0 000 .15c0 .07-.06.08-.09.12a1.09 1.09 0 00-.17.36.88.88 0 00-.06.27v.25a.39.39 0 01-.09.22c-.05.05-.13.09-.16.16a.22.22 0 01-.1.15.48.48 0 00-.11.09.53.53 0 01-.16.2.49.49 0 00-.12.13 1 1 0 01-.27.19v.06c0 .06.13.14.18.19l.21.2.47.46.28.26s.08.11.11.11c1.2.08 2-2 2.43-2.85s5.6-13.66 6.55-15.78 3.56-9.12 6.11-15.12S63.9 2.81 63.68 2a4.13 4.13 0 00-3.42-2c-1.6 0-4 .35-16.55 7.08l-.54.3c-.16.08-.3.1-.45.16s-.4.47-.63.65a.94.94 0 01-.52.13 1.19 1.19 0 00-.44.17c-.2.11-.44.19-.63.32a2.58 2.58 0 00-.49.5c-.16.19-.38.18-.6.22a.75.75 0 00-.51.34 1.6 1.6 0 01-.28.35 1 1 0 01-.59.1 1 1 0 00-.61.26c-.19.13-.4.22-.6.33s-.21.21-.34.31-.22.12-.3.24c-.24.31 0 .6-.46.75a1 1 0 01-.53 0c-.12 0-.29-.14-.42-.09s-.07.09-.11.13a1.35 1.35 0 01-.47.35 3.79 3.79 0 00-.71.26c-.15.1-.3.23-.46.33a3.48 3.48 0 00-.73.6 2.83 2.83 0 01-.73.57 4.25 4.25 0 00-.67.43.53.53 0 01-.53.16c-.42 0-.46.36-.69.63s-.22.13-.39.15a.55.55 0 00-.43.2 1.83 1.83 0 01-.63.4 3.5 3.5 0 00-.61.31c-.51.31-1 .57-1.54.9l-2 1.37-.64.45 7-1.5c2-1.5 10.89-6.68 18.82-10.9s11.21-4.68 11.8-4.66-.44 4-1 4.85-.05.85-.39 1.08a.93.93 0 00-.21.76c-.44.4-.28.66-.39.95a6.84 6.84 0 00-.59 1.49c-.09.6-.76 1.05-.76 1.48a2.86 2.86 0 01-.35 1.09c-.11.29.12.39-.13.62a9.69 9.69 0 00-1.15 2.57A11.61 11.61 0 0155 20c-.44.76-.1.65-.29.95a5.61 5.61 0 00-.45.88c-.07.17-.14.35-.2.53a2 2 0 00-.17.53.27.27 0 010 .12v.41a.73.73 0 01-.07.19c0 .06 0 .13-.06.2a.84.84 0 01-.22.32.64.64 0 00-.19.29 2.52 2.52 0 00-.12.39c0 .11-.08.21-.09.32a1.26 1.26 0 010 .27 1.11 1.11 0 00-.14.29 1.39 1.39 0 01-.2.57c0 .06-.12.1-.17.17s0 .11-.08.16l-.12.18s-.05.05-.05.08-.06.16 0 .26-.06.2-.08.23-.11.27-.17.39a4 4 0 01-.22.34c-.13.21-.25.43-.37.65a4.46 4.46 0 00-.28.63s0 .08-.05.13a.76.76 0 000 .15.42.42 0 010 .16c0 .05-.07.13 0 .18s0 0 0 .09 0 .08-.05.13a.37.37 0 010 .11zM30.92 16c-.05 0 0 .06 0 .06l-.1.12h-.22c-.09 0 0-.05.05-.08s0-.07 0-.07v-.06c0-.06 0 0 .07 0h.17c.09 0 .08 0 0 .06zm1.68-.88h-.16a.07.07 0 01.07-.07.26.26 0 01.11 0h.05zm.39-.36h-.06v-.06H33zm.22-.19h-.05c-.05 0 0 0 0 0h.06zm9.9-5.22h-.06c-.06 0 0 0 0 0h.06zm.41-.35h-.05zm.25-.24h-.06.05c.05 0 0 0 0 0zM49 5.59h-.07c-.07 0 0 0-.07.06s-.09-.08 0-.11.13 0 .11 0zm.63-.38a.67.67 0 01-.25 0c-.14 0 0 0 0 0h.14c.14 0 .19 0 .11.06z"/><path d="M3.78 34.33a1.16 1.16 0 00.27.28 3.79 3.79 0 001 .57c.92.25 2-.87 2.67-1.43S9.17 32.57 9.91 32c1.89-1.49 3.82-2.93 5.77-4.34 3.22-2.33 6.5-4.59 9.81-6.79l13.36-2.23c4.54-.76 14.78-2 16.67.14l.45-.68a5.61 5.61 0 00-4.63-2.72A140.33 140.33 0 0030 17.75C19.83 19.58 11 21.52 8.05 22s-3.45.67-5 .84S.43 23 0 23.36a.34.34 0 00.21.31c.22.13 0 .3.29.68s.53.35.7.69.37.31 1.24.2a26.24 26.24 0 005.2-.7C10.28 23.87 18 22.36 19 22.21c0 0-5.16 3.64-6.83 4.93l-3.85 3-2.42 1.92a9.38 9.38 0 01-2.39 1.73c.14.22.18.39.27.54zm62.1-22.28c0 .4-.14.34.19.47s.57 0 .64-.26a5.11 5.11 0 00.39-1.41A2.91 2.91 0 0066 9.48c-.4-.16-.67-.11-1-.23s-.37 0-.32.39-.14 1 .07 1.12a2.1 2.1 0 01.57.53l.21.38.17.22c0 .07.19 0 .2.16zm-6.16 13.22c0 .07-.07.12-.07.18s-.06.14-.09.17a.72.72 0 00-.09.2.68.68 0 00-.07.2.38.38 0 010 .1c0 .05-.06.08-.08.13a.16.16 0 000 .07s0 .05-.05.07a.61.61 0 00-.09.18c0 .06-.12.13 0 .16a1.19 1.19 0 01-.12.29c0 .06-.13.16-.13.24v.11c0 .06-.09.1-.11.16s0 .05 0 .07a1.2 1.2 0 01-.13.21c0 .11-.12.21-.18.32a1.76 1.76 0 00-.09.2 1.2 1.2 0 01-.17.21 2.2 2.2 0 00-.15.26l-.1.2s-.06.13-.07.17v.12c0 .06-.17.17-.14.24a.25.25 0 010 .12l-.05.08a.11.11 0 000 .05c0 .07-.06.13-.08.19v.09a1.5 1.5 0 01-.06.29 4 4 0 01-.38.74c-.07.12-.1.25-.16.37s-.17.25-.24.39a2.14 2.14 0 00-.18.44c-.05.16-.06.33-.11.48l-.12.32c-.06.15-.14.29-.2.44s-.1.25-.16.37a3.63 3.63 0 00-.29.8c-.19.73-.34 1-.38 1.25s-.27.52-.2.79v.12c0 .02.12 0 .12.07a.15.15 0 01.15.1v.1a3.15 3.15 0 00.22.29l.18.23c.17.18.36.35.53.53.41.43.8 0 1-.32s1.07-3.47 1.61-4.6 2.75-6.44 3-7 1.87-4.54 2.22-5.54a3.93 3.93 0 00.32-2.23c-.13-.5-.93-.89-1.61-1.06s-.66.08-.62.47a4.12 4.12 0 01-.37 1.22 1.65 1.65 0 00-.13.81c.06.2-.21.45-.44.82s-.07.46 0 .63-.28.49-.36.78-.3.13-.37.36-.1.38-.16.56a3.22 3.22 0 01-.14.44 2.85 2.85 0 00-.23.37v.08c0 .02.12 0 .13 0s.16 0 .16.11v.09l-.26.17a.69.69 0 00-.19.19 4 4 0 01-.26.32.35.35 0 01-.06.14 1.28 1.28 0 00-.07.28zM98.89 4.71c0-.3-.12-.2 0-.43s-.15-.43-.22-.55 0-.1-.07-.32-.13-.12-.33-.23 0-.17 0-.17a6 6 0 00-2.35-1.89A8.37 8.37 0 0092.16 1c-.36.12-1.67.28-2 .41a10.19 10.19 0 01-1.31.34c-.3.06-1.09.5-1.59.67A25.23 25.23 0 0084.8 3.6a6.82 6.82 0 01-.94.59c-.19 0-.24.19-.4.36s-.21 0-.34.1-.23.21.08.29-.61.5-.74.58-.14 0-.12-.19-.47.19-.71.41a14.23 14.23 0 00-1.35 1.34c-.2.28.11.52-.08.58a2.1 2.1 0 00-.71.68c-.1.18-.41 0-.46.25s-.32.4-.57.63-.2 0-.4.27a2.36 2.36 0 01-.55.58c-.08 0-.08.18 0 .37s-.26.29-.42.37a.43.43 0 00-.26.34c0 .11-.08.1-.32.24s-.09.29-.21.39a6.68 6.68 0 00-.85 1 7.83 7.83 0 00-.44.94.79.79 0 01-.25.31v.14a3.13 3.13 0 00-.28.44c0 .1.24.16.15.21s-.28 0-.32.24-.12.14-.25.21-1.49 2-1.7 2.29-1 1.75-1.16 2-.4.21-.51.37.12.15 0 .33-.34.26-.46.65-.16.39-.3.5 0 .38-.12.43 0 .3 0 .42-.15 0-.27.05-.15.2-.16.32a.51.51 0 01-.14.36.46.46 0 00-.2.38c0 .15-.11.44-.2.47s-.08 0-.24.34a1.25 1.25 0 01-.26.42v.43c0 .24-.11.32-.25.25s-.19.21-.17.45a.53.53 0 01-.21.49c-.15.13-.08.53-.11.74s-.12.07-.28.13-.19.47-.22.63-.07 0-.22.09 0 .2-.11.35a1.37 1.37 0 00-.25.42 1.1 1.1 0 01-.15.39c-.07.08 0 .2-.06.33s0 0-.13.21 0 .35-.15.56a.73.73 0 00-.14.49c0 .16-.21.4-.38.55s-.27.52-.4.8 0 .3-.13.56 0 .41-.26.58-.27.68-.32.72 0 .23-.1.38-.06.45-.21.64a2.46 2.46 0 00-.37 1c0 .24-.07 0-.08.22s.07.18-.17.47a1.34 1.34 0 00-.22.54 2.29 2.29 0 00-.08.28v.32a3.17 3.17 0 01-.14.4.34.34 0 01-.05.14.62.62 0 000 .33 1.9 1.9 0 010 .25c0 .27-.09.53-.12.8a2.76 2.76 0 01-.3 1c-.24.5.15.85.39 1.16a4.12 4.12 0 01.65 1c.18.47 1.31.09 1.37-.13a7.8 7.8 0 00.03-1.39c0-.16.19-.44.19-.6v-1c0-.4.23-1.2.31-1.79a17.22 17.22 0 01.57-2.13c.1-.35.83-1.94.92-2.23s.25-.7.27-.75a4.73 4.73 0 00.21-.59c.09-.3.77-1.6.85-1.76s.56-1.26.68-1.46.17-.53.42-1.05.22-.46.21-.52 0-.19 0-.26a1.68 1.68 0 00.25-.6c.09-.32 1.73-3.06 1.84-3.33s.17-.27.26-.47.08-.37.16-.58a3.61 3.61 0 01.6-.77c.09-.08.08-.16.12-.25a.48.48 0 00.06-.24 1.07 1.07 0 01.07-.29c.07-.17.15-.09.28-.21a4.38 4.38 0 00.39-.7c.16-.3.75-1.09.94-1.44a11.36 11.36 0 01.81-1.31 17.58 17.58 0 001.17-1.53c.41-.64 2.43-3.3 2.93-3.8a38.88 38.88 0 013.69-3.77 24 24 0 014.21-2.57 4.46 4.46 0 011.3-.59 25.92 25.92 0 015.4-1.36c2.1-.11 2.23.13 2.34.23s0 .74-.09 1S96 5.51 96 5.62s-.15.11-.14.36 0 .4-.12.47a1.07 1.07 0 00-.46.41c-.1.17 0 .41-.09.55s-.37.36-.37.52-.23.3-.33.5-.23.14-.37.15-.17.35-.24.53a2.14 2.14 0 01-.31.47s.23 0 0 0-.57.42-.64.42-.13.27-.24.39-.56.22-.6.5a.59.59 0 01-.42.49c-.15 0-.77.76-.94.94s-1.66 1.43-1.8 1.58a6.84 6.84 0 00-.66.66c-.07.14-1.15.83-1.32 1a5.89 5.89 0 00-.78.6 15.47 15.47 0 01-1.37 1.21 3.78 3.78 0 00-.7.55 9.08 9.08 0 01-1 .79 6.92 6.92 0 01-.86.71c-.26.13-.44.5-.72.62s-1 .74-1.3.85-.21.16-.31.29-.18.16-.38.22a7.84 7.84 0 00-1.22.88c-.15.15-1 .93-1.13 1a1.75 1.75 0 00-.46.35c-.1.14-.17 0-.24.19a.75.75 0 01-.25.35l-.65.62c-.1.09-.54.69-.68.71s-.07.25-.19.34-.33.51-.48.67-.09.22-.09.36-.14.13-.14.26-.42.9-.48 1a1.12 1.12 0 00-.14.38c0 .24-.09.12-.15.3s.06.2.13.23 0 .11 0 .15-.11.22 0 .29-.1.08-.18.3a2.54 2.54 0 00.16 1 2.59 2.59 0 01.17.68c0 .32.32.51.4.79a2.23 2.23 0 00.32.76c.17.23.19.5.38.64s.19.13.21.36.19.22.25.33a6 6 0 00.91 1c.14.05.15.07.2.18s.83 1 1.11 1 0-.12.42.28a30.23 30.23 0 004.38 2c.61.18 1.48.27 1.82.36a1.12 1.12 0 00.79-.16c.41-.14.85.25 1.4.35a12.55 12.55 0 002.73-.21c.19-.07.14-.59.14-.59h-.54c-.25 0-.22-.19-.7-.49a7.73 7.73 0 00-2.58-.44A15.8 15.8 0 0179.86 36c-3.08-1.4-3.23-2-4.14-3.89s.07-3.66 1-4.85a26.78 26.78 0 015.16-4.57c2.65-2 7.92-6.35 10.83-8.93a27 27 0 005.19-6.05 6.78 6.78 0 001-3zm-12 33.62l.19-.08c.19-.07.12 0 .19 0s0 0 .05.1-.11 0-.18.1 0 .2-.1.19-.08-.08-.26-.25 0-.07.11-.1z"/></g></g></svg><svg width="129.37" height="26.84" viewBox="-1 -1 129.37 26.84" xmlns="http://www.w3.org/2000/svg"><g data-name="Layer 2"><g data-name="Layer 1" fill="#fff"><path d="M117.49.63h-10.37a12.85 12.85 0 00-1.52 0H99a4.33 4.33 0 00-.72 0h-1.1a2.08 2.08 0 01-.25 0 4.4 4.4 0 00-1 0 1.94 1.94 0 01-.34 0H77.81L73 .72H49.67a2.37 2.37 0 01-.46 0 3.88 3.88 0 00-.59 0h-17.8a1 1 0 01-.17 0 3.89 3.89 0 00-1.13 0h-1.14a1.22 1.22 0 00-.33 0 2.18 2.18 0 01-.51 0 7.22 7.22 0 00-1.47 0 1.43 1.43 0 01-.29 0 6.1 6.1 0 00-1.35 0h-.93a2.41 2.41 0 01-.71 0 2.15 2.15 0 00-.67 0 2.22 2.22 0 01-.68 0h-1a6.46 6.46 0 01-.88 0h-2.53a17.42 17.42 0 00-1.77 0h-.17a8.46 8.46 0 00-1.51 0 2.76 2.76 0 01-.76 0 1.69 1.69 0 00-.55 0H2.69C2.11.68 1.49.74.87.71Q.5.7.12.65C.06.65 0 .6 0 .53A.21.21 0 01.2.25h2.19A3.33 3.33 0 003 .21a2.36 2.36 0 01.38 0H4.7a3.86 3.86 0 01.68 0A5.67 5.67 0 006.47.2a2.8 2.8 0 01.29 0 2.17 2.17 0 00.51 0 1.64 1.64 0 01.38 0 2 2 0 00.42 0 2.75 2.75 0 01.5 0 3.76 3.76 0 00.67 0h.13a1.67 1.67 0 00.63 0 2.41 2.41 0 01.38 0h.5a2.44 2.44 0 01.38 0 3.84 3.84 0 00.76 0h.33a2.26 2.26 0 01.26 0 6.28 6.28 0 001.3 0 2.36 2.36 0 01.46 0 3.06 3.06 0 00.8 0 1 1 0 01.3 0 9.21 9.21 0 001 0h.84a7.32 7.32 0 011.48 0h3.71a8.61 8.61 0 01.88 0 8.64 8.64 0 00.88 0 1.27 1.27 0 00.34 0 .36.36 0 01.32 0 .32.32 0 00.17 0 2.25 2.25 0 01.58 0h.68a4.42 4.42 0 001.09 0 1.69 1.69 0 01.56 0 8 8 0 001.09 0 1 1 0 00.25 0 1.31 1.31 0 01.59 0 3.44 3.44 0 00.71.05h3.79a3.37 3.37 0 01.71 0h.42a4.78 4.78 0 00.76 0 5 5 0 011.09 0h.3a7.85 7.85 0 01.84 0 .76.76 0 00.21 0 1.43 1.43 0 01.29 0 1.21 1.21 0 00.38 0 4.42 4.42 0 011.09 0 3.15 3.15 0 00.92 0 .78.78 0 01.26 0 1.49 1.49 0 00.42 0 2.73 2.73 0 01.41 0h22.52a2.09 2.09 0 01.25 0 4.61 4.61 0 001.05 0 1.51 1.51 0 01.3 0 4.73 4.73 0 00.84 0h2.49a2.48 2.48 0 00.38 0 1.62 1.62 0 01.58 0 .76.76 0 00.26 0 1.42 1.42 0 01.46 0 .11.11 0 00.08 0 5.15 5.15 0 01.88 0h10.47a.27.27 0 01.09 0c.35.06.7 0 1 0a.48.48 0 00.17 0h.67a12.18 12.18 0 001.48 0h1.85a8.51 8.51 0 001 0 .75.75 0 01.21 0 3.57 3.57 0 00.8 0h.8a6.66 6.66 0 011.18 0 1.63 1.63 0 00.38 0 1.4 1.4 0 01.5 0 2 2 0 00.42 0 3 3 0 01.42 0h2.83a2.81 2.81 0 00.58 0 1.13 1.13 0 01.26 0h9.78A1.93 1.93 0 00108 0a2.32 2.32 0 01.59 0 3.32 3.32 0 00.89 0 .43.43 0 01.16 0 3.56 3.56 0 00.8 0 3.11 3.11 0 01.68 0 1.48 1.48 0 00.42 0 3.44 3.44 0 01.46 0h11.71a7.51 7.51 0 011.34 0h.13a6.82 6.82 0 011 0 .32.32 0 00.17 0 4.21 4.21 0 01.71 0 .32.32 0 01.13 0 .25.25 0 01.17.23.25.25 0 01-.14.25 1 1 0 01-.41.08h-9.33zM3.74 4H6l3.72 11.31H7.47l-.71-2.41H2.93l-.7 2.41H0zm-.31 7.18h2.81l-1-3.27c-.18-.6-.43-1.75-.43-1.75s-.27 1.15-.45 1.75zM10.62 4h2.16v11.31h-2.16zm3.81 0h4.87a3.12 3.12 0 013.42 3.16 2.59 2.59 0 01-1.95 2.75v.05c1 .3 1.49.91 1.62 2.29.15 1.6.09 2.83.46 3v.11h-2.06c-.27-.12-.3-1.39-.39-2.62a1.86 1.86 0 00-2.08-1.94h-1.74v4.56h-2.15zm2.15 5h2.29c1.17 0 1.75-.65 1.75-1.56a1.51 1.51 0 00-1.69-1.6h-2.35zm14.26-5h3l1.5 5.71c.37 1.43.66 3.06.66 3.06s.29-1.63.66-3.06L38.23 4h3.07v11.31h-2V8.8c0-.92.09-2.36.09-2.36s-.24 1.34-.46 2.17l-1.83 6.7H35l-1.78-6.7c-.22-.83-.46-2.17-.46-2.17s.09 1.44.09 2.36v6.51h-2zm15.03 0h2.22l3.75 11.36H49.6l-.72-2.41h-3.83l-.7 2.41h-2.18zm-.32 7.18h2.81l-1-3.27c-.18-.6-.43-1.75-.43-1.75s-.27 1.15-.44 1.75zm9.91-1.81L52.29 4h2.42l2 3.59 2-3.59H61l-3.12 5.4 3.52 6h-2.5l-2.17-4.14-2.2 4.14H52zM68.38 4h2.26l1.87 6.58c.21.75.46 1.81.46 1.81s.25-1.08.46-1.81L75.32 4h2.18l-3.58 11.31H72zm9.97 0h7.81v1.89H80.5v2.54h5v1.89h-5v3.07h5.71v1.92h-7.86zm9.19 0h4.88a3.11 3.11 0 013.41 3.16 2.59 2.59 0 01-1.94 2.75v.05c1 .3 1.48.91 1.62 2.29.15 1.6.09 2.83.46 3v.11H93.9c-.26-.12-.29-1.39-.38-2.62a1.87 1.87 0 00-2.08-1.94H89.7v4.56h-2.16zm2.16 5H92c1.17 0 1.75-.65 1.75-1.56a1.51 1.51 0 00-1.69-1.6H89.7zm7.06.66c0-3.41 2-5.93 5.12-5.93S107 6.25 107 9.66s-2 5.91-5.11 5.91-5.13-2.51-5.13-5.91zm8 0c0-2.28-1-4-2.89-4S99 7.38 99 9.66s1 4 2.94 4 2.85-1.75 2.85-4zM108.17 4h2.18l3.54 6.34c.34.62.74 1.59.74 1.59s-.06-1.18-.06-2V4h2.12v11.31h-2.08L111 9c-.34-.61-.76-1.58-.76-1.58s.06 1.19.06 2v5.86h-2.12zm13.12 0h2.23l3.74 11.36H125l-.72-2.41h-3.83l-.7 2.41h-2.18zm-.29 7.13h2.8l-1-3.27c-.18-.6-.43-1.75-.43-1.75s-.27 1.15-.44 1.75zm6.37 7.39a.3.3 0 00-.24-.24.52.52 0 00-.17 0 6.39 6.39 0 00-1 0h-.23a13 13 0 00-1.39 0h-.18a14.3 14.3 0 00-1.85 0 2.77 2.77 0 01-.41 0h-16.33a2.81 2.81 0 01-.58 0 5.79 5.79 0 00-.93 0 6.72 6.72 0 01-1.1 0 .91.91 0 00-.23 0 5.44 5.44 0 01-1.21 0 3.66 3.66 0 00-.81 0 5.62 5.62 0 01-.58 0H86.31a4.38 4.38 0 01-.81 0h-3.89a5.72 5.72 0 00-.58 0 2.18 2.18 0 01-.57 0 3.29 3.29 0 00-.7 0 1.81 1.81 0 01-.52 0 12.52 12.52 0 00-1.62 0h-1.1a6.73 6.73 0 01-1.1 0 1 1 0 00-.29 0 12.89 12.89 0 01-1.39 0c-.33 0-.66-.05-1 0h-1.55c-.67 0-1.35.06-2 0h-.93a1.76 1.76 0 01-.23 0h-9.24c-.7 0-1.35-.06-2 0h-1.04c-.7 0-1.39.06-2.09 0H52.1c-.41 0-.81-.06-1.22 0h-.11a2 2 0 00-.64 0 1.29 1.29 0 01-.34 0 3.66 3.66 0 00-.81 0 4.52 4.52 0 01-.52 0H45a7.53 7.53 0 01-1.16 0 1.78 1.78 0 00-.4 0 8.77 8.77 0 01-1.45 0H10.71a5.44 5.44 0 00-.57 0 2.82 2.82 0 01-.58 0 1 1 0 00-.35 0 6 6 0 01-1.27 0 7.52 7.52 0 00-1.5 0 1.81 1.81 0 01-.52 0H5.5a1.5 1.5 0 01-.29 0H3.65a8.47 8.47 0 00-1.51 0 7.18 7.18 0 01-1 0H.56a1.15 1.15 0 00-.32 0 .27.27 0 00-.13 0 .24.24 0 00-.06.09v.09H0a.55.55 0 010 .18c0 .05 0 .1.06.13a.44.44 0 00.23 0H19a7.3 7.3 0 01.81 0 4.57 4.57 0 00.64 0h59.42c.71.05 1.43 0 2.14 0h1.74a3.7 3.7 0 00.47 0 8.43 8.43 0 011.33 0h1.86a8.18 8.18 0 011 0 1.93 1.93 0 00.34 0h37.9a1.83 1.83 0 00.57-.08.28.28 0 00.19-.27zm-40.2 2.89h.34L89 23.77c.17.25.33.55.33.55v-2.91h.3v3.36h-.32l-1.54-2.33c-.15-.23-.35-.57-.35-.57v2.9h-.3zm3.12 0h.32v3.36h-.32zm.93 0h.31v1.79l1.81-1.79h.4l-1.39 1.37 1.48 2h-.38L92.13 23l-.6.59v1.18h-.31zm2.92 0h2.27v.28h-2v1.21h1.79v.27h-1.75v1.31h2v.29h-2.31zm3.3 2.27h.31a.91.91 0 001 .89c.49 0 .85-.25.85-.71s-.31-.58-1-.73-1.05-.31-1.05-.9.44-.88 1.11-.88a1.05 1.05 0 011.18 1h-.31a.78.78 0 00-.86-.72c-.51 0-.82.24-.82.62s.31.52.9.63 1.19.29 1.19 1-.48 1-1.18 1a1.19 1.19 0 01-1.32-1.2zm2.98-2.27h1.31a1 1 0 01.79.29.92.92 0 01.23.65c0 .62-.36 1-1.06 1h-1v1.46h-.31zm1.25 1.59c.54 0 .76-.26.76-.68s-.25-.67-.73-.67h-1V23zm1.33.09a1.57 1.57 0 113.11 0 1.57 1.57 0 11-3.11 0zm2.79 0c0-.81-.43-1.47-1.24-1.47s-1.22.66-1.22 1.47.43 1.46 1.22 1.46 1.26-.65 1.26-1.46zm.81-1.68h1.49a.86.86 0 011 .91.77.77 0 01-.57.81c.35.12.46.37.49.89s.08.68.14.72h-.34c-.07-.05-.09-.18-.12-.75s-.23-.75-.71-.75h-1v1.5h-.31zM108 23c.49 0 .73-.23.73-.65s-.18-.66-.69-.66h-1.11V23zm2.42-1.31h-1.13v-.28h2.56v.28h-1.12v3.08h-.31zm1.58 1.99h.31a.91.91 0 001 .89c.49 0 .85-.25.85-.71s-.31-.58-1-.73-1-.31-1-.9.44-.88 1.11-.88a1.05 1.05 0 011.18 1h-.31a.78.78 0 00-.86-.72c-.51 0-.82.24-.82.62s.31.52.9.63 1.19.29 1.19 1-.48 1-1.18 1a1.19 1.19 0 01-1.37-1.2zm2.61-2.27h.32l.58 2.27c.06.25.15.66.15.66s.09-.41.16-.64l.61-2.29h.34l.61 2.28c.06.24.15.65.15.65s.09-.41.15-.66l.59-2.27h.31l-.91 3.36h-.31l-.64-2.45c-.06-.21-.13-.54-.13-.54s-.07.33-.12.54l-.66 2.45h-.33zm4.39 0h2.27v.28h-2v1.21h1.79v.27h-1.79v1.31h2v.29H119zm3.77 0h.35l1.27 3.36h-.34l-.38-1.06h-1.46l-.39 1.06h-.32zm.8 2.05l-.46-1.26c-.07-.19-.16-.49-.16-.49s-.09.29-.17.49l-.46 1.26zm1.16-2.05h1.48a.85.85 0 011 .91.77.77 0 01-.56.81c.35.12.46.37.48.89s.09.68.15.72h-.34c-.07-.05-.09-.18-.12-.75s-.23-.75-.71-.75h-1v1.5h-.31zm1.38 1.59c.48 0 .73-.23.73-.65s-.19-.66-.69-.66H125V23zm-79.97.32c.43-.26.73-.42.73-.89a.63.63 0 00-.69-.68.72.72 0 00-.53.2.89.89 0 00-.2.64h-.31a1.07 1.07 0 01.29-.81 1.08 1.08 0 01.77-.29.91.91 0 011 .93c0 .65-.46.87-.93 1.15s-.77.47-.84.92h1.73v.28h-2.09c.01-.83.57-1.14 1.07-1.45zm1.38-.16c0-1 .46-1.68 1.19-1.68s1.18.63 1.18 1.68-.42 1.68-1.19 1.68-1.18-.66-1.18-1.68zm2 0c0-.86-.3-1.42-.86-1.42s-.88.54-.88 1.42.31 1.41.88 1.41.91-.57.91-1.41zm1.77.16c.43-.26.73-.42.73-.89a.63.63 0 00-.69-.68.69.69 0 00-.53.2.89.89 0 00-.2.64h-.31a1.1 1.1 0 01.28-.81 1.09 1.09 0 01.78-.29.91.91 0 011 .93c0 .65-.46.87-.93 1.15s-.78.47-.84.92h1.72v.28h-2.09c.02-.83.57-1.14 1.08-1.45zm1.38-.16c0-1 .46-1.68 1.18-1.68s1.15.63 1.15 1.68-.42 1.68-1.18 1.68-1.15-.66-1.15-1.68zm2 0c0-.86-.3-1.42-.87-1.42s-.87.54-.87 1.42.3 1.41.87 1.41.92-.57.92-1.41zM3.13 21.45A3.14 3.14 0 000 24.59a.11.11 0 00.11.11h1.72a.11.11 0 00.11-.11 1.19 1.19 0 112.37 0 .11.11 0 00.11.11h1.73a.1.1 0 00.1-.11 3.13 3.13 0 00-3.12-3.14m5.17.21H6.58a.11.11 0 00-.11.11v2.82a.11.11 0 00.11.11H8.3a.11.11 0 00.11-.11v-2.82a.11.11 0 00-.11-.11m3.45-.21a3.13 3.13 0 00-3.12 3.14.1.1 0 00.1.11h1.73a.11.11 0 00.11-.11 1.18 1.18 0 011.18-1.19.11.11 0 00.11-.11v-1.74a.1.1 0 00-.11-.1"/><path d="M70 19.35v5.35h.47a.66.66 0 000-.14.76.76 0 010-.3 1.32 1.32 0 000-.28.87.87 0 010-.36.81.81 0 000-.22 3.49 3.49 0 010-.79 2.67 2.67 0 000-.49v-.39a5 5 0 010-.55.89.89 0 000-.28 1.71 1.71 0 010-.45V19.1a1.94 1.94 0 000-.24c0-.11-.13-.16-.29-.14s-.12 0-.13.08a5.14 5.14 0 00-.06.55zm-40.46 0v5.35h.47a.66.66 0 000-.14.76.76 0 010-.3 1.32 1.32 0 000-.28.87.87 0 010-.36.81.81 0 000-.22 3.49 3.49 0 010-.79 2.67 2.67 0 000-.49v-.39a5 5 0 010-.55.89.89 0 000-.28 1.71 1.71 0 010-.45V19.1a1.94 1.94 0 000-.24c0-.11-.13-.16-.29-.14s-.12 0-.13.08-.05.37-.06.55z"/></g></g></svg><svg width="126.43" height="14.91" viewBox="-1 -1 250.85 27.81" y="26.84" xmlns="http://www.w3.org/2000/svg"><path data-name="CÓMPRALAS AQUÍ" d="M9.71 24.663a8.608 8.608 0 006.31-2.229 7.8 7.8 0 002.36-5.035h-4.87a3.618 3.618 0 01-3.82 3.274c-2.92 0-4.74-2.613-4.74-6.218 0-3.576 1.52-6.245 4.71-6.245a3.549 3.549 0 013.71 3.109h4.87a7.669 7.669 0 00-2.94-5.42 9.147 9.147 0 00-5.61-1.734C3.83 4.165 0 8.595 0 14.455c0 5.888 3.94 10.208 9.71 10.208zM27.77 3.588h3.42L34.1.011h-5.14zm1.85 17.14c-3.17 0-4.79-2.723-4.79-6.3S26.45 8.1 29.62 8.1c3.19 0 4.76 2.751 4.76 6.328s-1.57 6.3-4.76 6.3zm-.03 3.962c5.97 0 9.74-4.374 9.74-10.262S35.56 4.165 29.59 4.165c-5.94 0-9.71 4.375-9.71 10.263s3.77 10.262 9.71 10.262zm12.2-.467h4.37v-9.878c0-.8-.08-3.962-.08-3.962h.06s.68 2.972.9 3.687l2.81 10.153h4.02l2.83-10.18c.22-.716.91-3.66.91-3.66h.05s-.08 3.137-.08 3.935v9.905h4.46V4.551h-6.6l-2.42 8.611c-.34 1.238-1.11 4.485-1.11 4.485h-.05s-.77-3.247-1.13-4.485l-2.39-8.611h-6.55v19.672zm23.51 0h4.95v-6.576h4.6c4.04 0 6.65-2.669 6.65-6.438a6.443 6.443 0 00-1.98-4.842 7.456 7.456 0 00-5.36-1.816H65.3v19.672zm4.95-10.428V8.65h3.61a2.436 2.436 0 012.75 2.531 2.481 2.481 0 01-2.75 2.614h-3.61zM83.8 24.223h4.87v-7.374h2.94a2.892 2.892 0 013.28 2.806c.3 1.954.22 4.265.74 4.568h4.73v-.248c-.69-.248-.41-2.724-.82-5.31a3.948 3.948 0 00-2.87-3.6v-.083a4.71 4.71 0 003.42-4.76c0-3.659-2.98-5.667-6.88-5.667H83.8v19.672zm4.87-10.978V8.402h3.77c1.87 0 2.8 1.018 2.8 2.449 0 1.486-.99 2.394-2.91 2.394h-3.66zm12.77 10.978h4.9l1.13-3.55h6.88l1.15 3.55h5.12l-7.1-19.672h-5.01zm7.16-7.044l1.51-4.76c.33-1.018.8-2.778.8-2.778h.05s.44 1.76.77 2.778l1.49 4.76h-4.62zm13.96 7.044h13.7v-4.127h-8.83V4.551h-4.87v19.672zm14.73 0h4.89l1.13-3.55h6.88l1.15 3.55h5.12l-7.1-19.672h-5zm7.15-7.044l1.51-4.76c.33-1.018.8-2.778.8-2.778h.05s.45 1.76.78 2.778l1.48 4.76h-4.62zm21.8 7.511c4.54 0 8.06-2.283 8.06-6.41 0-4.21-3.3-5.338-6.96-6.191-2.94-.66-4.46-.99-4.46-2.366 0-1.1 1.13-1.843 2.84-1.843 1.81 0 2.97.853 3.16 2.366h4.76c-.19-4.127-3.49-6.053-7.76-6.053-4.4 0-7.81 1.843-7.81 6.053 0 4.127 3.6 5.172 7.01 5.97 2.7.661 4.3.991 4.3 2.559 0 1.486-1.57 2.063-3.17 2.063-2.34 0-3.63-.825-3.85-2.806h-4.9c.11 4.347 3.55 6.658 8.78 6.658zm14.04-.467h4.9l1.13-3.55h6.88l1.15 3.55h5.12l-7.1-19.672h-5.01zm7.16-7.044l1.51-4.76c.33-1.018.8-2.778.8-2.778h.05s.44 1.76.77 2.778l1.49 4.76h-4.62zm22.87 3.549c-3.16 0-4.76-2.723-4.76-6.3s1.6-6.328 4.76-6.328c3.19 0 4.73 2.751 4.73 6.328a8.858 8.858 0 01-.68 3.632l-1.82-1.734-2.26 2.339 1.79 1.733a4.454 4.454 0 01-1.76.33zm7.4 5.09l2.26-2.393-2.23-2.091a10.781 10.781 0 002.26-6.906c0-5.888-3.75-10.263-9.72-10.263-5.94 0-9.68 4.375-9.68 10.263s3.74 10.262 9.68 10.262a9.907 9.907 0 004.96-1.238zm12.86-1.238c5.48 0 8.2-2.751 8.2-7.291V4.551h-4.87v12.818a3.029 3.029 0 01-3.33 3.3c-2.39 0-3.38-1.293-3.38-3.219V4.55h-4.87v12.739c0 4.595 2.75 7.291 8.25 7.291zm11.35-.357h4.87V4.551h-4.87v19.672zm.6-20.635h3.42l2.91-3.577h-5.14z" fill="#fff" fill-rule="evenodd"/></svg><svg width="21.08" height="14.81" viewBox="-1 -1 21.08 14.81" x="100.89" y="57.45" xmlns="http://www.w3.org/2000/svg"><g data-name="Layer 2"><path d="M5.76 5H4.52l.1-2.22L3.78 5H2.54l1.85-5h1.35l-.16 2.13L6.37 0h1.2L5.76 5zM6 5h1.27l1.81-5h-1.2L6 5zm7.38-.53l5.66-1.39-14.62 6c-1.31.53-3.07.87-4.08-.33a1.94 1.94 0 01-.23-1.86 9.54 9.54 0 012.41-3.73c-.51 1-.92 2.47.22 3.29a1.91 1.91 0 001.58.25L11.25 5H9.53V3.16a.35.35 0 00-.06.09L8.79 5H7.53l1.85-5h1.23l-.48 1.32L11.27 0h3.53l-.35.92h-1.08l-.37 1h1.09l-.33.87h-1.09L12.23 4h1.36l-.17.45zm-2.79.29L12.31.23l-1.79 2.1.11 2.41zM3 12.38l-.19.43h-.22L3.41 11l.82 1.78H4l-.19-.43zm.4-.89l-.31.69h.62l-.31-.69zm5.5-.39h-.21v1.71h.22V11.1zm5.72 1.71h-.26l-.51-.72h-.09v.72h-.22v-1.7h.27a.88.88 0 01.45.08.45.45 0 01.23.4.47.47 0 01-.42.48l.55.74zm-.86-.9h.07c.22 0 .46 0 .46-.31s-.26-.3-.47-.3h-.06v.61z" fill="#fff" data-name="Layer 1"/></g></svg><svg width="109.84" height="15.7" viewBox="-1 -1 109.84 15.7" y="41.75" xmlns="http://www.w3.org/2000/svg"><g data-name="Layer 2"><path d="M42.15 13.35h2.58V8.06L50.2 8V5.79h-2.66a.86.86 0 00-.23 0h-2.65V2.72h3.11a2.16 2.16 0 00.44 0c.12 0 .33-.15.44-.1s.08.1.17.13a1.45 1.45 0 00.36 0c.11 0 .13-.12.25-.11s.11.09.18.11c.12 0 1.57-.06 1.57-.06V.5L42 .58v4.83c0 .64.11 1.23.11 1.86v.48c0 .15.09.3.09.47a2.44 2.44 0 01-.1.78 1.2 1.2 0 000 .5c0 .1.07.06.05.19a3.62 3.62 0 00-.06.46v3.25zm15.45.08c3.25 0 4.91-1.63 4.88-4.37V3.19c0-.08-.06-.35 0-.53s0-.23 0-.34a2.64 2.64 0 000-.28V.4H59.9v2.85a5 5 0 000 1.09 1.55 1.55 0 01.06.23.8.8 0 010 .21v.33a1.72 1.72 0 010 .32 1.42 1.42 0 000 .58 4.36 4.36 0 010 .51v2.51a2.15 2.15 0 01-2.38 2.31c-1.72 0-2.39-.91-2.4-2.23L55.06.46h-2.58v4.55a1.72 1.72 0 00.07.21 1.52 1.52 0 010 .67 2.56 2.56 0 00-.05.27 1.27 1.27 0 000 .34 5.15 5.15 0 010 .56v2.07c0 2.77 1.76 4.31 5 4.28zm6-10.86h3.82v1a1.71 1.71 0 010 .39v9.2h2.57L70 2.51h.09a5 5 0 00.55 0h3.22V.33L63.6.39v2.18zm16.5 10.66c3.25 0 4.9-1.63 4.88-4.37L84.93.2h-2.58v1.62a3 3 0 010 .6 5.21 5.21 0 000 .79v5.64a2.15 2.15 0 01-2.38 2.31c-1.72 0-2.39-.91-2.4-2.23V.26L75 .29v3.37a9.22 9.22 0 000 1.29 1 1 0 000 .16 4.58 4.58 0 010 .53 1.82 1.82 0 010 .33.89.89 0 000 .23.41.41 0 010 .11V7.6a3.21 3.21 0 010 .62.65.65 0 000 .19V9c0 2.77 1.76 4.31 5.05 4.28zm9.25-11h2.8a1.76 1.76 0 012 1.78c0 1-.68 1.76-2.08 1.77h-2.73V2.25zM86.88 13h2.58V7.88h2.08A2.17 2.17 0 0194 10c.12 1.37.16 2.8.48 2.94h2.47v-.13l-.11-.08a1.3 1.3 0 01-.1-.15 1.91 1.91 0 01-.12-.47c-.09-.5-.11-1-.15-1.51v-.45a4.81 4.81 0 00-.07-.53 1 1 0 010-.25 1.49 1.49 0 000-.36v-.19a.44.44 0 00-.08-.11.26.26 0 010-.15.66.66 0 000-.14.22.22 0 000-.16c0-.07 0-.13-.06-.21a1.48 1.48 0 00-.27-.4A2.08 2.08 0 0095 7a2.88 2.88 0 00-.56-.2v-.04a2.93 2.93 0 002.3-3.11c0-2.12-1.66-3.54-4.11-3.52H86.8v6.65a3.26 3.26 0 01.07.76c0 .14 0 .28-.06.41s0 .28 0 .41v.47a4.73 4.73 0 010 .65V13zm11.56-.1l9.4-.09v-2.16l-6.82.06V7.26h2.1a3.84 3.84 0 01.48 0h3.32V5.14L101 5.1V2.24h1.9a4.69 4.69 0 00.53 0h.44a9.73 9.73 0 011.08 0h.59l.26-.05h.36a1.27 1.27 0 01.27 0h1.33V.01l-9.43.07v6.97a2.28 2.28 0 010 .26 5.66 5.66 0 000 .92v.64a1 1 0 000 .16 1.08 1.08 0 000 .18v.73a2.73 2.73 0 000 .41v.15c0 .05-.07.21-.06.32a2.34 2.34 0 010 .26v1.62M26.1 11.48V8.03l5.93.05V5.96H26.1V3.1l6.76.06L33 .93h-9.38v12.71l9.39.08v-2.16h-6.79m-14.8 2h2.57V7.93h5l.01 5.65h2.57l.1-12.75h-2.58v2.28a1.53 1.53 0 010 .37v.83a1.76 1.76 0 010 .46 2.26 2.26 0 000 .52v.54h-5v-5h-2.57v3.49a2.35 2.35 0 000 .27 1 1 0 010 .3 4.34 4.34 0 000 .51v.77m-7.79 7.28H6.3l.09-10.6h3.82V.67S9 .73 9 .74h-.58a3.09 3.09 0 01-.42 0h-.31L7.43.7H3L1.55.65H0v2.17h3.82v1.74a.7.7 0 000 .14v4.05A.75.75 0 003.8 9a1.33 1.33 0 010 .2.65.65 0 010 .14.24.24 0 010 .09.86.86 0 000 .32v3.73" data-name="Layer 1" fill="#fff"/></g></svg><svg width="16.44" height="15.29" viewBox="-1 -1 16.44 15.29" x="100.89" y="72.26" xmlns="http://www.w3.org/2000/svg"><g data-name="Layer 2"><path d="M9.46 13.29h.2a7.89 7.89 0 00.84 0 6.55 6.55 0 00.77-.15 5.36 5.36 0 00.71-.23 3.82 3.82 0 00.64-.32 3.44 3.44 0 00.55-.39 4.25 4.25 0 00.47-.48 4 4 0 00.36-.55 3.8 3.8 0 00.26-.63 4.27 4.27 0 00.15-.71 1.53 1.53 0 000-.37.68.68 0 010-.14.75.75 0 000-.15c0-.09 0-.17-.05-.25s0-.07 0-.11a1.21 1.21 0 010-.19 2.51 2.51 0 000-.27c0-.13-.12-.26-.17-.4s-.06-.15-.1-.23a.83.83 0 01-.09-.16.42.42 0 000-.1 2.31 2.31 0 00-.2-.24 1.67 1.67 0 00-.23-.22c-.05 0-.12-.08-.18-.13l-.17-.16-.22-.23a1.16 1.16 0 00-.24-.2l-.31-.15a9.37 9.37 0 00-1.25-.46c-.48-.14-.95-.25-1.43-.36C7.85 4.88 7 4.57 7 3.54S7.89 2 9.28 2.05a2.2 2.2 0 012.43 2h2.47c-.18-2.58-2-4-4.87-4a8.37 8.37 0 00-1 .05 5.82 5.82 0 00-.91.12 5 5 0 00-.82.28 4.07 4.07 0 00-1.45 1.06l-.07.1-.16.22c0 .07-.05.13-.08.19a1.62 1.62 0 00-.17.41v.16a2.33 2.33 0 01-.07.25v.25a.5.5 0 000 .13v.17a1.92 1.92 0 010 .22 1.83 1.83 0 000 .47 3.06 3.06 0 010 .32 4.85 4.85 0 00.16.63 2.76 2.76 0 00.6 1 3.43 3.43 0 00.92.68 6.71 6.71 0 001.14.48c.43.13.86.24 1.29.35h.17c1.93.46 3.14.72 3.13 2s-1.17 1.63-2.49 1.62c-1.81 0-2.67-.63-2.84-2.17L4 9a4.94 4.94 0 00.19 1.27v.16l.08.1.16.21a.79.79 0 01.16.23c0 .08.06.16.1.25a1.1 1.1 0 00.09.14.29.29 0 00.07.12c.13.16.26.33.4.47l.17.14s.06 0 .09.07a1 1 0 00.1.11 3.21 3.21 0 00.31.19 5.93 5.93 0 00.68.31 7.09 7.09 0 001.64.37 9.46 9.46 0 001.07.06zM0 12.93h2.57V9.38a1 1 0 000-.29v-.11a.65.65 0 010-.2v-.92a1.61 1.61 0 010-.31v-.42a3.85 3.85 0 000-.48V.18L.11.15 0 12.93z" fill="#fff" data-name="Layer 1"/></g></svg><svg width="16.89" height="14.9" viewBox="-1 -1 16.89 14.9" x="109.84" y="41.75" xmlns="http://www.w3.org/2000/svg"><g data-name="Layer 2"><path d="M4.55 12.81h2.54V3.98S7.61 5.1 8 5.79l4.27 7.09h2.48v-3.8c0-.29-.06-.44 0-.67a12.51 12.51 0 00.06-1.73 9.3 9.3 0 010-1.06 4.34 4.34 0 010-.51c0-.12.05-.22.05-.33V.11h-2.54l-.06 6.7c0 .89.05 2.21.05 2.21s-.47-1.09-.87-1.79L7.27.06 4.66 0v2.43a7.09 7.09 0 000 1.22 1.77 1.77 0 010 .46 3.37 3.37 0 000 .55V5a2.28 2.28 0 010 .26v7.51zM0 12.77h2.57V6.13a2.54 2.54 0 000-.48 1.64 1.64 0 010-.22 1 1 0 010-.24 1.58 1.58 0 000-.38 1 1 0 010-.29v-.47a1 1 0 000-.18 1.21 1.21 0 000-.19V0H.11v9.12A5.85 5.85 0 010 10v2.77z" fill="#fff" data-name="Layer 1"/></g></svg><svg width="35.11" height="15.03" viewBox="-1 -1 35.11 15.03" y="104.44" xmlns="http://www.w3.org/2000/svg"><g data-name="Layer 2"><path d="M23.71 12.86h2.41a2.54 2.54 0 01.39 0 1.38 1.38 0 00.2 0h6.39V10.7l-6.82.06V7.31c0-.02 1.42 0 1.55 0a1 1 0 01.24 0 2.06 2.06 0 00.35 0 3.85 3.85 0 00.48 0 2.29 2.29 0 00.28-.07 6.68 6.68 0 011 0h2V5.11h-1.35L30 5.1h-2.09a1.76 1.76 0 00-.31 0 4.17 4.17 0 01-.5 0h-.86V2.24L33 2.18V0h-1.78a4.94 4.94 0 00-.86 0h-.6a1 1 0 00-.25 0c-.28.05-.57 0-.85 0h-.58a4.66 4.66 0 00-.83 0 5.15 5.15 0 01-.68 0H25l-1.4.09v4.79a.6.6 0 000 .19v.16a2.43 2.43 0 000 .27.47.47 0 010 .17v2.52a2.85 2.85 0 000 .29v4.38zm-9.53-1.49v.06-4.08l5-.05.05 5.63h2.58V5.35a6 6 0 000-.85 3.27 3.27 0 010-.44 1.47 1.47 0 01.05-.29 1.61 1.61 0 000-.31V.1h-2.58l.05 5h-5l-.05-5h-2.57v5.64a.67.67 0 00.1.31 1.14 1.14 0 010 .45v.96a1.76 1.76 0 000 .33v5.18h2.57V8.49M0 2.47h3.82L3.93 13H6.5V8.8a1.12 1.12 0 000-.31v-.98c0-.26-.05-.67-.06-1a1.21 1.21 0 010-.19 1.33 1.33 0 000-.21v-.44a2.22 2.22 0 01.06-.45 1.09 1.09 0 000-.36 2.91 2.91 0 010-.42V2.42h3.82V.24H7.65a5 5 0 00-.55 0H5.28c-.26 0-.34-.02-.49-.02s-.41.05-.62.05H2.3C1.5.25.75.28 0 .29v2.14z" fill="#fff" data-name="Layer 1"/></g></svg></svg>