<svg width="243" height="210" xmlns="http://www.w3.org/2000/svg" xmlns:xlink="http://www.w3.org/1999/xlink"><svg width="189.05" height="87.19" viewBox="-1 -1 189.05 87.19" y="76.96" xmlns="http://www.w3.org/2000/svg"><g data-name="Layer 2"><g data-name="Layer 1" fill="#fff"><path d="M96.33 57.33v.05s-.09.07-.11.12a1.47 1.47 0 00-.08.3c0 .11 0 .22-.08.34a2.13 2.13 0 00-.08.27 1.6 1.6 0 01-.22.68c-.11.2-.25.38-.37.58s0 .18 0 .29a.52.52 0 01-.11.19.9.9 0 00-.22.39 1.91 1.91 0 01-.1.58c0 .07-.1.1-.13.16a2.3 2.3 0 01-.25.43 1.54 1.54 0 00-.19.17c0 .06 0 .14-.09.21s-.22.34-.32.51-.06.18-.12.28a1.15 1.15 0 00-.09.33 12.12 12.12 0 01-.42 1.29c-.16.45-.33.9-.5 1.35s-.28.7-.42 1a7.5 7.5 0 01-.37.93c-.07.12-.12.26-.18.39s-.17.29-.26.44a3.55 3.55 0 01-.23.43.47.47 0 00-.07.17.71.71 0 010 .21 1.47 1.47 0 00-.2.61 1.16 1.16 0 01-.07.37.61.61 0 000 .12.93.93 0 000 .23 1.22 1.22 0 01-.13.46 4.55 4.55 0 01-.26.55 1.2 1.2 0 00-.22.56c0 .38-.41.56-.58.85 0 .09-.08.19-.13.28a.45.45 0 00-.06.12 1.53 1.53 0 00-.15.44 1.56 1.56 0 01-.26.82 1.69 1.69 0 00-.22.39c-.06.18-.09.35-.16.53s-.16.21-.19.32a2 2 0 01-.07.23c-.07.13-.14.25-.2.38a2.49 2.49 0 01-.26.48s-.16.16-.15.21.45-.09.33.06h.14c0 .09-.16.11-.22.13a.77.77 0 00-.29.17 2.1 2.1 0 00-.33.65.52.52 0 00-.07.29h.07c0 .13-.11.15-.18.23a2.08 2.08 0 00-.32.69 2.15 2.15 0 00-.12.5c0 .16-.06.31-.08.48a.7.7 0 01-.18.41c-.09.1-.24.18-.29.31a.43.43 0 01-.2.28c-.08.06-.16.1-.2.18a1.35 1.35 0 01-.3.37 1 1 0 00-.24.26 1.78 1.78 0 01-.51.35c-.08 0-.06 0 0 .12s.24.25.33.35l.4.38.89.86.52.51s.16.2.21.2c2.27.15 3.85-3.86 4.61-5.39s10.59-25.87 12.38-29.87 6.74-17.27 11.56-28.64 5.16-16 4.74-17.41S117 .08 114 0s-7.57.66-31.3 13.41l-1 .56a6.27 6.27 0 01-.85.31c-.52.2-.75.89-1.18 1.22a1.81 1.81 0 01-1 .25 2.11 2.11 0 00-.83.32 12.34 12.34 0 00-1.2.62 5.07 5.07 0 00-.92.93 1.63 1.63 0 01-1.13.43 1.4 1.4 0 00-1 .64 2.45 2.45 0 01-.53.66 1.9 1.9 0 01-1.11.19 1.93 1.93 0 00-1.16.49c-.37.25-.76.42-1.14.63s-.4.39-.64.59a2.36 2.36 0 00-.57.44c-.44.6 0 1.15-.86 1.43a1.77 1.77 0 01-1 0c-.22-.06-.54-.26-.79-.16-.09 0-.13.17-.2.24a2.61 2.61 0 01-.88.67 6.32 6.32 0 00-1.34.49c-.3.19-.59.42-.89.62a6.86 6.86 0 00-1.38 1.15 5.33 5.33 0 01-1.38 1.07 9.48 9.48 0 00-1.27.82 1 1 0 01-1 .3c-.8-.1-.87.69-1.3 1.19-.24.27-.43.25-.75.28a1.1 1.1 0 00-.82.38 3.54 3.54 0 01-1.18.77 6.61 6.61 0 00-1.16.58c-1 .58-2 1.08-2.9 1.69-1.3.86-2.59 1.72-3.87 2.61l-1.22.84 13.18-2.83C61.21 31 78 21.18 93 13.17s21.37-8.85 22.48-8.82-.83 7.58-1.85 9.18-.21 1.6-.77 2.06a1.76 1.76 0 00-.4 1.44c-.83.75-.52 1.24-.74 1.79a12 12 0 00-1.11 2.81c-.19 1.15-1.45 2-1.45 2.81a5.43 5.43 0 01-.65 2.06c-.21.55.22.75-.24 1.17a18.32 18.32 0 00-2.19 4.87 21.61 21.61 0 01-2.1 5.23c-.83 1.43-.18 1.24-.55 1.79a10 10 0 00-.84 1.67 9.48 9.48 0 00-.38 1 3.71 3.71 0 00-.32 1 .51.51 0 01-.06.21 1.66 1.66 0 000 .28c0 .1-.09.12-.08.23a2.64 2.64 0 010 .28 1 1 0 01-.12.35c0 .13 0 .26-.11.38a1.57 1.57 0 01-.41.6 1.39 1.39 0 00-.36.56 4 4 0 00-.23.74c0 .21-.15.39-.17.6a1.82 1.82 0 01-.09.51 3.15 3.15 0 00-.26.56 2.49 2.49 0 01-.37 1.07 3.34 3.34 0 00-.32.33c-.06.09-.11.2-.16.29s-.15.24-.23.35-.09.1-.09.15v.06c0 .17-.1.31-.08.49.22 0-.12.37-.15.44l-.33.74c-.11.23-.28.43-.41.65-.24.39-.48.8-.7 1.21a8.69 8.69 0 00-.53 1.21 2.29 2.29 0 00-.1.23 1.41 1.41 0 000 .29.61.61 0 01-.08.3c0 .09-.11.25-.06.35s.07.06 0 .17a1.7 1.7 0 00-.09.24.66.66 0 010 .21zM58.48 30.21c-.09.06-.07.13-.07.13l-.2.23h-.4c-.17 0-.09-.1.09-.17s0-.13 0-.13l.05-.11c0-.11 0 0 .14 0h.14c.14 0 0 0 .18-.05s.15.05.07.1zm3.18-1.66c-.07.05-.1 0-.2 0h-.1l-.07.06-.06-.08s0-.14.13-.12a.44.44 0 01.21.06h.09s.08 0 0 .06zm.75-.69h-.18c-.05 0 0-.11 0-.11h.14zm.41-.34l-.1.07c-.1.07-.06 0-.08 0s0 0 0-.07h.26c.13 0 0 .07-.08.06zm18.72-9.89c-.08.05 0 0-.12 0s0-.05 0-.1.08 0 .11 0 0 .08 0 .08l-.07.05zm.77-.65h-.06v-.06a.07.07 0 01.09 0v.06zm.48-.45h-.12c-.06 0 0 0 0 0h.1c.03 0 0 0 0 0a.1.1 0 00.06 0 .17.17 0 01-.09 0zm9.85-6s0 .1-.13.11-.06.06-.13.09-.17-.13.06-.2.24 0 .2 0zm1.2-.71a1.56 1.56 0 01-.48.08c-.26 0 0 0-.08-.07s0-.08.08-.07.09-.05.27-.06.35.1.21.12z"/><path d="M7.15 65a1.75 1.75 0 00.52.55 7.35 7.35 0 001.85 1.07c1.75.48 3.76-1.65 5.06-2.71s2.76-2.24 4.16-3.33C22.32 57.75 26 55 29.65 52.35c6.1-4.42 12.3-8.68 18.56-12.85l25.27-4.23c8.59-1.43 28-3.76 31.53.27l.85-1.29S103 29.1 97.11 29.1 76 30.16 56.74 33.61s-36 7.14-41.51 8.12S8.71 43 5.82 43.32s-5 .29-5.82.91c0 0 0 .33.39.58s0 .58.55 1.28 1 .67 1.33 1.33.7.58 2.34.37a49.82 49.82 0 009.83-1.32c5-1.28 19.68-4.14 21.51-4.43C36 42 26.2 49 23 51.39c-2.43 1.88-4.85 3.79-7.27 5.7q-2.31 1.8-4.6 3.62c-1.4 1.12-2.8 2.69-4.49 3.29.26.43.34.74.51 1zm117.46-42.19c0 .76-.26.65.35.89s1.09.06 1.22-.48.87-2.11.74-2.68a5.55 5.55 0 00-2-2.59c-.77-.3-1.29-.2-2-.44s-.71 0-.61.75-.26 1.83.13 2.11a4.15 4.15 0 011.09 1l.38.71s.23.27.32.41.36-.07.39.3zM113 47.84c0 .13-.14.22-.15.35s-.11.26-.16.32a1.81 1.81 0 00-.18.37 1.29 1.29 0 00-.12.38 1.11 1.11 0 010 .19c0 .09-.11.15-.15.24a.22.22 0 000 .14v.07c0 .07-.06.1-.09.14s-.1.23-.17.35-.22.23-.06.3a2.31 2.31 0 01-.23.54c-.07.12-.26.3-.25.46s.06.09 0 .21-.17.19-.2.3 0 .08 0 .13-.18.26-.24.39a6 6 0 01-.35.61c-.08.12-.11.26-.18.39a2 2 0 01-.3.4 2.12 2.12 0 00-.29.48c0 .08-.15.23-.12.32s.07 0 .07.07-.1.24-.12.31a.88.88 0 01-.07.23c-.06.12-.31.31-.25.46a.42.42 0 010 .22s-.07.09-.09.15a.35.35 0 000 .11c0 .12-.11.23-.15.35a.88.88 0 000 .17 3.27 3.27 0 01-.13.54 7.2 7.2 0 01-.72 1.41c-.12.23-.19.48-.3.7s-.32.48-.45.73a5.14 5.14 0 00-.35.84c-.08.3-.11.62-.21.91s-.13.41-.21.61-.27.55-.39.83-.18.46-.3.69a7.46 7.46 0 00-.55 1.52c-.35 1.39-.64 1.83-.71 2.38s-.51 1-.39 1.49c0 .06 0 .18.08.23s.23 0 .23.13c.16 0 .21 0 .28.18s0 .13.07.19a4.46 4.46 0 00.41.56 4.58 4.58 0 00.34.43c.32.34.68.66 1 1 .77.82 1.5 0 1.89-.61s2-6.56 3-8.7 5.19-12.2 5.74-13.32 3.53-8.6 4.2-10.5a7.52 7.52 0 00.61-4.22c-.26-.95-1.76-1.7-3-2s-1.25.14-1.18.88a8 8 0 01-.69 2.31 2.86 2.86 0 00-.24 1.53c.11.38-.42.86-.84 1.56s-.14.88 0 1.2-.54.92-.69 1.46-.57.24-.7.69-.18.71-.29 1.07a7.92 7.92 0 01-.28.82c-.12.25-.33.44-.43.69v.17a.4.4 0 00.24 0c-.08.17.32 0 .32.21s-.11.18 0 .17c0 .16-.39.24-.5.31a1.33 1.33 0 00-.35.36 7.68 7.68 0 01-.5.63s-.07.18-.1.27a1.89 1.89 0 00-.13.52zm74-38.93c-.1-.56-.21-.37-.06-.81s-.28-.8-.43-1 0-.19-.13-.61-.25-.23-.62-.44 0-.31 0-.31c-.25-.77-2.63-2.77-4.46-3.59s-6.31-.39-7-.16-3.17.54-3.85.79a22.23 22.23 0 01-2.45.62c-.57.1-2.07.94-3 1.26a47.13 47.13 0 00-4.59 2.15 12.06 12.06 0 01-1.79 1.12c-.35 0-.44.37-.74.68s-.4.11-.65.19-.44.41.15.55-1.15 1-1.4 1.1-.27 0-.23-.35-.88.35-1.34.77a29.22 29.22 0 00-2.56 2.54c-.37.52.21 1-.15 1.1a4 4 0 00-1.34 1.28c-.18.35-.77.08-.87.47s-.6.77-1.08 1.21-.38-.06-.76.5a4.15 4.15 0 01-1 1.09c-.15.07-.15.35 0 .7s-.49.56-.79.7a.83.83 0 00-.49.65c0 .21-.15.19-.6.45s-.16.56-.4.74a13.13 13.13 0 00-1.61 1.82 16.36 16.36 0 00-.83 1.78 1.54 1.54 0 01-.46.58v.28a6.67 6.67 0 00-.55.82c-.06.19.46.32.3.4s-.55-.08-.61.46-.23.26-.48.4-2.81 3.76-3.21 4.32-1.91 3.33-2.19 3.84-.76.4-1 .7.21.28 0 .63-.64.49-.86 1.22-.31.74-.56 1 0 .71-.23.82 0 .56-.07.79-.28.07-.51.08-.28.39-.3.62a.9.9 0 01-.26.68.9.9 0 00-.38.72c0 .28-.2.84-.38.89s-.15 0-.45.65a2.2 2.2 0 01-.49.78s0 .37-.07.83-.2.59-.46.47-.36.38-.33.86a1 1 0 01-.4.92c-.28.25-.15 1-.2 1.4s-.23.13-.52.25-.37.88-.42 1.19-.15 0-.43.16 0 .38-.2.66a2.58 2.58 0 00-.47.81c-.14.42-.15.57-.29.73s-.06.39-.11.63 0 0-.25.39 0 .66-.28 1.07a1.33 1.33 0 00-.26.92c0 .3-.4.76-.73 1a5 5 0 00-.74 1.52c-.25.52.08.58-.25 1.07s-.08.77-.5 1.08-.51 1.3-.59 1.37-.08.43-.2.71a4.48 4.48 0 01-.4 1.23 4.61 4.61 0 00-.69 1.8c0 .46-.15.07-.17.42s.13.35-.32.9a2.57 2.57 0 00-.42 1c0 .18-.1.35-.14.53s0 .4-.07.61-.2.49-.26.75a.76.76 0 01-.11.26 1.39 1.39 0 00-.09.64v.46c0 .51-.17 1-.24 1.52a5 5 0 01-.56 1.79c-.45.95.28 1.61.73 2.2a7.32 7.32 0 011.24 2c.34.9 2.48.18 2.59-.24a16.45 16.45 0 00.34-2.5c0-.3.35-.83.35-1.14s.07-1.14.07-1.87.43-2.28.58-3.4a34.44 34.44 0 011.07-4c.2-.67 1.59-3.68 1.75-4.22s.48-1.33.52-1.42a11 11 0 00.39-1.12c.17-.58 1.46-3 1.6-3.34s1.06-2.38 1.29-2.77.33-1 .8-2 .41-.87.39-1-.06-.36.1-.5a3 3 0 00.46-1.14c.19-.6 3.28-5.79 3.49-6.3s.33-.51.5-.89.14-.7.29-1.09a7.43 7.43 0 011.14-1.47c.17-.14.15-.3.23-.47a1.08 1.08 0 00.12-.46 1.86 1.86 0 01.13-.54c.12-.31.28-.17.51-.4a6.93 6.93 0 00.75-1.33c.3-.56 1.42-2 1.78-2.71a23.37 23.37 0 011.52-2.49 26.61 26.61 0 002.12-2.92c.77-1.22 4.61-6.24 5.55-7.21a72.94 72.94 0 017-7.12 46.43 46.43 0 018-4.88 8.42 8.42 0 012.46-1.1c1.21-.25 6.26-2.4 10.23-2.59s4.21.26 4.41.43 0 1.4-.16 2-.8 1.92-.85 2.13-.28.21-.26.68.08.76-.23.9a1.92 1.92 0 00-.88.77c-.18.33 0 .77-.16 1s-.71.68-.71 1-.43.56-.62.94-.44.26-.71.28-.31.67-.44 1a3.81 3.81 0 01-.6.87s.45 0-.08.07-.81.7-1 .77-.25.51-.47.74-1.05.42-1.12.94a1.1 1.1 0 01-.79.93c-.3.05-1.47 1.43-1.79 1.78s-3.14 2.72-3.4 3a14.89 14.89 0 00-1.3 1.27c-.13.26-2.16 1.57-2.49 1.89a13.34 13.34 0 00-1.51 1.14 29 29 0 01-2.59 2.29 6.48 6.48 0 00-1.33 1 17.86 17.86 0 01-1.91 1.49 12.82 12.82 0 01-1.62 1.34c-.5.25-.83 1-1.37 1.18s-1.95 1.4-2.45 1.61-.41.29-.59.56-.35.29-.71.4a14.23 14.23 0 00-2.32 1.68c-.28.28-1.86 1.75-2.14 1.92a3.55 3.55 0 00-.86.67c-.2.26-.33 0-.47.35a1.4 1.4 0 01-.46.66c-.18.16-1 1-1.24 1.18s-1 1.31-1.27 1.34-.15.48-.36.65-.63 1-.91 1.26-.18.42-.18.68-.17.13-.33.42-.8 1.7-.91 1.93a2.22 2.22 0 00-.27.74c-.1.43-.18.22-.28.56s.1.38.25.43 0 .21 0 .28-.19.42 0 .56-.18.14-.33.56a5.17 5.17 0 00.3 1.82 4.21 4.21 0 01.33 1.28c0 .61.6 1 .76 1.51a4.52 4.52 0 00.6 1.43c.33.44.36.95.72 1.21s.37.24.4.68.36.42.46.63a11.42 11.42 0 001.72 2c.28.1.3.14.38.35s1.59 1.87 2.12 1.89-.1-.23.79.54 7.12 3.33 8.28 3.68 2.79.52 3.45.68a2.06 2.06 0 001.58-.19c.76-.28 1.61.47 2.65.64a24.08 24.08 0 005.17-.38c.35-.14.25-1.12.25-1.12h-1c-.48 0-.43-.35-1.34-.93s-4.15-.85-4.87-.84-4.17-.47-10-3.13-6.11-3.85-7.85-7.37.15-6.93 1.94-9.19 4.74-4.93 9.76-8.64 15-12 20.49-16.91a51.23 51.23 0 009.78-11.49A12.82 12.82 0 00187 8.91zm-22.71 63.67l.36-.15c.35-.15.24 0 .35.06s0 0 .1.19-.19.09-.33.19 0 .38-.18.36-.16-.14-.5-.46 0-.15.2-.19z"/></g></g></svg><svg width="242.92" height="49.02" viewBox="-1 -1 242.92 49.02" xmlns="http://www.w3.org/2000/svg"><g data-name="Layer 2"><g data-name="Layer 1" fill="#fff"><path d="M222.24 1.2h-17.71c-.39 0-.75.05-1.12.06s-.58 0-.87-.05a27.48 27.48 0 00-2.87 0h-10.21c-.56 0-1.12 0-1.68.06a3.65 3.65 0 01-.47 0 10.31 10.31 0 00-1.31-.03h-1.4l-.72.05a3.85 3.85 0 01-.48 0 7.91 7.91 0 00-1.82 0 4.57 4.57 0 01-.64 0h-2.4c-1-.05-2 .06-2.95 0a11.89 11.89 0 00-1.19 0H93.96a5.14 5.14 0 01-.88-.05 5.88 5.88 0 00-1.11 0c-.4 0-.8.07-1.2.07H67.99c-.8 0-1.65-.05-2.47 0s-1.6 0-2.4 0H58a7.74 7.74 0 00-2.15 0c-.71-.1-1.43 0-2.15-.08a2.69 2.69 0 00-.63 0 3.86 3.86 0 01-1 0 12.92 12.92 0 00-2.78 0 2.61 2.61 0 01-.56 0 12 12 0 00-2.54 0h-1.28a3.68 3.68 0 00-.47 0 4.76 4.76 0 01-1.36 0 3.87 3.87 0 00-1.27 0 4.16 4.16 0 01-1.27 0 1.79 1.79 0 00-.4 0h-1.43c-.56 0-1.12.05-1.68 0-.82.09-1.64 0-2.47 0h-2.28c-1.12 0-2.23-.06-3.35 0h-.33a14.39 14.39 0 00-2.86 0 5.34 5.34 0 01-1.44 0 3.24 3.24 0 00-1 0 1.15 1.15 0 01-.32 0 24.51 24.51 0 00-2.71 0H5.21c-1.17 0-2.34.14-3.51.08-.48 0-.95-.07-1.43-.12A.25.25 0 010 1 .39.39 0 01.37.48C.58.46.8.45 1 .45h3.51a6.73 6.73 0 001.2-.04 2.91 2.91 0 01.72 0h2.43a7.81 7.81 0 011.28 0 11.93 11.93 0 002.07 0 2.53 2.53 0 01.55 0 4.4 4.4 0 001 0 2.83 2.83 0 01.71 0 3.57 3.57 0 00.8 0 6 6 0 011 0 6.74 6.74 0 001.27 0 .64.64 0 01.24 0 3.4 3.4 0 001.19 0 4.33 4.33 0 01.72 0h.95a4.33 4.33 0 01.72 0 8.57 8.57 0 001.43.07h.64a3.73 3.73 0 01.47 0 12 12 0 002.47 0 4.31 4.31 0 01.88 0A5.88 5.88 0 0028.7.4a2 2 0 01.55 0 14.87 14.87 0 002 .08h1.59a13.69 13.69 0 012.79 0c.9-.06 1.8 0 2.71 0h4.31c.55 0 1.11-.06 1.67 0s1.11 0 1.67 0a2.21 2.21 0 00.63-.08.69.69 0 01.61 0 .47.47 0 00.31 0 4.65 4.65 0 011.12 0h1.27A9 9 0 0052 .38a3.24 3.24 0 011 0 15.93 15.93 0 002.1.09 2 2 0 00.48 0 2.6 2.6 0 011.11 0A6.76 6.76 0 0058 .49h4.63L64 .45h.72a3.87 3.87 0 00.48 0 6.09 6.09 0 011.35 0h.79a8.51 8.51 0 001.45-.08 8.44 8.44 0 012.07 0l.56.05A12.05 12.05 0 0173 .44a2.6 2.6 0 00.39 0 2.1 2.1 0 01.56 0 2.12 2.12 0 00.71 0 9 9 0 012.07 0 5.71 5.71 0 001.75 0 1.26 1.26 0 01.47 0 2.33 2.33 0 00.79 0 7.18 7.18 0 01.8-.06h42.54a3.73 3.73 0 01.47 0 8.28 8.28 0 002 0 2.11 2.11 0 01.56 0 9.41 9.41 0 001.59.07h4.71a5.78 5.78 0 00.72 0 3.44 3.44 0 011.11 0 1.24 1.24 0 00.47 0 2.31 2.31 0 01.87 0 .31.31 0 00.16 0 10.33 10.33 0 011.67 0l1.76-.08h.39c1 .1 1.91-.06 2.87 0l1.11.07h.32c.93-.07 1.86.07 2.79 0s1.91 0 2.87 0h7.82c.66.12 1.32 0 2 0h1.59c.93.06 1.86 0 2.79 0h2.15a12.21 12.21 0 011.35.07 13.68 13.68 0 001.92 0 1.3 1.3 0 01.39 0 6.93 6.93 0 001.51 0h1.52a12.79 12.79 0 012.23.06 2.42 2.42 0 00.71 0 3.09 3.09 0 011 0 2.33 2.33 0 00.79 0 5.23 5.23 0 01.79 0h5.35a4.58 4.58 0 001.11 0 2.57 2.57 0 01.48 0h18.51a5.36 5.36 0 00.8 0 3.75 3.75 0 011.11 0 6.22 6.22 0 001.67 0 .89.89 0 01.32 0 6.92 6.92 0 001.51 0 6 6 0 011.27.06 2.39 2.39 0 00.8 0 6.36 6.36 0 01.87-.06h13.26c.69 0 1.39.07 2.07 0s1.39 0 2.08 0h2.23c.64 0 1.27 0 1.91.06a5.19 5.19 0 00.56 0 14.48 14.48 0 012.55 0h.24a15.28 15.28 0 011.91.05.81.81 0 00.31 0 7.61 7.61 0 011.35 0 .67.67 0 01.24 0 .48.48 0 01.32.43.47.47 0 01-.26.48 1.91 1.91 0 01-.78.16h-17.63zM7.08 7.48h4.22L18.38 29h-4.24l-1.35-4.57H5.54L4.22 29H.08zm-.59 13.6h5.31l-1.8-6.2c-.33-1.14-.81-3.31-.81-3.31h-.06s-.5 2.17-.84 3.31zm13.6-13.6h4.08V29h-4.08zm7.2 0h9.22c3.87 0 6.46 2.4 6.46 6 0 2.52-1.1 4.45-3.68 5.2v.09c1.85.57 2.81 1.72 3.06 4.34.28 3 .17 5.35.87 5.68V29h-3.9c-.51-.24-.57-2.64-.73-5s-1.41-3.67-3.94-3.67h-3.29V29h-4.07zM31.36 17h4.33c2.22 0 3.31-1.25 3.31-3a2.87 2.87 0 00-3.21-3h-4.43zm26.98-9.52h5.73l2.84 10.8c.71 2.71 1.27 5.81 1.27 5.81s.54-3.1 1.24-5.81l2.84-10.8h5.81V29h-3.74V16.66c0-1.75.17-4.46.17-4.46h-.06s-.45 2.53-.87 4.09L70.12 29h-3.91l-3.37-12.7c-.42-1.57-.84-4.1-.84-4.1h-.06s.17 2.71.17 4.46V29h-3.77zm28.41 0H91L98.05 29h-4.24l-1.35-4.57h-7.25L83.89 29h-4.13zm-.59 13.6h5.32l-1.8-6.2c-.34-1.14-.82-3.31-.82-3.31s-.51 2.17-.85 3.31zm18.75-3.34l-6-10.26h4.58l3.71 6.8 3.8-6.8h4.44l-5.9 10.23L116.15 29h-4.75l-4.1-7.85h-.06L103.08 29h-4.66zm24.42-10.26h4.27l3.55 12.46c.39 1.41.87 3.43.87 3.43s.48-2.05.87-3.43l3.52-12.46h4.13L139.81 29h-3.7zm18.86 0H163v3.67h-10.7V16h9.38v3.58h-9.38v5.81h10.79V29h-14.9zm17.4 0h9.21c3.88 0 6.47 2.4 6.47 6 0 2.52-1.1 4.45-3.68 5.2v.09c1.85.57 2.81 1.72 3.06 4.34.28 3 .17 5.35.87 5.68V29h-3.91c-.5-.24-.56-2.64-.73-5s-1.4-3.67-3.93-3.67h-3.29V29h-4.07zm4.07 9.52H174c2.22 0 3.31-1.24 3.31-2.95a2.86 2.86 0 00-3.2-3h-4.44zM183 18.28c0-6.44 3.77-11.22 9.7-11.22s9.66 4.78 9.66 11.22-3.73 11.2-9.66 11.2-9.7-4.76-9.7-11.2zm15.2 0c0-4.3-1.79-7.64-5.48-7.64s-5.56 3.34-5.56 7.64 1.88 7.61 5.56 7.61 5.49-3.34 5.49-7.61zm6.4-10.8h4.13l6.68 12c.65 1.18 1.41 3 1.41 3h.06s-.12-2.22-.12-3.73V7.48h4V29h-3.93L210 17.11c-.65-1.15-1.43-3-1.43-3h-.06s.11 2.25.11 3.76V29h-4zm24.81 0h4.22L240.71 29h-4.25l-1.34-4.57h-7.25L226.54 29h-4.13zm-.59 13.6h5.31l-1.8-6.2c-.33-1.14-.81-3.31-.81-3.31h-.06s-.5 2.17-.84 3.31zm12.09 13.99a.54.54 0 00-.45-.46 1.12 1.12 0 00-.32 0 14.44 14.44 0 00-1.86 0 1.54 1.54 0 01-.43 0 23.09 23.09 0 00-2.63 0h-.33a25.7 25.7 0 00-3.51 0 6.42 6.42 0 01-.76 0c-.88 0-1.76-.07-2.63-.06h-12.4c-.62 0-1.39-.05-2.08-.05h-12.63c-.4 0-.81 0-1.21.06a4.42 4.42 0 01-1.09 0 10.25 10.25 0 00-1.75-.07 13.12 13.12 0 01-2.08 0 1.56 1.56 0 00-.43 0 10.4 10.4 0 01-2.3 0 8.8 8.8 0 00-1.54 0 8 8 0 01-1.09 0h-25.51a4.79 4.79 0 00-.66 0 8.69 8.69 0 01-1.53 0h-8.46a4.41 4.41 0 01-1.09 0 5.23 5.23 0 00-1.31 0 4.59 4.59 0 01-1 0 24.21 24.21 0 00-3.07-.07h-2.09a11.93 11.93 0 01-2.07 0 2.53 2.53 0 00-.55 0 23.08 23.08 0 01-2.63 0c-.62 0-1.25-.09-1.86-.08h-3c-1.28 0-2.56.11-3.84.05h-2.2c-.91-.07-1.83.07-2.74 0a1.48 1.48 0 00-.21 0l-2.86.05h-11.66c-1.32 0-2.56-.1-3.84 0a3.11 3.11 0 01-.43 0l-1.54-.07c-1.31-.06-2.63.11-3.94 0a3.38 3.38 0 00-.55 0c-.8 0-1.61.06-2.41.07a22.06 22.06 0 00-2.3 0 .82.82 0 01-.22 0 3.72 3.72 0 00-1.2 0 2.36 2.36 0 01-.65 0 5.6 5.6 0 00-1.53 0h-7.47a17.91 17.91 0 01-2.2-.07 3.22 3.22 0 00-.76 0 15.67 15.67 0 01-2.74 0h-.66c-.69 0-1.39.06-2.08.06H53.24c-2.15 0-4.31-.06-6.47 0H26.15c-1 0-2-.05-3 0s-2 0-3 0a9.81 9.81 0 00-1.09.07 5.06 5.06 0 01-1.1 0 2 2 0 00-.65 0 10.14 10.14 0 01-2.4 0 17 17 0 00-2.85 0 3.57 3.57 0 01-1 0 4.82 4.82 0 00-.76 0 3.51 3.51 0 01-.55.05c-.73-.08-1.46 0-2.19 0a6.47 6.47 0 01-.76 0 16 16 0 00-2.85 0 16.14 16.14 0 01-2 .07l-.95.29a4.16 4.16 0 00-.61 0 .71.71 0 00-.26.06.39.39 0 00-.11.17v.15H0a.84.84 0 010 .35c0 .1 0 .2.11.26a1.07 1.07 0 00.44 0H34.3c.55 0 1.1 0 1.64-.07a11.32 11.32 0 011.54 0 8 8 0 001.2.06h110.7c.55 0 1.1-.07 1.65 0 1.35.08 2.7 0 4.05 0h3.3a8.63 8.63 0 00.88 0 15 15 0 012.51 0h3.53a14.45 14.45 0 011.86.05h.66l2.3-.07h14.06c1.31-.07 2.63-.07 3.94 0 .4 0 .81.06 1.21 0s1-.06 1.53-.07 1.1 0 1.64 0h1.1c2.63.08 5.27.08 7.9 0 .85 0 1.69-.07 2.53 0 1.1.07 2.19 0 3.29 0h32.14a3.47 3.47 0 001.07-.16.51.51 0 00.36-.5zm-76.04 5.47h.65l2.9 4.46c.32.48.63 1 .63 1v-5.46h.56v6.36H169l-2.89-4.41c-.29-.45-.66-1.08-.66-1.08v5.49h-.57zm5.92 0h.59v6.36h-.59zm1.75 0h.59v3.39l3.41-3.39h.77l-2.64 2.59 2.8 3.77h-.71l-2.5-3.36-1.13 1.12v2.24h-.59zm5.52 0h4.29v.53h-3.7v2.28H182v.52h-3.39v2.48h3.8v.55h-4.39zm6.24 4.3h.59a1.73 1.73 0 002 1.68c.92 0 1.61-.48 1.61-1.34s-.59-1.11-1.94-1.38c-1.17-.24-2-.59-2-1.7s.85-1.68 2.11-1.68a2 2 0 012.23 1.86h-.58a1.48 1.48 0 00-1.64-1.36c-1 0-1.54.46-1.54 1.16s.58 1 1.71 1.2 2.24.54 2.24 1.88c0 1.12-.9 1.85-2.22 1.85a2.26 2.26 0 01-2.57-2.17zm5.64-4.3h2.49a1.93 1.93 0 011.48.55 1.76 1.76 0 01.44 1.23c0 1.17-.68 1.81-2 1.81h-1.81v2.77h-.6zm2.36 3.09c1 0 1.45-.49 1.45-1.29s-.49-1.27-1.4-1.27h-1.81v2.56zm2.57.09c0-1.9 1.15-3.31 2.93-3.31a3 3 0 012.95 3.31 3 3 0 11-5.88 0zm5.26 0c0-1.54-.81-2.78-2.33-2.78s-2.31 1.24-2.31 2.78.8 2.77 2.31 2.77 2.33-1.24 2.33-2.77zm1.5-3.18h2.81a1.62 1.62 0 011.8 1.72 1.45 1.45 0 01-1.06 1.53c.65.23.86.71.91 1.69s.16 1.28.27 1.36h-.64c-.14-.1-.17-.34-.22-1.42s-.44-1.42-1.36-1.42h-1.92v2.9h-.59zm2.61 3c.92 0 1.39-.46 1.39-1.25s-.36-1.24-1.31-1.24h-2.1v2.49zm4.61-2.46h-2.14v-.54h4.86v.54h-2.13v5.82h-.59zm2.91 3.76h.59a1.74 1.74 0 002 1.68c.93 0 1.62-.48 1.62-1.34s-.6-1.11-1.95-1.38c-1.16-.24-2-.59-2-1.7s.84-1.68 2.11-1.68a2 2 0 012.22 1.86h-.57a1.49 1.49 0 00-1.64-1.36c-1 0-1.55.46-1.55 1.16s.58 1 1.71 1.2 2.25.54 2.25 1.88c0 1.12-.9 1.85-2.23 1.85a2.26 2.26 0 01-2.56-2.17zm5.01-4.3h.61l1.1 4.29c.12.47.29 1.25.29 1.25s.17-.76.3-1.22l1.15-4.32h.64l1.14 4.31c.12.46.3 1.23.3 1.23l.29-1.25 1.11-4.29h.59l-1.71 6.36H222l-1.2-4.63c-.12-.4-.25-1-.25-1s-.13.62-.24 1l-1.23 4.63h-.63zm8.23 0h4.29v.53h-3.7v2.28H229v.52h-3.39v2.48h3.79v.55H225zm7.21 0h.67l2.4 6.36h-.64l-.73-2h-2.74l-.75 2h-.6zm1.52 3.87l-.86-2.41c-.13-.36-.32-.93-.32-.93s-.16.54-.31.93l-.88 2.37zm2.19-3.87h2.81a1.61 1.61 0 011.79 1.72 1.44 1.44 0 01-1.06 1.53c.66.23.87.71.91 1.69s.16 1.28.28 1.36H240c-.14-.1-.18-.34-.23-1.42s-.43-1.42-1.35-1.42h-1.92v2.9h-.59zm2.61 3c.92 0 1.38-.46 1.38-1.25s-.35-1.24-1.3-1.24h-2.1v2.49zm-151.26.62c.82-.5 1.39-.8 1.39-1.69a1.21 1.21 0 00-1.31-1.3 1.32 1.32 0 00-1 .39 1.75 1.75 0 00-.38 1.2h-.59a2.06 2.06 0 01.54-1.52 2 2 0 011.47-.56 1.73 1.73 0 011.85 1.77c0 1.22-.86 1.65-1.76 2.18-.69.42-1.46.89-1.58 1.74h3.26v.53h-3.92c.03-1.57 1.08-2.16 2.03-2.74zm2.61-.31c0-2 .88-3.17 2.25-3.17s2.23 1.18 2.23 3.17S93.57 47 92.12 47s-2.24-1.21-2.24-3.15zm3.89 0c0-1.64-.58-2.69-1.64-2.69s-1.65 1-1.65 2.69.57 2.68 1.65 2.68 1.64-1.01 1.64-2.68zm3.23.31c.82-.5 1.38-.8 1.38-1.69a1.2 1.2 0 00-1.3-1.3 1.35 1.35 0 00-1 .39 1.75 1.75 0 00-.38 1.2h-.58a1.9 1.9 0 012-2.08A1.73 1.73 0 0199 42.45c0 1.22-.86 1.65-1.75 2.18-.7.42-1.47.89-1.59 1.74h3.24v.53H95c0-1.57 1.05-2.16 2-2.74zm2.62-.31c0-2 .87-3.17 2.24-3.17s2.23 1.18 2.23 3.17-.79 3.15-2.24 3.15-2.23-1.21-2.23-3.15zm3.88 0c0-1.64-.57-2.69-1.64-2.69s-1.65 1-1.65 2.69.57 2.68 1.65 2.68 1.64-1.01 1.64-2.68zM5.91 40.6a6 6 0 00-5.91 6 .21.21 0 00.2.21h3.27a.21.21 0 00.2-.21 2.25 2.25 0 114.49 0 .21.21 0 00.2.21h3.26a.21.21 0 00.21-.21 6 6 0 00-5.92-6m9.79.4h-3.26a.2.2 0 00-.2.2v5.34a.21.21 0 00.2.21h3.26a.21.21 0 00.21-.21v-5.32a.2.2 0 00-.21-.2m6.53-.42a6 6 0 00-5.92 6 .22.22 0 00.21.21h3.26a.22.22 0 00.21-.21 2.25 2.25 0 012.24-2.26.2.2 0 00.2-.2v-3.33a.21.21 0 00-.2-.21"/><path d="M132.43 36.63c-.05.85.08 1.7.09 2.55s0 1.46 0 2.19v5.4h.89a2.48 2.48 0 000-.27 1.61 1.61 0 010-.58 1.46 1.46 0 000-.51 2.06 2.06 0 010-.7 1.79 1.79 0 000-.4 5.79 5.79 0 010-1.5 4.13 4.13 0 000-.93v-1.74a1.84 1.84 0 000-.52 3.21 3.21 0 01-.08-.87v-2.54a3.71 3.71 0 000-.47c0-.2-.24-.3-.55-.25-.13 0-.23.07-.24.15-.05.34-.1.69-.13 1zm-76.56 0c-.06.85.07 1.7.09 2.55s0 1.46 0 2.19v5.4h.9v-.27a1.88 1.88 0 010-.58 1.47 1.47 0 000-.51 2.35 2.35 0 010-.7 1.34 1.34 0 000-.4 5.79 5.79 0 010-1.5 4.13 4.13 0 000-.93v-1.74a1.53 1.53 0 000-.52 3.2 3.2 0 01-.07-.87v-2.54a3.7 3.7 0 000-.47c0-.2-.25-.3-.56-.25-.13 0-.23.07-.24.15-.05.34-.1.69-.12 1z"/></g></g></svg><svg width="164.41" height="18.84" viewBox="-1 -1 326.81 35.69" y="164.15" xmlns="http://www.w3.org/2000/svg"><path data-name="CÓMPRALAS AQUÍ" d="M12.69 32.174c3.62 0 6.25-1 8.22-2.908A10.121 10.121 0 0024 22.694h-6.36a4.716 4.716 0 01-4.99 4.273c-3.8 0-6.17-3.411-6.17-8.115 0-4.668 1.97-8.151 6.14-8.151a4.632 4.632 0 014.84 4.057h6.36a10.081 10.081 0 00-3.84-7.074 11.962 11.962 0 00-7.33-2.262C5 5.422.01 11.203.01 18.852c0 7.684 5.14 13.322 12.68 13.322zM36.26 4.668h4.45L44.52 0H37.8zm2.4 22.371c-4.13 0-6.24-3.555-6.24-8.223s2.11-8.259 6.24-8.259c4.17 0 6.22 3.591 6.22 8.259s-2.05 8.223-6.22 8.223zm-.03 5.171c7.79 0 12.71-5.709 12.71-13.394S46.42 5.422 38.63 5.422c-7.76 0-12.68 5.709-12.68 13.394S30.87 32.21 38.63 32.21zm15.92-.61h5.71V18.708c0-1.041-.11-5.171-.11-5.171h.07s.9 3.879 1.19 4.812L65.07 31.6h5.25l3.69-13.287c.29-.933 1.19-4.776 1.19-4.776h.07s-.11 4.094-.11 5.135V31.6h5.82V5.925h-8.62L69.2 17.164c-.43 1.616-1.43 5.853-1.43 5.853h-.08s-1-4.237-1.47-5.853L63.1 5.925h-8.55V31.6zm30.68 0h6.47v-8.583h5.99c5.28 0 8.69-3.483 8.69-8.4a8.434 8.434 0 00-2.58-6.32c-1.58-1.509-3.88-2.37-7-2.37H85.23v25.675zm6.47-13.61v-6.715h4.7c2.26 0 3.59 1.257 3.59 3.3a3.237 3.237 0 01-3.59 3.411h-4.7zm17.68 13.61h6.35v-9.624h3.85c2.73 0 3.95 1.293 4.27 3.663.39 2.549.29 5.566.97 5.961H131v-.324c-.9-.323-.54-3.555-1.08-6.93a5.144 5.144 0 00-3.74-4.7v-.112a6.154 6.154 0 004.46-6.212c0-4.776-3.88-7.4-8.98-7.4h-12.28v25.675zm6.35-14.328v-6.32h4.92c2.45 0 3.67 1.329 3.67 3.2 0 1.939-1.3 3.124-3.81 3.124h-4.78zM132.41 31.6h6.39l1.47-4.633h8.98l1.51 4.633h6.68l-9.27-25.675h-6.53zm9.34-9.193l1.97-6.212c.43-1.329 1.04-3.627 1.04-3.627h.07s.58 2.3 1.01 3.627l1.94 6.212h-6.03zm18.22 9.193h17.88v-5.387h-11.53V5.925h-6.35V31.6zm19.22 0h6.39l1.47-4.633h8.98l1.51 4.633h6.68l-9.27-25.675h-6.53zm9.33-9.193l1.98-6.212c.43-1.329 1.04-3.627 1.04-3.627h.07s.58 2.3 1.01 3.627l1.94 6.212h-6.04zm28.46 9.8c5.92 0 10.52-2.98 10.52-8.367 0-5.494-4.31-6.966-9.09-8.079-3.84-.862-5.81-1.293-5.81-3.088 0-1.437 1.47-2.406 3.7-2.406 2.37 0 3.87 1.113 4.13 3.088h6.21c-.25-5.387-4.56-7.9-10.13-7.9-5.74 0-10.2 2.406-10.2 7.9 0 5.386 4.71 6.751 9.16 7.792 3.52.862 5.6 1.293 5.6 3.34 0 1.939-2.05 2.693-4.13 2.693-3.05 0-4.74-1.077-5.03-3.663h-6.39c.15 5.677 4.64 8.693 11.46 8.693zm18.33-.61h6.39l1.47-4.633h8.98l1.51 4.633h6.68l-9.27-25.675h-6.53zm9.33-9.193l1.98-6.212c.43-1.329 1.04-3.627 1.04-3.627h.07s.58 2.3 1.01 3.627l1.94 6.212h-6.04zm29.86 4.632c-4.13 0-6.21-3.555-6.21-8.223s2.08-8.259 6.21-8.259c4.16 0 6.17 3.591 6.17 8.259a11.407 11.407 0 01-.89 4.74l-2.37-2.262-2.95 3.052 2.34 2.262a5.857 5.857 0 01-2.3.434zm9.66 6.643l2.94-3.124-2.91-2.729a14.043 14.043 0 002.95-9.013c0-7.685-4.89-13.394-12.68-13.394-7.75 0-12.64 5.709-12.64 13.394s4.89 13.394 12.64 13.394a12.911 12.911 0 006.47-1.616zm16.78-1.616c7.15 0 10.7-3.59 10.7-9.515V5.925h-6.35v16.733c0 2.514-1.4 4.309-4.35 4.309-3.12 0-4.41-1.687-4.41-4.2V5.925h-6.36v16.626c0 5.996 3.59 9.515 10.77 9.515zm14.81-.466h6.36V5.925h-6.36V31.6zm.79-26.932h4.45l3.81-4.668h-6.72z" fill="#fff" fill-rule="evenodd"/></svg><svg width="38.09" height="26.26" viewBox="-1 -1 38.09 26.26" x="189.05" y="76.96" xmlns="http://www.w3.org/2000/svg"><g data-name="Layer 2"><path d="M10.9 9.42H8.55l.19-4.21-1.59 4.2H4.8L8.3 0h2.56l-.3 4 1.49-4h2.27L10.9 9.42zm.52 0h2.34L17.18 0h-2.27l-3.49 9.4zm14-1l10.7-2.65L8.44 17.15c-2.48 1-5.8 1.65-7.73-.62A3.69 3.69 0 01.21 13C1 10.21 2.9 8.08 4.76 6c-1 1.94-1.73 4.68.43 6.23a3.6 3.6 0 003 .48l13.1-3.27H18V6a.45.45 0 00-.1.17l-1.27 3.26h-2.38L17.75 0h2.32l-.9 2.49L21.31 0 28 .05l-.66 1.74h-2l-.7 1.88h2.06L26 5.31h-2l-.85 2.25h2.59l-.32.86zM20.11 9L23.29.43l-3.39 4L20.11 9zM5.7 23.43l-.37.82h-.44l1.56-3.37L8 24.25h-.43l-.37-.81zm.75-1.67l-.58 1.31H7l-.58-1.31zm10.4-.76h-.4v3.23h.41V21zm10.82 3.24h-.5l-1-1.37H26v1.37h-.4V21h.49a1.69 1.69 0 01.86.15.91.91 0 01-.35 1.67l1 1.41zM26 22.56h.13c.42 0 .87-.08.87-.59s-.48-.58-.89-.58H26v1.17z" fill="#fff" data-name="Layer 1"/></g></svg><svg width="205.97" height="27.94" viewBox="-1 -1 205.97 27.94" y="49.02" xmlns="http://www.w3.org/2000/svg"><g data-name="Layer 2"><path d="M79.73 25.28l4.87-.05-.09-10 10.49-.1v-4.2h-.63c-.11 0-.2.06-.31.06s-.32-.07-.49-.07h-.83c-.28 0-.51.06-.77.07s-.46 0-.68 0-.37.06-.57.06h-.76a2 2 0 00-.43-.06 8.26 8.26 0 01-1 .06h-3.97V5.23h5.86a5.87 5.87 0 00.84 0c.22 0 .62-.29.83-.19s.15.19.32.24a2.35 2.35 0 00.7 0c.19 0 .23-.22.46-.19s.21.15.35.19c.22 0 3-.1 3-.1V1.02l-17.2.15v2.71l.06 6.45c0 1.2.2 2.32.2 3.52v.91c0 .3.16.57.17.88a4.06 4.06 0 01-.34 1.38 2.39 2.39 0 000 1c0 .17.13.1.1.36a5.2 5.2 0 00-.12.87v6.12zm29.22.14c6.15-.05 9.28-3.09 9.24-8.26V6.96c0-.16-.06-.31-.07-.47a2.72 2.72 0 01.1-.46c0-.34-.1-.66-.06-1s0-.43 0-.63a4.93 4.93 0 000-.54V.75h-4.88v5.4a9.46 9.46 0 00.1 2.06 2.33 2.33 0 01.1.44 2 2 0 01-.07.41 1.45 1.45 0 00-.06.3v.3a2.21 2.21 0 010 .63 3 3 0 000 1.08 8 8 0 010 1v4.74c0 2.51-1.41 4.34-4.5 4.37-3.26 0-4.52-1.72-4.54-4.22L104.14.87l-4.87.05v8.6c0 .13.1.27.13.41a3 3 0 010 1.26 4 4 0 00-.09.5 2.42 2.42 0 000 .66v4.97c0 5.25 3.33 8.16 9.54 8.1zm11.38-20.56l7.22-.06v1.89a2.55 2.55 0 01.06.73c0 .23-.07.47-.09.71s0 .49 0 .74v15.97h4.87l-.18-20.06h1.17c.15 0 .25-.09.41-.09a4.3 4.3 0 00.62 0h.5c.53 0 1.05.07 1.58.07h3.13V.63l-19.32.1v4.13zm31.21 20.19c6.15-.05 9.28-3.09 9.24-8.27l-.15-16.4h-4.87v3.01a6.18 6.18 0 01.06 1.14 12.48 12.48 0 000 1.5v4.27c.05 1.51 0 3 0 4.53v1.93c0 2.5-1.41 4.34-4.5 4.37-3.26 0-4.52-1.72-4.54-4.23L146.73.5h-4.87v6.35a20 20 0 00.14 2.52v.3a8.37 8.37 0 01.05 1 4.56 4.56 0 010 .64 1.3 1.3 0 000 .44 1.15 1.15 0 010 .19v2.46a5.62 5.62 0 010 1.16 1.53 1.53 0 00-.07.36V17c.05 5.24 3.33 8.16 9.54 8.1zM169 4.26h5.31c2.59 0 3.84 1.42 3.86 3.38s-1.28 3.32-3.94 3.35h-5.17v-.23c0-.92-.05-1.84-.07-2.77V4.26zm-4.69 20.27h4.87l-.09-9.71h3.93c3 0 4.52 1.45 4.74 4.08s.32 5.31.92 5.58l4.67-.05v-.23a2.35 2.35 0 01-.21-.16 1.27 1.27 0 01-.18-.29 3.45 3.45 0 01-.24-.89c-.16-.94-.2-1.9-.27-2.85 0-.29-.06-.57-.08-.86a8.42 8.42 0 00-.14-1 2.67 2.67 0 01-.08-.48 2 2 0 00-.1-.68c0-.12 0-.26-.08-.37a1.49 1.49 0 00-.15-.2.49.49 0 01-.08-.29 2.25 2.25 0 000-.26.54.54 0 00-.09-.31c-.11-.13-.05-.24-.11-.38a3 3 0 00-.51-.76 4.2 4.2 0 00-1.43-1.07 6.25 6.25 0 00-1-.38v-.17a5.56 5.56 0 004.35-5.89c0-4-3.15-6.7-7.78-6.66l-11 .1v8.47c0 1.13 0 2.27.08 3.38v.64a6.24 6.24 0 01.13 1.43c0 .26-.08.52-.11.77s0 .53 0 .78-.07.59-.07.89a10 10 0 01.08 1.22 10.26 10.26 0 000 1.24v5.35zm21.86-.19l17.83-.16v-4.09l-13 .11v-6.52h2.71a2.8 2.8 0 00.29 0c.33 0 .65-.07 1-.07a6.78 6.78 0 01.9 0c.22 0 .4.06.62.06h3.2c.21 0 2.57-.06 2.57 0v-4L191 9.65V4.24h4.56a1.7 1.7 0 01.31-.06h2.51a3.87 3.87 0 00.48 0c.21 0 .43.09.64.07s.32-.08.49-.1.45 0 .67-.06a2.27 2.27 0 01.52 0 7.49 7.49 0 00.82 0h1.7V-.04L186 .15v12.56c0 .23.09.43.09.66a4 4 0 010 .49 12.79 12.79 0 000 1.75v1.2a2.77 2.77 0 000 .3v.63a.5.5 0 010 .13 1 1 0 010 .25v.71a5.16 5.16 0 00-.06.79v.28c0 .09-.13.4-.12.61s.07.31.07.49v3.07M49.37 21.74l.06-6.53 11.22.1v-4l-11.22-.1V5.8l12.8.11V1.79h-7.38l-.41-.06h-9.77v7.86a1.85 1.85 0 000 .23v5.06a8.22 8.22 0 010 .86v10.04l17.77.15v-4.09h-3.55c-.4 0-.49.07-.75.07H55.8c-.46 0-.92-.06-1.38-.07h-.83a5.43 5.43 0 00-.57 0 .76.76 0 00-.21 0 .42.42 0 01-.2.05h-3.02m-28 3.85h4.87L26.55 15l9.44.09-.09 10.62h4.87L41 1.57h-4.87v4.24a4.3 4.3 0 010 .72 2.89 2.89 0 000 .59v1a3.23 3.23 0 010 .88 4 4 0 000 1v1l-9.44-.08.08-9.48H21.9v6.18c0 .18.05.36.05.55a4.51 4.51 0 000 .52 3.64 3.64 0 010 .57v2.45M7.05 25.46h4.87l.17-20.06 7.22.07V1.34h-3.42a7.48 7.48 0 01-.82 0h-.58a3.57 3.57 0 00-.47 0h-1.87L9 1.29H0v4.05l7.22.06v3.23a1.28 1.28 0 000 .27 2.25 2.25 0 010 .26v7.4a2.69 2.69 0 000 .4 1.7 1.7 0 010 .39v.26c0 .09 0 .1-.06.17a1.72 1.72 0 000 .6v7.07" data-name="Layer 1" fill="#fff"/></g></svg><svg width="29.31" height="27.17" viewBox="-1 -1 29.31 27.17" x="189.05" y="103.22" xmlns="http://www.w3.org/2000/svg"><g data-name="Layer 2"><path d="M17.9 25.17h.38a13.81 13.81 0 001.57-.11 10.31 10.31 0 001.47-.28 10.59 10.59 0 001.35-.43 9.59 9.59 0 001.2-.6 7 7 0 001-.75 6.24 6.24 0 00.88-.9 6.55 6.55 0 00.69-1.05 6.3 6.3 0 00.49-1.2 8.49 8.49 0 00.28-1.33 2.85 2.85 0 000-.71 1.17 1.17 0 010-.26 1.43 1.43 0 000-.29c0-.16-.07-.32-.1-.47s-.05-.12-.07-.2 0-.24 0-.36a2.17 2.17 0 00-.08-.51 7.19 7.19 0 00-.26-.72c-.06-.14-.11-.3-.18-.44s-.12-.19-.17-.29a1.08 1.08 0 00-.08-.19 3.24 3.24 0 00-.37-.46 3.4 3.4 0 00-.23-.3c-.1-.1-.24-.16-.34-.26s-.23-.19-.33-.3l-.48-.45a1.91 1.91 0 00-.47-.38c-.19-.09-.38-.2-.58-.29a16.34 16.34 0 00-2.37-.86c-.89-.26-1.8-.48-2.7-.69-3.56-.8-5.23-1.39-5.21-3.36 0-1.72 1.73-2.82 4.35-2.8s4.36 1.26 4.61 3.69h4.67C26.49 2.75 23 .05 17.61 0a16.79 16.79 0 00-1.88.09A12.28 12.28 0 0014 .41a9.45 9.45 0 00-1.55.53 8.3 8.3 0 00-1.39.79A6.56 6.56 0 009.71 3l-.14.18c-.1.14-.21.28-.3.43s-.09.24-.15.35a2.79 2.79 0 00-.32.78 2.72 2.72 0 000 .3c0 .16-.1.31-.14.47s0 .14 0 .21a.93.93 0 01-.05.1.43.43 0 000 .16 1.2 1.2 0 00-.06.24v.33c0 .11 0 .27-.05.41a3 3 0 00-.08.89c0 .2.07.41.1.61a5.91 5.91 0 00.29 1.19 5.14 5.14 0 001.13 1.86 6.71 6.71 0 001.74 1.3 12.85 12.85 0 002.17.89c.8.26 1.62.47 2.44.67l.31.07c3.66.88 5.94 1.37 5.92 3.74s-2.21 3.09-4.7 3.07c-3.43 0-5.06-1.19-5.37-4.11H7.68A9.23 9.23 0 008 19.46a1.51 1.51 0 00.1.3 1.49 1.49 0 00.15.2c.09.13.18.27.28.39a1.66 1.66 0 01.32.43c.07.16.11.32.18.47a1.31 1.31 0 00.17.28.86.86 0 00.13.23c.26.29.5.62.77.89.1.09.21.16.31.26l.09.07h.06v.06a.88.88 0 01.17.12c.07.06.11.15.19.21a3.87 3.87 0 00.59.36 9.27 9.27 0 001.29.58 13.16 13.16 0 003.1.71 19.57 19.57 0 002 .12zM0 24.47l4.87.05v-6.75a2 2 0 000-.55 1.66 1.66 0 01-.02-.22 1.71 1.71 0 010-.39v-1.73a2.89 2.89 0 010-.59c0-.26 0-.52.08-.79a6.77 6.77 0 000-.9V9.87L5 6.34V.33L.21.29 0 24.47z" fill="#fff" data-name="Layer 1"/></g></svg><svg width="30.15" height="26.43" viewBox="-1 -1 30.15 26.43" x="205.97" y="49.02" xmlns="http://www.w3.org/2000/svg"><g data-name="Layer 2"><path d="M8.6 24.26h4.8l.11-12.48c0-1.69-.1-4.23-.1-4.23h.07s.92 2.11 1.68 3.45l8.08 13.43h4.71v-7.19c0-.54-.11-.84-.08-1.28a21 21 0 00.13-3.27v-2.01a8 8 0 010-1c0-.21.09-.4.1-.62.07-2.07 0-4.15.05-6.22V.23h-4.8l-.11 12.69c0 1.69.1 4.19.1 4.19h-.07s-.89-2.07-1.65-3.39L13.75.12 8.81.08v4.53a15.89 15.89 0 000 2.29 3.32 3.32 0 010 .89 7.07 7.07 0 000 1v15.43zM0 24.18l4.87.05v-5.29L5 15.6v-4a4.49 4.49 0 000-.9v-.42a2.3 2.3 0 010-.45 2.91 2.91 0 000-.72 1.7 1.7 0 010-.55v-.89a2 2 0 000-.35V0H.21v10.25c0 1.35-.06 2.71 0 4.07v4.62a4.32 4.32 0 000 .8v4.48z" fill="#fff" data-name="Layer 1"/></g></svg><svg width="64.62" height="26.68" viewBox="-1 -1 64.62 26.68" y="182.99" xmlns="http://www.w3.org/2000/svg"><g data-name="Layer 2"><path d="M44.85 24.35h.29c1.43 0 2.85-.06 4.27-.09a6.1 6.1 0 01.74 0 2.14 2.14 0 00.38.07h.77c.49 0 1 .05 1.46 0a5.61 5.61 0 01.59.06h3.06c.64 0 1.27-.05 1.91-.08.27 0 4.3-.09 4.3-.07v-4.09l-12.9.11v-6.53c0-.04 2.68 0 2.94 0a1.7 1.7 0 01.45 0 3.61 3.61 0 00.66 0 7 7 0 00.92 0 3.3 3.3 0 00.52-.13 13.09 13.09 0 011.88 0h3.85v-4s-2.37.06-2.55.06h-5.52a2.87 2.87 0 00-.58-.07h-2.57V4.18l12.79-.12V-.06h-3.46a11.06 11.06 0 00-1.63 0h-.5c-.21 0-.41.08-.62.07a2 2 0 00-.49 0c-.52.1-1.07 0-1.6.07s-.73.07-1.1.08a9.22 9.22 0 00-1.57.03 7.83 7.83 0 01-1.28 0h-2c-.15 0-.3-.06-.45-.07s-.31 0-.47 0c-.89 0-1.78.06-2.67.07v8.36c0 .24-.06.46 0 .7a2.16 2.16 0 000 .36 1.09 1.09 0 01.08.31 2.9 2.9 0 000 .51 1.76 1.76 0 01.07.33v.71a7.3 7.3 0 010 .81c0 .27-.06.53-.06.81v2.44c0 .28-.06.35-.06.54 0 1.57 0 3.14.07 4.72v3.58zm-18-2.82v.12-7.8l9.44-.08.09 10.65h4.87V10.15a11 11 0 000-1.62 5.69 5.69 0 01-.08-.83 2.54 2.54 0 01-.17-.56 2.89 2.89 0 000-.59V.2h-4.87l.09 9.47-9.44.08-.14-9.43h-4.87v9.95c0 .2-.06.36-.07.55a1.58 1.58 0 00.2.6c.09.26-.05.58-.05.84s0 .45-.06.68 0 .46 0 .68v.46c0 .15-.07.41-.06.63 0 .43.08.84.09 1.27s0 1 0 1.45v7.08h4.87l-.08-8.49M0 4.68l7.22-.06.17 20.06 4.87-.05V17.3a4.1 4.1 0 010-.61 2.88 2.88 0 00-.06-.59v-1.88c0-.65-.09-1.27-.1-1.92a2.29 2.29 0 010-.37c0-.14.06-.25.06-.39v-.84a4.13 4.13 0 01.11-.86 1.9 1.9 0 000-.67 5.18 5.18 0 010-.79v-3.8l7.22-.07V.39h-4.85a7.08 7.08 0 00-1 0 1.4 1.4 0 01-.29 0 2.38 2.38 0 00-.37.06H10.1C9.6.54 9.34.42 9.06.42s-.77.09-1.17.09c-.56 0-1.1.09-1.66.1s-1.32 0-2-.08C2.84.48 1.41.53 0 .56v4.12z" fill="#fff" data-name="Layer 1"/></g></svg></svg>