<svg width="181" height="89" xmlns="http://www.w3.org/2000/svg" xmlns:xlink="http://www.w3.org/1999/xlink"><svg width="93.86" height="41.72" viewBox="-1 -1 93.86 41.72" y="11.69" xmlns="http://www.w3.org/2000/svg"><g data-name="Layer 2"><g data-name="Layer 1" fill="#fff"><path d="M47.3 26.73v.06a.74.74 0 000 .14.75.75 0 000 .16.5.5 0 000 .13.82.82 0 01-.11.31c0 .09-.12.18-.18.27s0 .08 0 .13a.2.2 0 01-.06.09.5.5 0 00-.1.19 1.31 1.31 0 01-.06.27l-.06.07a1 1 0 01-.12.2.73.73 0 00-.09.08v.1l-.16.24a1.39 1.39 0 01-.06.13v.15a6 6 0 01-.2.6l-.25.63-.21.49a3.93 3.93 0 01-.18.43l-.09.18A1.43 1.43 0 0145 32c0 .06-.07.14-.12.2a.13.13 0 000 .08v.09a.63.63 0 00-.1.29.47.47 0 010 .17.14.14 0 010 .06.2.2 0 000 .11.51.51 0 01-.06.21c-.05.09-.07.17-.13.26a.6.6 0 00-.11.26c0 .18-.2.26-.28.4s0 .08-.07.12v.06a.74.74 0 00-.07.21.75.75 0 01-.13.38 1.08 1.08 0 00-.11.18c0 .08 0 .16-.08.25s-.07.09-.09.15a.38.38 0 010 .1l-.1.18a1 1 0 01-.13.23s-.08.07-.07.09.22 0 .16 0h.07s-.08.05-.11.06a.25.25 0 00-.14.08.87.87 0 00-.16.3.22.22 0 000 .13c0 .06-.06.07-.09.1a1 1 0 00-.16.32 2.1 2.1 0 00-.06.24 2.07 2.07 0 010 .22.31.31 0 01-.09.19s-.12.08-.14.15a.17.17 0 01-.1.12.81.81 0 00-.1.09.46.46 0 01-.14.17.46.46 0 00-.12.12.85.85 0 01-.25.17.65.65 0 00.17.16L42 39l.44.4.26.24a.47.47 0 00.1.1c1.12.06 1.89-1.8 2.26-2.52s5.21-12.06 6.08-13.93 3.31-8 5.68-13.35 2.53-7.44 2.33-8.12A3.87 3.87 0 0056 0c-1.51 0-3.74.31-15.4 6.25l-.5.26a2.67 2.67 0 01-.42.15c-.26.09-.37.41-.58.57a1 1 0 01-.48.11 1.19 1.19 0 00-.41.15 4.62 4.62 0 00-.59.29 2.34 2.34 0 00-.45.44.93.93 0 01-.56.2.64.64 0 00-.47.3c-.09.1-.15.23-.27.3a1 1 0 01-.54.09.93.93 0 00-.57.23c-.18.11-.37.19-.56.29s-.19.18-.31.28-.21.1-.28.2c-.22.28 0 .54-.43.67a.94.94 0 01-.5 0c-.11 0-.26-.13-.38-.08s-.07.08-.1.11a1.55 1.55 0 01-.44.32 3.2 3.2 0 00-.66.22c-.14.09-.28.2-.43.29a3.51 3.51 0 00-.68.54 2.66 2.66 0 01-.68.5 4 4 0 00-.62.38.5.5 0 01-.49.14c-.39 0-.42.32-.64.56s-.21.11-.36.12a.55.55 0 00-.4.18 1.8 1.8 0 01-.59.36 4.89 4.89 0 00-.57.27c-.47.27-1 .5-1.42.79l-1.9 1.21-.6.4 6.48-1.32c1.86-1.33 10.11-5.9 17.47-9.63S56.16 2 56.71 2s-.41 3.53-.91 4.28-.11.75-.38 1a.79.79 0 00-.2.67c-.41.35-.25.58-.36.84a5.64 5.64 0 00-.55 1.31c-.09.53-.71.93-.71 1.31a2.58 2.58 0 01-.31 1c-.11.25.1.35-.13.54a8.55 8.55 0 00-1.07 2.27 9.77 9.77 0 01-1 2.44c-.41.67-.09.58-.27.84a4.41 4.41 0 00-.42.77c-.06.16-.13.31-.18.47a1.74 1.74 0 00-.16.47.15.15 0 010 .1.69.69 0 000 .13v.24a.35.35 0 01-.06.17.84.84 0 000 .17.71.71 0 01-.21.28.65.65 0 00-.17.26 1.18 1.18 0 00-.11.35c0 .1-.08.18-.09.28a.85.85 0 010 .23 1.66 1.66 0 00-.13.27 1.12 1.12 0 01-.18.5 1.14 1.14 0 00-.16.15s0 .09-.08.14l-.11.16v.07c0 .02 0 0 0 0v.22c0 .08-.06.18-.07.21s-.11.23-.17.35a2.61 2.61 0 01-.2.3c-.12.18-.23.37-.34.56a4.67 4.67 0 00-.26.56l-.05.11a.66.66 0 000 .14.33.33 0 010 .14s-.06.11 0 .16 0 0 0 .08v.11a.16.16 0 010 .1zM28.72 14.09v.05l-.09.11h-.2c-.09 0 0 0 0-.08v-.06c0-.05 0 0 .07 0h.15c.08 0 .08 0 0 .05zm1.56-.78h-.1c-.05 0 0 0 0 0a.06.06 0 01.07-.06h.1zm.37-.32h.07zm.2-.16h-.05c-.05 0 0 0 0 0h.06c.06 0 0 0 0 0zM40 8.22zm.38-.3zm.24-.21zm4.83-2.78s0 .05-.06.05h-.06c-.06 0-.08-.07 0-.1a.15.15 0 01.1 0zm.59-.33a.88.88 0 01-.23 0c-.13 0 0 0 0 0h.23z"/><path d="M3.51 30.3a1 1 0 00.25.26 4.11 4.11 0 00.92.5c.85.22 1.84-.77 2.48-1.27s1.36-1 2-1.55q2.64-2 5.36-3.83 4.5-3.09 9.11-6l12.42-2c4.21-.66 13.73-1.75 15.48.13L52 16a5.24 5.24 0 00-4.3-2.4 136.59 136.59 0 00-19.83 2.1C18.42 17.28 10.2 19 7.48 19.46s-3.2.59-4.62.74a9.14 9.14 0 00-2.86.42s0 .16.19.27 0 .27.27.6.5.31.65.62.35.27 1.15.17a25.41 25.41 0 004.83-.61c2.46-.6 9.67-1.93 10.57-2.07 0 0-4.8 3.22-6.35 4.36-1.2.88-2.38 1.77-3.57 2.66L5.48 28.3a8.47 8.47 0 01-2.22 1.53c.13.2.17.34.25.47zm57.68-19.66c0 .35-.12.3.18.41s.53 0 .6-.22.42-1 .36-1.26a2.6 2.6 0 00-1-1.2c-.38-.14-.63-.09-1-.21s-.35 0-.3.35-.13.86.06 1a2 2 0 01.54.47l.19.33.16.19c0 .07.17 0 .18.15zM55.48 22.3c0 .07-.07.11-.07.17s-.06.12-.08.15a.56.56 0 00-.09.17.39.39 0 00-.06.18v.09c0 .03-.06.07-.07.11a.07.07 0 000 .06v.06a1.19 1.19 0 00-.08.16c0 .05-.11.11 0 .14a1.12 1.12 0 01-.11.25c0 .06-.13.15-.13.22v.1c0 .1-.09.09-.1.14s0 0 0 .06-.09.12-.12.18-.11.19-.17.29a1 1 0 00-.09.18.84.84 0 01-.15.18 1.76 1.76 0 00-.14.23s-.07.1-.06.15a.84.84 0 01-.06.14.36.36 0 010 .11c0 .06-.15.15-.12.22s0 .07 0 .1 0 0-.05.07c0 .06-.06.11-.08.16s0 .05 0 .08a1 1 0 01-.06.25 3.45 3.45 0 01-.35.66 2.41 2.41 0 00-.15.33c-.06.12-.16.22-.22.34a1.71 1.71 0 00-.17.39c0 .14-.06.29-.11.42s-.06.19-.1.29-.13.25-.19.38-.09.22-.15.33a3.49 3.49 0 00-.27.7c-.17.65-.31.86-.35 1.11s-.25.46-.19.7v.11c0 .03.11 0 .11.06a.12.12 0 01.14.08v.09a2.56 2.56 0 00.2.26c.06.07.11.14.17.2l.5.47c.37.38.74 0 .93-.29s1-3.05 1.49-4.05 2.55-5.69 2.82-6.21 1.74-4 2.07-4.9a3.45 3.45 0 00.3-2c-.13-.44-.87-.79-1.5-.93s-.62.06-.58.41a3.59 3.59 0 01-.34 1.08 1.28 1.28 0 00-.12.71c.05.18-.2.4-.41.73s-.07.41 0 .56-.27.43-.34.68-.28.11-.34.32-.09.33-.15.5a2.46 2.46 0 01-.14.38c0 .12-.16.21-.21.33s0 .05 0 .07.11 0 .11 0 .16 0 .16.1-.06.08 0 .07-.19.12-.24.15a1 1 0 00-.18.17 2.17 2.17 0 01-.24.29s0 .09-.05.13a1.05 1.05 0 00-.06.24zM91.86 4.15c0-.26-.11-.17 0-.37s-.13-.38-.21-.48 0-.09-.06-.29-.12-.11-.3-.2 0-.15 0-.15A5.46 5.46 0 0089.05 1a8.24 8.24 0 00-3.44-.09c-.34.11-1.56.26-1.89.37a9.39 9.39 0 01-1.22.3c-.27 0-1 .44-1.48.59s-1.93.83-2.25 1a5.77 5.77 0 01-.88.53c-.17 0-.22.17-.36.31s-.2 0-.32.09-.22.19.07.26-.56.45-.69.51-.13 0-.11-.16-.43.16-.66.36a14 14 0 00-1.25 1.18c-.18.25.1.46-.08.51a2 2 0 00-.65.6c-.09.16-.39 0-.43.22s-.3.36-.53.56-.19 0-.37.24a2.1 2.1 0 01-.52.51c-.07 0-.07.16 0 .32s-.25.26-.39.33a.38.38 0 00-.25.3c0 .1-.07.09-.29.21s-.08.26-.19.35a6.42 6.42 0 00-.8.84 8.94 8.94 0 00-.4.84.74.74 0 01-.23.27v.13a2.57 2.57 0 00-.27.38c0 .09.23.15.15.19s-.27 0-.3.21-.12.12-.24.19-1.38 1.75-1.57 2-.94 1.55-1.08 1.79-.37.19-.47.33.1.13 0 .29-.32.23-.42.57-.16.34-.28.44 0 .34-.11.39 0 .26 0 .36-.14 0-.26 0-.13.18-.14.29a.44.44 0 01-.13.32.4.4 0 00-.19.33.59.59 0 01-.18.42c-.09 0-.08 0-.22.3a1.24 1.24 0 01-.25.37v.38c0 .21-.1.28-.23.22s-.17.18-.16.4a.44.44 0 01-.19.43c-.14.12-.08.47-.1.66s-.11.05-.26.11-.18.41-.2.55-.08 0-.21.08 0 .18-.1.31a1.32 1.32 0 00-.24.37 1.06 1.06 0 01-.13.35c-.07.07 0 .18-.06.29s0 0-.12.18 0 .31-.14.5a.61.61 0 00-.13.43c0 .14-.2.35-.36.48s-.24.47-.36.71 0 .27-.12.5 0 .36-.25.5-.25.61-.29.64 0 .2-.1.34a1.66 1.66 0 01-.19.57 2 2 0 00-.34.84c0 .21-.08 0-.08.19s.06.17-.16.42a1.16 1.16 0 00-.21.48c0 .08 0 .16-.07.24a2.85 2.85 0 010 .29c0 .12-.1.23-.13.35a.43.43 0 01-.05.12.6.6 0 000 .3v.21c0 .24-.09.48-.12.71a2.23 2.23 0 01-.28.84c-.22.44.14.75.36 1a3.2 3.2 0 01.61.92c.17.42 1.22.09 1.27-.11a6.25 6.25 0 00.17-1.17c0-.13.17-.38.17-.53v-.87c0-.34.21-1.06.28-1.58a14.29 14.29 0 01.53-1.88c.1-.31.78-1.72.86-2s.23-.62.25-.66a4.07 4.07 0 00.19-.52c.09-.27.72-1.41.79-1.56s.52-1.11.63-1.29.17-.46.39-.92.21-.41.2-.46 0-.17 0-.23a1.53 1.53 0 00.22-.54c.09-.27 1.61-2.7 1.72-2.93s.16-.24.24-.42.07-.33.15-.5a3.11 3.11 0 01.56-.69c.08-.07.07-.14.11-.22a.65.65 0 00.06-.21.59.59 0 01.06-.26c.06-.14.14-.08.25-.18a3.33 3.33 0 00.37-.62c.14-.26.69-1 .87-1.27a11.1 11.1 0 01.75-1.16 13.16 13.16 0 001.09-1.34c.38-.57 2.26-2.92 2.72-3.36a36.45 36.45 0 013.43-3.33 22.84 22.84 0 013.91-2.27 4.3 4.3 0 011.21-.52 25.55 25.55 0 015-1.2c2-.09 2.07.12 2.16.2s0 .65-.08.91-.39.89-.41 1-.14.1-.13.32 0 .35-.11.42a.92.92 0 00-.43.35c-.09.16 0 .36-.08.49S88 6.86 88 7s-.21.26-.3.44-.22.12-.35.13-.16.31-.22.48a2 2 0 01-.29.4s.22 0 0 0-.4.32-.51.36-.12.23-.22.34-.52.19-.56.44a.51.51 0 01-.39.43 5.53 5.53 0 00-.87.83c-.16.17-1.54 1.27-1.67 1.4a5.92 5.92 0 00-.62.58c-.06.12-1.06.73-1.23.88s-.47.28-.72.53a13.65 13.65 0 01-1.27 1.07 3.17 3.17 0 00-.65.49 9.69 9.69 0 01-.94.69 5.32 5.32 0 01-.8.63c-.24.11-.4.44-.67.55s-1 .65-1.2.75-.2.14-.29.26-.17.14-.35.19a6.58 6.58 0 00-1.14.78c-.14.13-.91.82-1 .9a1.31 1.31 0 00-.42.31c-.1.12-.17 0-.23.16a.72.72 0 01-.23.31c-.09.07-.52.47-.61.55s-.5.61-.62.63-.07.22-.18.3-.31.45-.45.58-.09.2-.09.32-.08.06-.16.2-.39.79-.44.9a1 1 0 00-.13.34c-.05.2-.09.1-.14.26s0 .18.12.2 0 .1 0 .13-.1.2 0 .27-.09.06-.16.26a2.22 2.22 0 00.15.85 2.11 2.11 0 01.16.59c0 .29.29.46.37.7a1.92 1.92 0 00.29.67c.17.21.18.44.36.57s.18.11.2.31.17.2.22.3a5.62 5.62 0 00.85.92c.13.05.14.06.18.16s.78.88 1 .88 0-.1.39.26a27.72 27.72 0 004.07 1.71c.56.16 1.37.24 1.69.32a1.09 1.09 0 00.78-.09c.37-.13.79.22 1.3.3a12.36 12.36 0 002.54-.18c.17-.06.12-.52.12-.52h-.5c-.23 0-.21-.16-.65-.43a7.56 7.56 0 00-2.4-.39 15.26 15.26 0 01-4.9-1.46c-2.87-1.24-3-1.8-3.86-3.44s.07-3.23 1-4.28a25.18 25.18 0 014.8-4c2.46-1.73 7.35-5.61 10.06-7.88a24.37 24.37 0 004.8-5.36 6 6 0 00.92-2.66zM80.68 33.84l.18-.07c.17-.07.11 0 .17 0s0 0 0 .09-.1 0-.16.09 0 .17-.09.16-.08-.06-.25-.21 0-.07.1-.09z"/></g></g></svg><svg width="85.35" height="17.76" viewBox="-1 -1 85.35 17.76" x="95.41" xmlns="http://www.w3.org/2000/svg"><g data-name="Layer 1" fill="#fff"><path d="M76.9.39H65.58L65 .43h-.16a3.69 3.69 0 00-.47 0h-.88a2.66 2.66 0 00-.63 0h-2.05a2.84 2.84 0 00-.41 0H32.3a1.6 1.6 0 00-.38 0H20.29a.4.4 0 01-.11 0 3.65 3.65 0 00-.74 0h-.74a.81.81 0 00-.22 0 1.22 1.22 0 01-.33 0 5.13 5.13 0 00-1 0 .61.61 0 01-.19 0 5.17 5.17 0 00-.88 0 3.23 3.23 0 01-.44 0 1 1 0 00-.17 0 1.42 1.42 0 01-.46 0 1.62 1.62 0 00-.44 0 1.62 1.62 0 01-.44 0h-.63a5.61 5.61 0 01-.58 0h-2.81a.41.41 0 01-.11 0 5.46 5.46 0 00-1 0 2 2 0 01-.49 0 1.09 1.09 0 00-.36 0h-.06a7.38 7.38 0 00-.94 0H.74A4 4 0 01.24.4S.18.37.17.33.2.16.29.16h1.43a2 2 0 00.42 0h1.53a4.33 4.33 0 00.72 0h.19a1.22 1.22 0 00.33 0 1 1 0 01.25 0h.27a1.83 1.83 0 01.33 0 2.16 2.16 0 00.44 0 .21.21 0 01.08 0 1.13 1.13 0 00.41 0 1 1 0 01.25 0h.58A2.68 2.68 0 008 .14h.22a.49.49 0 01.17 0 4.83 4.83 0 00.85 0 1.5 1.5 0 01.3 0 2.26 2.26 0 00.52 0 .67.67 0 01.2 0 5.1 5.1 0 00.68 0h.55a5.24 5.24 0 011 0H16a.78.78 0 00.22 0 .26.26 0 01.21 0h.11a1.63 1.63 0 01.38 0 .65.65 0 01.14 0h.3a2.89 2.89 0 00.72 0 1 1 0 01.35 0 5.77 5.77 0 00.72 0h.16a1 1 0 01.39 0 2.37 2.37 0 00.46 0h2.48a2.46 2.46 0 01.47 0h.27a2.79 2.79 0 00.5 0 3.38 3.38 0 01.71 0h.19a5.09 5.09 0 01.55 0 .66.66 0 00.14 0 .61.61 0 01.19 0 1 1 0 00.25 0 3.37 3.37 0 01.71 0 2 2 0 00.6 0 1 1 0 01.17 0 .61.61 0 00.27 0h15.13a3.09 3.09 0 00.68 0h.19a5.15 5.15 0 00.55 0h1.88a1 1 0 01.38 0 .5.5 0 00.17 0 1 1 0 01.3 0H47a3.75 3.75 0 01.58 0h2.12a.22.22 0 00.11 0h5.49a3.27 3.27 0 01.44 0 7.81 7.81 0 001 0h1.21a4.85 4.85 0 00.66 0 .29.29 0 01.13 0 2.35 2.35 0 00.53 0h.52a4 4 0 01.77 0 1.07 1.07 0 00.25 0 .92.92 0 01.33 0 .82.82 0 00.27 0h2.12a1.61 1.61 0 00.38 0h6.84a1.61 1.61 0 01.38 0 1.88 1.88 0 00.58 0 .2.2 0 01.11 0 2.27 2.27 0 00.52 0 3.31 3.31 0 01.44 0A.62.62 0 0073 0h8a5.15 5.15 0 01.88 0h.08a3.64 3.64 0 01.66 0h.66a.15.15 0 01.11.14.17.17 0 01-.09.16 1.28 1.28 0 01-.27 0H76.9zM2.61 2.81h1.45l2.45 7.06H5l-.46-1.5H2.07l-.45 1.5H.19zM2.4 7.27h1.84l-.62-2c-.12-.37-.28-1.08-.28-1.08s-.2.68-.34 1.05zm4.7-4.46h1.41v7.06H7.1zm2.49 0h3.18a2 2 0 012.23 2 1.61 1.61 0 01-1.27 1.7 1.4 1.4 0 011.06 1.42c.09 1 .06 1.76.3 1.87v.07h-1.35c-.18-.08-.2-.87-.25-1.63A1.19 1.19 0 0012.13 7H11v2.87H9.59zM11 5.93h1.5c.76 0 1.14-.4 1.14-1a1 1 0 00-1.1-1H11zm9.31-3.12h2l1 3.55c.24.88.44 1.9.44 1.9s.18-1 .42-1.9l1-3.55h2v7.06h-1.34v-4c0-.57.06-1.46.06-1.46s-.15.83-.3 1.35l-1.21 4.11H23l-1.14-4.16c-.14-.52-.3-1.35-.3-1.35s.06.89.06 1.46v4h-1.31zm9.81 0h1.46L34 9.87h-1.44l-.47-1.5h-2.5l-.46 1.5H27.7zm-.2 4.46h1.83l-.62-2c-.12-.37-.28-1.08-.28-1.08s-.18.71-.29 1.08zm6.47-1.09l-2.08-3.37h1.58L37.17 5l1.29-2.23H40l-2 3.4 2.3 3.7h-1.67l-1.42-2.58-1.45 2.58h-1.61zm8.43-3.37h1.48l1.22 4.09c.13.46.3 1.12.3 1.12s.16-.67.3-1.12l1.21-4.09h1.43l-2.32 7.06h-1.28zm6.51 0h5.11V4h-3.7v1.6H56v1.17h-3.26v1.9h3.73v1.2h-5.14zm6.01 0h3.18a2 2 0 012.23 2 1.6 1.6 0 01-1.27 1.7 1.4 1.4 0 011.06 1.42c.1 1 .06 1.76.3 1.87v.07h-1.35c-.17-.08-.19-.87-.25-1.63A1.19 1.19 0 0059.88 7h-1.13v2.87h-1.41zm1.41 3.12h1.49c.77 0 1.15-.4 1.15-1a1 1 0 00-1.11-1h-1.53zm4.61.43c0-2.11 1.3-3.68 3.34-3.68S70 4.25 70 6.36 68.75 10 66.7 10a3.35 3.35 0 01-3.34-3.64zm5.25 0c0-1.41-.63-2.51-1.9-2.51S64.79 5 64.79 6.36s.65 2.49 1.92 2.49 1.9-1.09 1.9-2.49zm2.2-3.55h1.42l2.31 3.94c.23.39.49 1 .49 1S75 7 75 6.51v-3.7h1.4v7.06H75L72.67 6c-.22-.37-.49-1-.49-1v4.87h-1.37zm8.57 0h1.45l2.45 7.06h-1.47l-.46-1.5h-2.51l-.45 1.5H77zm-.21 4.46H81l-.62-2c-.12-.37-.29-1.08-.29-1.08s-.17.71-.29 1.08zm4.08 4.57c0-.07-.07-.13-.15-.15a.22.22 0 00-.11 0 4.7 4.7 0 00-.65 0h-1.17a9.77 9.77 0 00-1.21 0H69.42a3 3 0 00-.42 0h-.38a3 3 0 00-.6 0 4.33 4.33 0 01-.72 0h-.15a4.17 4.17 0 01-.79 0 2.35 2.35 0 00-.53 0 2.44 2.44 0 01-.38 0h-9.03a2.36 2.36 0 01-.53 0H53a1.61 1.61 0 01-.38 0 1.7 1.7 0 00-.45 0 1.29 1.29 0 01-.34 0 9.42 9.42 0 00-1.06 0H50a4.33 4.33 0 01-.72 0H34.03a7.12 7.12 0 00-.8 0h-.07a1.48 1.48 0 00-.42 0h-.22a2.35 2.35 0 00-.53 0h-2.58a6.44 6.44 0 01-.76 0 1.15 1.15 0 00-.26 0 7.53 7.53 0 01-.95 0H6.62a1.15 1.15 0 01-.37 0 1.85 1.85 0 00-.23 0 3.29 3.29 0 01-.83 0 6.54 6.54 0 00-1 0 1.82 1.82 0 01-.33 0h-.27a1.09 1.09 0 01-.18 0H2.38a6.4 6.4 0 00-1 0 5.15 5.15 0 01-.68 0H.34a.72.72 0 00-.21 0L0 11.8a.07.07 0 000 .06.37.37 0 010 .14v.08a.35.35 0 00.15 0H13a3 3 0 00.42 0H55a5.06 5.06 0 01.87 0h9.56L66 12h16.76a1.19 1.19 0 00.37-.06.15.15 0 00.12-.16zM57 13.64h.22l1 1.46c.11.16.22.35.22.35v-1.81h.2v2.08h-.21l-1-1.44c-.11-.15-.23-.36-.23-.36v1.8H57zm2 0h.2v2.08H59zm.63 0h.2v1.11L61 13.64h.26l-.91.85 1 1.23h-.25l-.86-1.1-.39.37v.73h-.2zm1.9 0H63v.17h-1.26v.75h1.17v.17h-1.17v.81h1.31v.18h-1.52zm2.16 1.41h.2c0 .35.27.55.68.55s.56-.16.56-.44-.2-.37-.67-.46-.69-.19-.69-.55.3-.55.73-.55a.67.67 0 01.77.61h-.2a.5.5 0 00-.56-.45c-.34 0-.54.15-.54.38s.2.33.59.4.78.17.78.61-.31.61-.77.61-.86-.31-.88-.71zm1.95-1.41h.86a.67.67 0 01.51.18.54.54 0 01.15.4c0 .39-.23.6-.69.6h-.63v.9h-.2zm.81 1c.36 0 .5-.16.5-.42s-.16-.42-.48-.42h-.63v.84zm.89.04a1 1 0 112 0 1 1 0 11-2 0zm1.82 0a.81.81 0 10-1.61 0 .81.81 0 101.61 0zm.52-1.04h1a.54.54 0 01.62.56.47.47 0 01-.37.5c.23.07.3.23.32.55s0 .42.09.45h-.22s-.06-.11-.08-.46-.15-.47-.46-.47h-.67v.93h-.2zm.9 1c.32 0 .48-.15.48-.41s-.12-.41-.45-.41h-.73v.82zm1.59-.83h-.74v-.17h1.68v.17h-.73v1.91h-.21zm1.01 1.24h.2c0 .35.27.55.68.55s.56-.16.56-.44-.2-.37-.67-.46-.69-.19-.69-.55.3-.55.73-.55a.67.67 0 01.77.61h-.2a.5.5 0 00-.57-.45c-.33 0-.53.15-.53.38s.2.33.59.4.78.17.78.61-.31.61-.77.61-.86-.31-.88-.71zm1.73-1.41h.21L75.5 15l.1.41.11-.4.4-1.41h.22l.4 1.41.1.4s.07-.25.11-.41l.38-1.4h.2l-.59 2.08h-.21l-.41-1.52c0-.13-.09-.34-.09-.34s0 .21-.08.34l-.42 1.52h-.22zm2.84 0h1.48v.17H78v.75h1.17v.17H78v.81h1.31v.18h-1.56zm2.49 0h.24l.83 2.08h-.22l-.26-.65h-1l-.25.65h-.21zm.53 1.27l-.3-.78-.11-.31s-.06.18-.11.31l-.31.78zm-50.61-.09c.28-.16.48-.26.48-.55a.41.41 0 00-.45-.43.48.48 0 00-.35.13.56.56 0 00-.13.4h-.2a.67.67 0 01.18-.51.74.74 0 01.51-.18.58.58 0 01.64.58c0 .4-.3.54-.61.72s-.5.29-.55.57h1.13v.17h-1.35c.01-.51.37-.72.7-.9zm.9-.1c0-.65.3-1 .78-1s.77.39.77 1-.28 1-.78 1-.77-.36-.77-1zm1.34 0c0-.53-.19-.88-.56-.88s-.57.33-.57.88.19.88.57.88.56-.33.56-.88zm1.12.1c.29-.16.48-.26.48-.55a.41.41 0 00-.45-.43.48.48 0 00-.35.13.56.56 0 00-.13.4h-.2a.68.68 0 01.19-.51.7.7 0 01.5-.18.58.58 0 01.64.58c0 .4-.3.54-.6.72s-.51.29-.55.57h1.13v.17h-1.36c.01-.51.37-.72.7-.9zm.9-.1c0-.65.31-1 .78-1s.77.39.77 1-.27 1-.77 1-.78-.36-.78-1zm1.35 0c0-.53-.2-.88-.57-.88s-.57.33-.57.88.2.88.57.88.57-.33.57-.88zM2 13.66a2 2 0 00-2 1.95.07.07 0 00.07.07H1.2a.07.07 0 00.07-.07.76.76 0 01.73-.74.76.76 0 01.78.74.07.07 0 00.07.07H4a.07.07 0 00.07-.07 2 2 0 00-2-1.95m3.36.13H4.3a.07.07 0 00-.07.07v1.75a.07.07 0 00.07.07h1.13a.07.07 0 00.07-.07v-1.75a.07.07 0 00-.07-.07m2.25-.13a2 2 0 00-2 1.95.07.07 0 00.07.07h1.09a.07.07 0 00.07-.07.75.75 0 01.77-.74.07.07 0 00.07-.07v-1.08a.07.07 0 00-.07-.06"/><path d="M45.77 12.35a7.86 7.86 0 000 .84v2.49h.31a.28.28 0 010-.09.41.41 0 010-.19.47.47 0 000-.17.54.54 0 010-.22.66.66 0 000-.14 1.61 1.61 0 010-.49 1 1 0 000-.3 2.09 2.09 0 000-.25v-.34a1 1 0 000-.17.89.89 0 010-.28v-.84a.76.76 0 000-.15c0-.07-.08-.1-.19-.08s-.08 0-.08 0a2.09 2.09 0 000 .34zm-26.46 0a7.86 7.86 0 000 .84v2.49h.31v-.09a.41.41 0 010-.19.47.47 0 000-.17.54.54 0 010-.22.66.66 0 000-.14 1.61 1.61 0 010-.49 1 1 0 000-.3 2.09 2.09 0 000-.25v-.34a.5.5 0 000-.17.89.89 0 010-.28v-.84a.76.76 0 000-.15c0-.07-.08-.1-.19-.08s-.08 0-.08 0v.34z"/></g></svg><svg width="95.41" height="11.69" viewBox="-1 -1 188.81 21.38" xmlns="http://www.w3.org/2000/svg"><path data-name="CÓMPRALAS AQUÍ" d="M7.292 18.513a6.434 6.434 0 004.729-1.673 5.816 5.816 0 001.776-3.779h-3.655a2.718 2.718 0 01-2.871 2.458c-2.189 0-3.552-1.962-3.552-4.668 0-2.685 1.136-4.688 3.531-4.688a2.671 2.671 0 012.789 2.334h3.655a5.791 5.791 0 00-2.21-4.069 6.867 6.867 0 00-4.213-1.3c-4.4 0-7.27 3.325-7.27 7.724 0 4.419 2.954 7.661 7.291 7.661zm13.556-15.82h2.561L25.598.008h-3.862zm1.384 12.867c-2.375 0-3.594-2.045-3.594-4.73s1.219-4.75 3.594-4.75c2.4 0 3.573 2.065 3.573 4.75s-1.177 4.73-3.573 4.73zm-.021 2.974c4.482 0 7.311-3.284 7.311-7.7s-2.829-7.7-7.311-7.7c-4.461 0-7.29 3.284-7.29 7.7s2.829 7.7 7.29 7.7zm9.158-.351h3.284v-7.415c0-.6-.062-2.974-.062-2.974h.041s.517 2.231.682 2.768l2.107 7.621h3.015l2.127-7.642c.165-.537.682-2.747.682-2.747h.041s-.062 2.355-.062 2.954v7.435h3.346V3.416h-4.957L39.796 9.88c-.248.93-.827 3.367-.827 3.367h-.041s-.578-2.437-.847-3.367l-1.8-6.464h-4.916v14.767zm17.648 0h3.717v-4.936h3.447a4.664 4.664 0 005-4.833 4.85 4.85 0 00-1.487-3.635 5.605 5.605 0 00-4.027-1.363h-6.65v14.767zm3.717-7.828V6.493h2.706a1.828 1.828 0 012.065 1.9 1.863 1.863 0 01-2.065 1.962h-2.706zm10.169 7.828h3.655v-5.535h2.21a2.166 2.166 0 012.458 2.106c.227 1.467.165 3.2.558 3.429h3.552v-.186c-.516-.186-.31-2.045-.62-3.986a2.958 2.958 0 00-2.148-2.706v-.062a3.534 3.534 0 002.561-3.573c0-2.746-2.23-4.254-5.163-4.254h-7.063v14.767zm3.655-8.241V6.307h2.83a1.82 1.82 0 012.106 1.838c0 1.116-.743 1.8-2.189 1.8h-2.747zm9.591 8.241h3.676l.847-2.664h5.163l.868 2.664h3.841L85.216 3.416h-3.759zm5.37-5.287l1.136-3.573c.248-.764.6-2.086.6-2.086h.041s.33 1.322.578 2.086l1.115 3.573H81.52zm10.479 5.287h10.283v-3.1h-6.63V3.416h-3.655v14.767zm11.056 0h3.676l.847-2.664h5.163l.867 2.664h3.842L112.12 3.416h-3.759zm5.369-5.287l1.136-3.573c.248-.764.6-2.086.6-2.086h.041s.331 1.322.579 2.086l1.115 3.573h-3.47zm16.365 5.638c3.408 0 6.052-1.714 6.052-4.812 0-3.16-2.479-4.007-5.225-4.647-2.21-.5-3.346-.744-3.346-1.776 0-.826.846-1.384 2.127-1.384a2.088 2.088 0 012.375 1.776h3.573c-.145-3.1-2.623-4.544-5.824-4.544-3.305 0-5.866 1.384-5.866 4.544 0 3.1 2.706 3.883 5.267 4.482 2.024.5 3.222.743 3.222 1.921 0 1.115-1.177 1.549-2.375 1.549-1.756 0-2.726-.62-2.892-2.107H118.2c.081 3.263 2.664 4.998 6.588 4.998zm10.543-.351h3.676l.847-2.664h5.163l.868 2.664h3.841l-5.328-14.767h-3.759zm5.37-5.287l1.136-3.573c.247-.764.6-2.086.6-2.086h.044s.33 1.322.578 2.086l1.115 3.573h-3.473zm17.17 2.664c-2.375 0-3.573-2.045-3.573-4.73s1.2-4.75 3.573-4.75c2.4 0 3.553 2.065 3.553 4.75a6.561 6.561 0 01-.517 2.727l-1.363-1.3-1.693 1.756 1.342 1.3a3.354 3.354 0 01-1.322.247zm5.556 3.821l1.693-1.8-1.672-1.57a8.1 8.1 0 001.693-5.184c0-4.419-2.809-7.7-7.29-7.7-4.461 0-7.27 3.284-7.27 7.7s2.809 7.7 7.27 7.7a7.412 7.412 0 003.717-.929zm9.653-.93c4.11 0 6.155-2.065 6.155-5.473V3.416h-3.654v9.624a2.275 2.275 0 01-2.5 2.479 2.217 2.217 0 01-2.54-2.417V3.416h-3.66v9.562c0 3.447 2.069 5.473 6.2 5.473zm8.517-.268h3.656V3.416h-3.656v14.767zm.455-15.49h2.561l2.189-2.685h-3.862z" fill="#fff" fill-rule="evenodd"/></svg><svg width="26.37" height="17.55" viewBox="-1 -1 26.37 17.55" x="95.41" y="35.22" xmlns="http://www.w3.org/2000/svg"><g data-name="Layer 2"><path d="M7.36 6H5.78l.12-2.7L4.83 6H3.24l2.37-6h1.72l-.2 2.58L8.14 0h1.53L7.36 6zm.35 0h1.58l2.31-6h-1.53L7.71 6zm9.43-.64l7.23-1.69L5.7 11c-1.7.64-3.92 1.05-5.22-.4a2.28 2.28 0 01-.34-2.24 11.65 11.65 0 013.08-4.53c-.65 1.25-1.17 3 .28 4a2.57 2.57 0 002 .32l8.86-2.09h-2.2V3.9c0-.09 0-.08-.06-.06a.29.29 0 00-.07.1l-.82 2.11H9.62L12 0h1.57l-.61 1.59L14.39 0h4.51l-.44 1.12h-1.39l-.47 1.23H18l-.41 1.06h-1.4l-.57 1.45h1.75l-.22.55zm-3.56.35L15.72.27l-2.29 2.56.15 2.92zM3.85 15l-.25.52h-.3l1.06-2.16 1 2.16h-.3l-.2-.52zm.51-1l-.4.84h.79L4.36 14zm7-.48h-.26v2.08h.28v-2.13zm7.3 2.08h-.33l-.65-.88h-.12v.88h-.27v-2.12h.33a1.19 1.19 0 01.59.1.56.56 0 01.29.49.59.59 0 01-.53.58l.69.9zm-1.1-1.09h.09c.28 0 .59-.05.59-.38s-.33-.37-.6-.37h-.07v.75z" fill="#fff" data-name="Layer 1"/></g></svg><svg width="86.89" height="35.28" viewBox="-1 -1 86.89 35.28" y="53.41" xmlns="http://www.w3.org/2000/svg"><g data-name="Layer 2"><path d="M1.71 33.18h3.26l-.06-6.25 7-.06v-2.61h-3.4a1 1 0 00-.29 0H4.89v-3.63h3.92a3.49 3.49 0 00.56 0c.15 0 .42-.18.56-.12s.1.12.22.15a1.77 1.77 0 00.46 0c.13 0 .15-.14.31-.12s.14.1.23.12c.15 0 2-.06 2-.06V18l-11.51.1v5.69c0 .75.14 1.45.14 2.2v.57c0 .19.11.35.12.55a2.33 2.33 0 01-.24.85 1.51 1.51 0 000 .6c0 .11.09.06.07.23a2.43 2.43 0 00-.08.54v3.83zm19.57.1c4.11 0 6.21-1.93 6.18-5.16v-6.65c0-.1.06-.19.07-.29s-.07-.41 0-.63 0-.26 0-.39a2 2 0 000-.34v-1.93h-3.26v3.37a5.47 5.47 0 00.07 1.28 2.29 2.29 0 01.07.28 1 1 0 01-.05.25.65.65 0 000 .19 1.23 1.23 0 000 .19 1.71 1.71 0 010 .39 1.73 1.73 0 000 .68 4.08 4.08 0 010 .61v2.95c0 1.57-.95 2.71-3 2.73s-3-1.07-3-2.63L18.05 18h-3.26v4.6a6.42 6.42 0 000 .76 2 2 0 00.09.26 1.76 1.76 0 010 .79 1.7 1.7 0 00-.06.31 1.41 1.41 0 000 .41v3.1c0 3.27 2.23 5.09 6.39 5.06zm7.61-12.83h4.84v1.18a1.41 1.41 0 010 .46c0 .14-.05.29-.06.44a3.46 3.46 0 000 .46v9.99h3.26l.07-12.6h.8c.22 0 .18-.06.28-.06h.75c.35 0 .7.05 1.06.05h1.94V17.8l-12.93.1v2.58zM49.79 33C53.9 33 56 31.11 56 27.89l-.1-10.24h-3.26v1.88a3.39 3.39 0 010 .71 7.38 7.38 0 000 .94v6.69c0 1.56-.94 2.71-3 2.73s-3-1.08-3-2.64l-.09-10.23h-3.27v4.06a12.87 12.87 0 000 1.52v.19a4.29 4.29 0 010 .62v.4a.61.61 0 000 .27v1.61a2.89 2.89 0 010 .72 1.89 1.89 0 000 .23V28c0 3.27 2.23 5.09 6.39 5.05zM61.5 20h3.55c1.73 0 2.57.88 2.58 2.11s-.85 2.07-2.63 2.09h-3.46v-4.19zm-3.15 12.72h3.26v-6h2.63c2 0 3 .9 3.17 2.54s.21 3.32.62 3.48h3.12v-.15l-.14-.1a.94.94 0 01-.12-.18 2.23 2.23 0 01-.16-.56 14.9 14.9 0 01-.18-1.78l-.06-.53a3.31 3.31 0 00-.09-.62 1.45 1.45 0 010-.3 1.2 1.2 0 00-.07-.42v-.23a1.47 1.47 0 00-.1-.13.23.23 0 010-.18v-.16a.39.39 0 00-.06-.19c-.08-.09 0-.15-.08-.24a2 2 0 00-.34-.48 2.84 2.84 0 00-1-.66 4.13 4.13 0 00-.7-.24v-.19a3.5 3.5 0 002.91-3.67c0-2.51-2.11-4.18-5.21-4.16l-7.38.06v5.29a18.59 18.59 0 00-.05 2.08v.39a3.87 3.87 0 01.08.9c0 .16 0 .32-.07.48s0 .32 0 .48v.56a4.77 4.77 0 01.06.76 5 5 0 000 .77v3.34zM73 32.6l11.9-.1v-2.55l-8.67.05v-4.07h1.81a1.33 1.33 0 00.2 0h1.25a3.13 3.13 0 00.42 0h2.11c.14 0 1.72-.05 1.72 0v-2.51l-7.51.06V20.1h3.04a1.91 1.91 0 01.21 0h2.03c.14 0 .29.05.43 0s.22 0 .33-.06h.45A2.06 2.06 0 0183 20a3.33 3.33 0 00.55 0h1.15v-2.57l-11.83.09v7.82a3.12 3.12 0 01.06.41 3 3 0 010 .31 6.62 6.62 0 000 1.09v1.41a.76.76 0 010 .16v.44a2.77 2.77 0 000 .49 1.1 1.1 0 000 .18c0 .13-.1.25-.09.38a2.68 2.68 0 010 .3v1.92M33.05 12.8V8.73l7.51.06V6.28l-7.51-.06V2.85l8.57.07V.34h-3.66a8.42 8.42 0 01-.87 0h-7.31v4.89a.7.7 0 010 .14 2.62 2.62 0 010 .28v3.41a3.67 3.67 0 000 .46v5.81l11.89.1v-2.55h-2.39c-.17 0-.33.05-.5.05h-3.57a.24.24 0 01-.12 0H33.2m-18.75 2.4h3.27l.06-6.64 6.32.05-.1 6.54h3.26L27.43.22 24.17.2v2.69a2.14 2.14 0 010 .44 2.29 2.29 0 000 .37v.61a2.52 2.52 0 010 .55 2.48 2.48 0 000 .61v.64l-6.37-.06.06-5.9h-3.27v4.49a1.37 1.37 0 010 .35V6.5m-9.87 8.63h3.26L8.1 2.64h4.83L13 .11h-2.28a5.23 5.23 0 01-.56 0H8.21L6 .05 3.84 0H0v2.57h4.83v7a1 1 0 000 .25.7.7 0 010 .25v.16c0 .05 0 .06-.05.11a1.14 1.14 0 000 .37v4.41" data-name="Layer 1" fill="#fff"/></g></svg><svg width="20.28" height="17.7" viewBox="-1 -1 20.28 17.7" x="95.41" y="52.77" xmlns="http://www.w3.org/2000/svg"><g data-name="Layer 2"><path d="M12 15.7h.26a9.26 9.26 0 001-.07 8.54 8.54 0 001-.17 7 7 0 00.89-.27 7.43 7.43 0 00.81-.37 5.7 5.7 0 00.7-.47 4.53 4.53 0 00.59-.57 4.24 4.24 0 00.46-.65 5 5 0 00.33-.75 4 4 0 00.18-.83 1.31 1.31 0 000-.44.44.44 0 010-.16 1.08 1.08 0 000-.18c0-.1-.05-.2-.07-.3s0-.07 0-.12v-.23a1.67 1.67 0 00-.05-.31c-.06-.17-.14-.32-.21-.48s-.08-.18-.13-.27-.08-.12-.11-.18 0-.09-.05-.13a2.18 2.18 0 00-.25-.28c-.05-.06-.09-.13-.15-.19s-.2-.1-.2-.16l-.23-.18-.31-.29a1.44 1.44 0 00-.32-.23l-.39-.18a9.81 9.81 0 00-1.58-.54c-.6-.17-1.21-.3-1.81-.43-2.38-.5-3.5-.87-3.49-2.09S10 2.41 11.75 2.43s2.91.78 3.08 2.3h3.12C17.73 1.72 15.41 0 11.79 0a10.63 10.63 0 00-1.26.06 9 9 0 00-1.16.19 7.89 7.89 0 00-1 .34 4.79 4.79 0 00-.92.49 4.22 4.22 0 00-.91.77L6.41 2a2.69 2.69 0 00-.2.27c0 .07-.06.15-.11.22a1.71 1.71 0 00-.21.48 1.11 1.11 0 000 .19c0 .1-.07.19-.1.29s0 .09 0 .13v.07a.31.31 0 000 .1.83.83 0 000 .15v.46a1.71 1.71 0 000 .55l.06.38a3.75 3.75 0 00-.02.71 3.41 3.41 0 00.77 1.16A4.28 4.28 0 007.76 8a8.21 8.21 0 001.45.56c.54.16 1.09.29 1.63.42h.21c2.45.55 4 .86 4 2.34s-1.48 1.93-3.14 1.91c-2.29 0-3.39-.74-3.6-2.56H5.12a5.41 5.41 0 00.24 1.5.73.73 0 00.07.19 1.06 1.06 0 00.1.12 2.23 2.23 0 00.19.24 1.09 1.09 0 01.21.27c.05.1.07.2.12.3a1.77 1.77 0 00.12.17.64.64 0 00.08.14c.18.19.33.39.52.56s.14.1.21.16l.06.05s.08 0 .11.07a1.79 1.79 0 00.13.14 2.56 2.56 0 00.4.22 6.5 6.5 0 00.86.36 9.81 9.81 0 002.07.45c.45 0 .91.07 1.36.07zm-12-.43h3.26v-4.22a1.28 1.28 0 000-.34.65.65 0 010-.13.49.49 0 010-.24V9.28a2.17 2.17 0 010-.36v-.5a3.44 3.44 0 000-.56V.21L.14.18 0 15.27z" fill="#fff" data-name="Layer 1"/></g></svg><svg width="20.85" height="17.24" viewBox="-1 -1 20.85 17.24" x="139.15" y="17.76" xmlns="http://www.w3.org/2000/svg"><g data-name="Layer 2"><path d="M5.76 15.13h3.21L9 7.37c0-1-.06-2.63-.06-2.63H9S9.64 6 10.15 6.83l5.41 8.38h3.15v-4.52c0-.33-.07-.52-.05-.8a11.46 11.46 0 00.07-2c0-.42-.05-.84-.05-1.26a4.16 4.16 0 010-.61c0-.13.06-.25.07-.39.05-1.29 0-2.59 0-3.88V.12h-3.22L15.56 8c0 1.05.07 2.62.07 2.62h-.05a23 23 0 00-1.1-2.12L9.2.07 5.9.05v2.78a9.89 9.89 0 000 1.44 2.53 2.53 0 010 .55 4.56 4.56 0 000 .64v.35a3 3 0 010 .31v8.92zM0 15.09h3.26V7.22a2.69 2.69 0 000-.57 2.06 2.06 0 010-.26 2.4 2.4 0 010-.28 1.68 1.68 0 000-.45 1 1 0 010-.34v-.56a.71.71 0 000-.21V0H.14v10.82a8.14 8.14 0 010 1 2.9 2.9 0 000 .51v2.77z" fill="#fff" data-name="Layer 1"/></g></svg><svg width="43.74" height="17.46" viewBox="-1 -1 43.74 17.46" x="95.41" y="17.76" xmlns="http://www.w3.org/2000/svg"><g data-name="Layer 2"><path d="M29.77 15.33h3.05a4.17 4.17 0 01.5 0 1.87 1.87 0 00.25 0h.52c.18 0 .64.05 1 0 .14 0 .26 0 .4.05h6.15v-2.55L33 12.76V8.69c0-.02 1.8 0 2 0a1.51 1.51 0 01.3 0 3.24 3.24 0 00.44 0h.62c.21 0 .23-.06.35-.08a10.59 10.59 0 011.26 0h2.57V6.1h-5.27a2.44 2.44 0 00-.39 0h-1.77V2.72l8.56.07V.22h-2.18a10.09 10.09 0 00-1.1 0h-.75a1.72 1.72 0 00-.32 0h-1.81a6.28 6.28 0 00-1-.06 5 5 0 01-.86 0h-1.36L32 .23h-2.09V5.9a.88.88 0 000 .23.58.58 0 010 .19 1.71 1.71 0 000 .32.72.72 0 01.05.21v.44a4.34 4.34 0 010 .51 4.23 4.23 0 00-.05.5v7.03zm-12-1.95V8.6l6.32.05-.09 6.64h3.27V6.43a7 7 0 000-1 2.84 2.84 0 01-.05-.51 1.28 1.28 0 01.07-.34 1.53 1.53 0 000-.37V.25L24.18.2l-.06 5.91-6.32-.05.06-5.91L14.6.12v6.21c0 .13 0 .23-.06.35s.09.25.13.37 0 .37 0 .53 0 .28-.05.42 0 .29 0 .43a2.62 2.62 0 010 .28v6.48h3.26s0-3.35.05-5.3M0 2.58h4.84l-.12 12.55h3.26v-4.58a1.63 1.63 0 010-.38 1.55 1.55 0 000-.37V7.46a1.76 1.76 0 010-.23C8 7.14 8 7.07 8 7v-.52a4.68 4.68 0 01.08-.54 1 1 0 000-.42 2.77 2.77 0 010-.5V2.64h4.83L13 .11h-.29L11 .09H9.71a5.45 5.45 0 00-.7 0h-.19a1.07 1.07 0 00-.25 0H6.64C6.45.1 6.28 0 6.09 0s-.52.05-.78 0-.74.11-1.11.11S3.31.06 2.87 0H0v2.58z" fill="#fff" data-name="Layer 1"/></g></svg></svg>