<svg width="189" height="164" xmlns="http://www.w3.org/2000/svg" xmlns:xlink="http://www.w3.org/1999/xlink"><svg width="146.59" height="67.39" viewBox="-1 -1 146.59 67.39" y="60" xmlns="http://www.w3.org/2000/svg"><g data-name="Layer 2"><g data-name="Layer 1" fill="#fff"><path d="M74.46 44s-.07.06-.09.1 0 .16-.06.22a2 2 0 01-.06.26l-.06.22a1.38 1.38 0 01-.17.52c-.09.15-.19.29-.28.45s0 .13 0 .21a.38.38 0 01-.09.15.68.68 0 00-.16.3 1.28 1.28 0 01-.09.44c0 .06-.07.08-.09.13a1.81 1.81 0 01-.2.33c0 .05-.1.07-.14.13s0 .1-.07.16-.17.26-.25.39a2 2 0 01-.1.21 1.22 1.22 0 00-.06.26c-.08.33-.21.67-.32 1l-.39 1-.33.8a6.15 6.15 0 01-.28.71 2.75 2.75 0 00-.14.3 3.62 3.62 0 01-.2.33c-.07.11-.1.23-.18.34a.17.17 0 000 .13.47.47 0 010 .16 1.29 1.29 0 00-.15.47.88.88 0 01-.06.28v.09a1 1 0 000 .18.86.86 0 01-.09.35c-.08.14-.12.29-.2.43a.83.83 0 00-.18.42c0 .3-.31.43-.45.66 0 .06 0 .14-.09.21a.26.26 0 000 .09 1.16 1.16 0 00-.12.34 1.24 1.24 0 01-.2.63 1.28 1.28 0 00-.17.3c-.05.14-.06.27-.12.4s-.12.17-.15.25a1.21 1.21 0 010 .18c0 .1-.11.19-.15.29a3.25 3.25 0 01-.21.37s-.12.12-.11.16.34-.07.25 0h.11c0 .07-.12.08-.17.1a.65.65 0 00-.23.13 1.8 1.8 0 00-.25.5.39.39 0 00-.06.22h.06c.06 0-.09.12-.14.18a1.53 1.53 0 00-.25.53 2.34 2.34 0 00-.09.38 2.38 2.38 0 01-.06.37.59.59 0 01-.14.31c-.07.08-.19.14-.23.25a.28.28 0 01-.15.2.73.73 0 00-.16.14.92.92 0 01-.23.29.65.65 0 00-.18.19 1 1 0 01-.39.27c-.06 0-.06 0 0 .1s.18.19.26.27l.3.29.69.66.41.39s.12.15.16.16c1.75.11 3-3 3.56-4.14s8.19-19.86 9.57-22.93 5.21-13.26 8.94-22S93.42 4.09 93.1 3s-2.65-2.91-5-3-5.85.51-24.2 10.29c-.26.15-.53.29-.8.43a3.69 3.69 0 01-.65.24c-.4.15-.58.69-.91.94a1.38 1.38 0 01-.77.19 1.68 1.68 0 00-.64.25 8.1 8.1 0 00-.93.47 4 4 0 00-.71.72c-.23.27-.56.27-.88.33a1 1 0 00-.74.49 2 2 0 01-.41.5 1.49 1.49 0 01-.86.15 1.51 1.51 0 00-.9.37 9.42 9.42 0 01-.88.49c-.21.11-.3.3-.49.45s-.32.17-.44.34c-.34.46 0 .88-.67 1.1a1.38 1.38 0 01-.78 0c-.18 0-.43-.2-.61-.12s-.11.13-.16.18a2.16 2.16 0 01-.68.52 4.3 4.3 0 00-1 .37c-.23.15-.45.33-.69.47a5.63 5.63 0 00-1.06.89 3.91 3.91 0 01-1.07.82 6.29 6.29 0 00-1 .63.76.76 0 01-.77.23c-.62-.07-.67.53-1 .92-.18.21-.33.18-.58.21a.85.85 0 00-.63.29 2.89 2.89 0 01-.92.59 5.4 5.4 0 00-.9.45c-.74.44-1.51.82-2.24 1.3-1 .65-2 1.32-3 2l-.94.66L44.38 26c2.93-2.18 15.92-9.71 27.51-15.85S88.4 3.32 89.26 3.34s-.64 5.82-1.43 7.05-.17 1.23-.6 1.58a1.35 1.35 0 00-.31 1.1c-.64.58-.4.95-.57 1.38a10.1 10.1 0 00-.86 2.16c-.14.87-1.12 1.52-1.12 2.15a4.14 4.14 0 01-.5 1.58c-.16.43.17.58-.19.9A14.59 14.59 0 0082 25a16.63 16.63 0 01-1.62 4c-.64 1.1-.14 1-.43 1.38a8.09 8.09 0 00-.65 1.28 7.15 7.15 0 00-.29.77 3.22 3.22 0 00-.25.78.42.42 0 010 .16 2.07 2.07 0 000 .22c0 .07-.07.08-.07.17a1.66 1.66 0 010 .22.88.88 0 01-.1.27c0 .09 0 .19-.08.29a1.15 1.15 0 01-.33.46 1 1 0 00-.27.43 2.7 2.7 0 00-.18.57c0 .16-.12.29-.13.46a1 1 0 01-.07.38 2.48 2.48 0 00-.2.44 1.84 1.84 0 01-.29.82 1.9 1.9 0 00-.24.25c0 .07-.09.16-.13.23s-.11.18-.17.27-.07.07-.07.11-.07.23-.06.37c.17 0-.09.29-.11.34l-.26.57a5.14 5.14 0 01-.32.49c-.18.31-.37.62-.54.93a8.48 8.48 0 00-.41.93 1.34 1.34 0 00-.07.18.55.55 0 000 .22.56.56 0 01-.06.23.37.37 0 00-.06.27c0 .06.06 0 0 .13s-.06.12-.06.19a.76.76 0 010 .16zM45.2 23.19a.09.09 0 00-.05.1l-.15.17h-.31c-.14 0-.07-.07.07-.13s0-.1 0-.1v-.08c0-.09 0 0 .1 0h.28c.14 0 .12 0 .05.08zm2.46-1.27h-.23v.05l-.05-.06s0-.11.1-.1a.32.32 0 01.16.05h.07s.06 0 0 .05zm.58-.53h-.05a.1.1 0 010-.08h.11c.11 0 0 0 0 0zm.32-.27l-.08.06c-.08.06 0 0-.06 0s0 0 0-.06 0 0 .05 0h.1c.1 0 0 .05-.06 0zM63 13.53h-.09c-.09 0 0 0 0 0v-.08c0-.08.06 0 .09 0v.06h-.06zm.6-.5h-.05.07c.02 0 0 0 0 0zm.36-.34c-.05 0 0 0 0 0h.08c.08 0 0 0 0 0a.15.15 0 01-.08 0zm7.62-4.57s0 .08-.1.08-.05.06-.1.08-.13-.11 0-.16.19 0 .16 0zm.93-.54a1.42 1.42 0 01-.37 0h-.07c-.07 0 0-.06.07 0s.07 0 .2 0 .28.08.17.1z"/><path d="M5.53 49.89a1.4 1.4 0 00.4.42 5.69 5.69 0 001.43.82c1.35.37 2.91-1.27 3.91-2.08s2.14-1.72 3.21-2.56c2.78-2.16 5.59-4.25 8.44-6.3 4.72-3.4 9.51-6.67 14.34-9.87l19.54-3.25c6.64-1.1 21.61-2.88 24.37.21l.66-1a8.2 8.2 0 00-6.76-3.95 205.85 205.85 0 00-31.21 3.47C29 28.46 16.05 31.28 11.77 32s-5 1-7.27 1.23-3.87.25-4.5.77a.5.5 0 00.3.45c.33.19 0 .44.42 1s.79.51 1 1 .54.44 1.81.28a38.15 38.15 0 007.61-1c3.86-1 15.21-3.18 16.62-3.4 0 0-7.54 5.3-10 7.18-1.88 1.44-3.75 2.91-5.62 4.37Q10.4 45.2 8.63 46.6c-1.11.86-2.19 2.06-3.5 2.51.21.32.27.56.4.78zm90.79-32.38c0 .58-.2.5.28.68s.84 0 .94-.37a7.52 7.52 0 00.57-2.06 4.26 4.26 0 00-1.59-2c-.59-.23-1-.16-1.51-.34s-.55 0-.47.58-.2 1.4.1 1.61a3.22 3.22 0 01.84.79c.12.23.3.54.3.54l.25.32c.07.1.27-.06.29.23zm-9 19.21c0 .1-.1.17-.11.27s-.08.2-.12.25a1 1 0 00-.14.28 1 1 0 00-.1.29.76.76 0 010 .15c0 .07-.09.11-.12.18a.21.21 0 000 .11s0 .08-.07.11a1.31 1.31 0 00-.12.27c0 .08-.18.18-.06.23a1.62 1.62 0 01-.17.41c0 .1-.2.24-.19.35s0 .08 0 .17-.12.21-.12.28v.1c0 .04-.14.2-.19.3a3.17 3.17 0 01-.27.47c-.06.09-.08.2-.13.29a2 2 0 01-.24.31 2 2 0 00-.22.37c0 .06-.12.17-.09.25s.05 0 .05.05-.08.18-.09.24a1.27 1.27 0 01-.06.18c0 .09-.24.24-.19.35v.17c0 .05-.06.07-.08.11s0 .06 0 .09-.09.17-.12.26 0 .08 0 .13-.06.29-.1.42a5.26 5.26 0 01-.56 1.08c-.1.18-.14.37-.23.54s-.25.37-.35.56a3.71 3.71 0 00-.27.65c-.06.22-.08.47-.16.69s-.11.32-.17.47-.2.42-.3.64-.14.36-.23.53a5.82 5.82 0 00-.42 1.17c-.28 1.06-.5 1.4-.55 1.82s-.39.75-.3 1.14a.39.39 0 00.06.18c.06.06.17 0 .18.1s.16 0 .21.14 0 .1.06.15a3.11 3.11 0 00.31.43 2.69 2.69 0 00.27.32c.25.27.52.51.77.78.6.62 1.17 0 1.47-.47s1.56-5 2.35-6.68 4-9.37 4.44-10.23 2.73-6.6 3.25-8.06a5.76 5.76 0 00.47-3.23c-.2-.73-1.36-1.31-2.35-1.54s-1 .1-.92.68a6.25 6.25 0 01-.53 1.77 2.2 2.2 0 00-.2 1.21c.08.29-.32.66-.65 1.2a.67.67 0 000 .92c.14.24-.41.71-.53 1.12s-.44.19-.54.53-.14.55-.23.82a4.65 4.65 0 01-.21.63c-.09.19-.26.34-.33.53s0 .1 0 .13.18 0 .19 0 .24 0 .24.16-.08.14 0 .13-.3.19-.39.24a1.44 1.44 0 00-.27.28 5.71 5.71 0 01-.38.48.5.5 0 01-.09.21 2.6 2.6 0 00-.1.4zm57.27-29.88c-.08-.43-.17-.28-.06-.62s-.21-.62-.33-.79 0-.15-.1-.47-.19-.18-.47-.34 0-.24 0-.24a8.87 8.87 0 00-3.45-2.75c-1.42-.64-4.88-.3-5.42-.13s-2.45.42-3 .61a15.65 15.65 0 01-1.92.5c-.43.08-1.59.72-2.32 1A37.1 37.1 0 00124 5.23a9.53 9.53 0 01-1.38.86c-.27 0-.35.28-.58.52s-.3.08-.5.15-.34.31.12.41-.89.74-1.09.85-.2 0-.17-.27-.68.27-1 .59a22.78 22.78 0 00-2 1.95c-.28.4.17.75-.11.85a3 3 0 00-1 1c-.14.27-.6.06-.67.36s-.46.59-.83.93-.3 0-.59.39a3.09 3.09 0 01-.81.83c-.11 0-.11.27 0 .54s-.38.43-.61.53a.66.66 0 00-.39.5c0 .16-.11.15-.46.35s-.12.43-.3.56a11.4 11.4 0 00-1.25 1.4 14.84 14.84 0 00-.64 1.37 1.18 1.18 0 01-.36.44v.22a4.5 4.5 0 00-.42.63c0 .15.36.24.23.31s-.42-.07-.47.35-.18.2-.37.31-2.17 2.89-2.48 3.32-1.48 2.55-1.7 2.94-.59.31-.74.54.17.21 0 .48-.5.38-.67.94-.24.56-.43.73 0 .55-.18.63 0 .43 0 .6-.22.06-.4.07-.21.29-.23.47a.69.69 0 01-.2.52.7.7 0 00-.3.55c0 .22-.15.65-.29.69s-.11 0-.34.5a1.75 1.75 0 01-.39.6v.63c0 .35-.15.46-.36.36s-.28.3-.25.66a.73.73 0 01-.31.71c-.21.19-.11.77-.15 1.08s-.18.09-.41.19-.28.67-.32.91-.11 0-.33.12 0 .3-.15.51a2 2 0 00-.37.62 1.8 1.8 0 01-.22.56c-.1.13 0 .3-.09.49s0 0-.19.29 0 .51-.22.82a1 1 0 00-.2.71c0 .23-.31.58-.57.8a4 4 0 00-.57 1.17c-.19.4.06.44-.19.82s-.07.59-.39.83-.39 1-.45 1-.07.33-.16.55a3.48 3.48 0 01-.3.94 3.35 3.35 0 00-.54 1.38c0 .35-.12.06-.13.32s.1.27-.25.69a2.12 2.12 0 00-.32.79c0 .13-.08.26-.11.4s0 .31-.05.47-.16.38-.21.58a.7.7 0 01-.08.2.91.91 0 00-.07.49v.35c0 .39-.13.78-.18 1.17a4.07 4.07 0 01-.44 1.37c-.35.73.22 1.24.57 1.69a5.66 5.66 0 01.72 1.59c.27.68 1.92.13 2-.19a13 13 0 00.29-1.96c0-.23.27-.63.27-.88v-1.43c0-.56.34-1.75.45-2.61a28.34 28.34 0 01.83-3.09c.15-.51 1.23-2.82 1.35-3.24s.37-1 .4-1.08a8 8 0 00.31-.86c.12-.45 1.12-2.33 1.24-2.57s.81-1.83 1-2.12.26-.77.61-1.52.32-.67.31-.75-.05-.29.08-.39a2.31 2.31 0 00.36-.88c.14-.45 2.52-4.44 2.69-4.83s.26-.39.38-.69.12-.53.23-.83a5.84 5.84 0 01.88-1.13c.13-.11.12-.23.18-.36a.79.79 0 00.09-.35 1.77 1.77 0 01.1-.42c.09-.24.22-.13.4-.31a5.27 5.27 0 00.58-1c.23-.43 1.09-1.57 1.37-2.08a18.54 18.54 0 011.18-1.91 20.15 20.15 0 001.71-2.23c.6-.94 3.56-4.8 4.29-5.54a57.77 57.77 0 015.39-5.47 35.84 35.84 0 016.16-3.74 6.57 6.57 0 011.9-.85c.93-.19 4.84-1.84 7.9-2s3.26.2 3.41.34 0 1.07-.12 1.49-.62 1.48-.66 1.64-.21.16-.2.52.06.58-.18.69a1.53 1.53 0 00-.68.59c-.14.25 0 .59-.12.8s-.55.53-.55.76-.33.43-.47.72-.35.2-.55.22-.25.51-.35.78a3.2 3.2 0 01-.46.67s.35 0-.06.05-.63.54-.79.59-.2.39-.36.57-.82.32-.87.72a.85.85 0 01-.61.71c-.23 0-1.14 1.11-1.38 1.37S130.23 20 130 20.23a9.79 9.79 0 00-1 .95c-.11.21-1.68 1.21-1.93 1.46a10.55 10.55 0 00-1.14.87 21 21 0 01-2 1.76 4.75 4.75 0 00-1 .8 12.76 12.76 0 01-1.49 1.15 9.81 9.81 0 01-1.25 1c-.38.19-.64.73-1.06.9s-1.5 1.08-1.89 1.24-.32.23-.46.43-.27.23-.55.31a10.46 10.46 0 00-1.78 1.29c-.22.21-1.45 1.34-1.66 1.47a2.64 2.64 0 00-.67.51c-.15.2-.25 0-.36.27a1.09 1.09 0 01-.35.51c-.14.12-.82.77-1 .9s-.79 1-1 1-.11.36-.28.49-.48.74-.7 1-.14.32-.14.53-.13.09-.25.32-.62 1.3-.71 1.48a1.71 1.71 0 00-.2.56c-.08.34-.14.17-.22.43s.08.3.19.34 0 .16 0 .21-.15.32 0 .43-.14.11-.25.43a4 4 0 00.22 1.4 3.12 3.12 0 01.26 1c0 .47.46.75.59 1.15a3.17 3.17 0 00.46 1.1c.25.34.28.73.56.93s.28.19.31.53.28.32.35.48a8.63 8.63 0 001.4 1.54c.22.08.23.1.3.27s1.22 1.43 1.63 1.45-.08-.18.61.41a42.68 42.68 0 006.4 2.82c.9.27 2.16.41 2.67.53a1.62 1.62 0 001.23-.15c.58-.21 1.23.36 2 .5a19.1 19.1 0 004-.3c.26-.11.19-.86.19-.86h-.78c-.37 0-.33-.27-1-.71a11.44 11.44 0 00-3.77-.64c-.56 0-3.22-.37-7.73-2.41s-4.72-3-6.06-5.65.11-5.32 1.49-7.06a39.54 39.54 0 017.57-6.6c3.88-2.85 11.58-9.23 15.83-13a39 39 0 007.56-8.83 9.91 9.91 0 001.45-4.36zM127 55.71l.28-.11c.28-.12.19 0 .28 0s0 0 .08.14-.16.07-.27.15 0 .29-.13.27-.13-.11-.39-.35 0-.12.15-.15z"/></g></g></svg><svg width="188.23" height="38.09" viewBox="-1 -1 188.23 38.09" xmlns="http://www.w3.org/2000/svg"><g data-name="Layer 2"><g data-name="Layer 1" fill="#fff"><path d="M171.79.92H158.1c-.29 0-.57.05-.86.05h-10.83l-1.25.03a2.26 2.26 0 01-.37 0 7.38 7.38 0 00-1 0h-1.97a6.65 6.65 0 00-1.41 0 2.69 2.69 0 01-.49 0h-4.13a7.23 7.23 0 00-.93 0H72.63A3.89 3.89 0 0172 1a4.94 4.94 0 00-.86 0c-.31 0-.61.06-.92.06h-9.43L59.68 1H45.06a1.92 1.92 0 01-.24 0 6.16 6.16 0 00-1.66 0c-.55-.07-1.11 0-1.66-.06A1.62 1.62 0 0041 1a3.66 3.66 0 01-.74 0 9.66 9.66 0 00-2.15 0 2.06 2.06 0 01-.43 0 9.27 9.27 0 00-2 0h-1a2.32 2.32 0 00-.37 0 4 4 0 01-1 0 3.29 3.29 0 00-1 0 3.22 3.22 0 01-1 0A1.56 1.56 0 0031 1h-1.1a11.26 11.26 0 01-1.3 0c-.6 0-1.23-.06-1.87 0h-4.32a2.08 2.08 0 01-.25 0 11.76 11.76 0 00-2.22 0 4.05 4.05 0 01-1.1 0A2.69 2.69 0 0018 1a1 1 0 01-.25 0 18.25 18.25 0 00-2.09 0H4c-.91 0-1.81.11-2.71.07C.91 1 .54 1 .17 1A.22.22 0 010 .77a.3.3 0 01.29-.4 4 4 0 01.49 0h2.71a4.85 4.85 0 00.93-.06A3.31 3.31 0 015 .27h1.9a5.46 5.46 0 011 0 9.5 9.5 0 001.6 0 2.06 2.06 0 01.43 0 3.05 3.05 0 00.74 0 2.54 2.54 0 01.55 0 2.49 2.49 0 00.61 0 4.63 4.63 0 01.74 0 4.68 4.68 0 001 0 .37.37 0 01.18 0 2.84 2.84 0 00.92 0 3.37 3.37 0 01.55 0h.74a2.54 2.54 0 01.55 0 6.89 6.89 0 001.11.06h.49a1.54 1.54 0 01.37 0 9.38 9.38 0 001.91 0 5 5 0 01.67 0 4.58 4.58 0 001.17 0 1.56 1.56 0 01.43 0 11.4 11.4 0 001.54.06h1.24a11 11 0 012.15 0h8.01A1.61 1.61 0 0036 .3a.59.59 0 01.47 0 .33.33 0 00.24 0 3.54 3.54 0 01.86 0h.99a6.51 6.51 0 001.59 0 2.39 2.39 0 01.8 0 12.29 12.29 0 001.6.06 1.5 1.5 0 00.37 0 1.92 1.92 0 01.86 0 6.06 6.06 0 001 .07H50a2.23 2.23 0 00.37 0 4.61 4.61 0 011.05 0h.61a5.9 5.9 0 001.11 0 7.15 7.15 0 011.6 0 3 3 0 00.43 0 10.08 10.08 0 011.23 0h.3a1.55 1.55 0 01.43 0 1.69 1.69 0 00.55 0 6.59 6.59 0 011.6 0 4.37 4.37 0 001.35 0 1.16 1.16 0 01.37 0 2.08 2.08 0 00.61 0 4.18 4.18 0 01.61 0h32.95a2.36 2.36 0 01.37 0 7.93 7.93 0 001.54 0 1.19 1.19 0 01.42 0 7.35 7.35 0 001.24.05h3.63a3.44 3.44 0 00.56 0 2.76 2.76 0 01.86 0 1.16 1.16 0 00.37 0 1.68 1.68 0 01.67 0h.12a7.94 7.94 0 011.29 0l1.36-.06h.3c.74.07 1.48 0 2.22 0L111 .2h.25c.72-.06 1.43.05 2.15 0s1.48 0 2.22 0h5.92a.48.48 0 01.12 0c.51.09 1 0 1.54 0a1 1 0 00.25 0h4.82c.35 0 .7 0 1.05.06a10.45 10.45 0 001.48 0 1 1 0 01.3 0 5.72 5.72 0 001.17 0h1.17A11.12 11.12 0 01135.1.2a1.7 1.7 0 00.55 0 2.62 2.62 0 01.74 0 1.78 1.78 0 00.61 0 4.16 4.16 0 01.61 0h4.14a3.54 3.54 0 00.86 0 1.51 1.51 0 01.37 0h14.31a3.12 3.12 0 00.61 0 3.53 3.53 0 01.86 0 4.29 4.29 0 001.29 0 1.06 1.06 0 01.25 0 5 5 0 001.16 0 5.48 5.48 0 011 .05 1.79 1.79 0 00.61 0 5.19 5.19 0 01.68 0h15.24c.58 0 1 0 1.47.05a3.05 3.05 0 00.43 0 11.8 11.8 0 012 0h.19a9 9 0 011.47 0 1 1 0 00.25 0 6.06 6.06 0 011 0 .58.58 0 01.18 0 .36.36 0 01.26.33.38.38 0 01-.21.37 1.52 1.52 0 01-.6.11h-13.64zM5.47 5.74h3.26l5.48 16.52h-3.28l-1-3.52H4.28l-1 3.52H.07zM5 16.18h4.1l-1.37-4.76c-.26-.88-.63-2.54-.63-2.54s-.39 1.66-.65 2.54zM15.53 5.74h3.15v16.52h-3.15zm5.56 0h7.13c3 0 5 1.85 5 4.6a3.76 3.76 0 01-2.85 4v.07c1.43.44 2.17 1.32 2.37 3.33.21 2.33.13 4.11.67 4.36v.17h-3c-.39-.19-.43-2-.56-3.82a2.71 2.71 0 00-3-2.81h-2.61v6.63h-3.15zM24.24 13h3.35c1.72 0 2.56-.95 2.56-2.26a2.21 2.21 0 00-2.47-2.34h-3.44zM45.1 5.74h4.43L51.72 14c.55 2.08 1 4.46 1 4.46s.42-2.38 1-4.46l2.19-8.29h4.5v16.55h-2.95v-9.48c0-1.33.13-3.41.13-3.41s-.35 1.94-.68 3.14l-2.71 9.75h-3l-2.61-9.75c-.32-1.2-.67-3.14-.67-3.14s.13 2.08.13 3.41v9.48H45.1zm21.96 0h3.26l5.47 16.52h-3.28l-1-3.52h-5.6l-1 3.52h-3.2zm-.45 10.44h4.1l-1.39-4.76c-.26-.88-.63-2.54-.63-2.54s-.39 1.66-.65 2.54zm14.49-2.56l-4.65-7.88H80L82.86 11l2.87-5.22h3.47l-4.56 7.85 5.14 8.67h-3.67l-3.17-6-3.22 6h-3.6zM100 5.74h3.3l2.7 9.56c.31 1.09.68 2.64.68 2.64s.37-1.57.67-2.64l2.72-9.56h3.19l-5.23 16.52h-2.87zm14.55 0H126v2.82h-8.3v3.69h7.3V15h-7.3v4.46h8.3v2.8h-11.45zm13.45 0h7.12c3 0 5 1.85 5 4.6a3.76 3.76 0 01-2.85 4v.07c1.44.44 2.18 1.32 2.37 3.33.22 2.33.13 4.11.68 4.36v.17h-3c-.39-.19-.44-2-.57-3.82a2.71 2.71 0 00-3-2.81h-2.54v6.63H128zm3.15 7.3h3.34c1.72 0 2.57-.95 2.57-2.26a2.22 2.22 0 00-2.48-2.34h-3.43zm10.32.96c0-4.94 2.91-8.61 7.49-8.61s7.48 3.67 7.48 8.61-2.89 8.6-7.48 8.6-7.49-3.6-7.49-8.6zm11.75 0c0-3.3-1.39-5.87-4.24-5.87s-4.3 2.57-4.3 5.87 1.46 5.85 4.3 5.85 4.24-2.54 4.24-5.85zm4.93-8.26h3.2l5.17 9.26c.5.9 1.08 2.31 1.08 2.31h.05s-.09-1.71-.09-2.87v-8.7h3.11v16.52h-3l-5.3-9.13c-.5-.88-1.1-2.29-1.1-2.29h-.05s.09 1.74.09 2.89v8.53h-3.11zm19.19 0h3.25l5.48 16.52h-3.28l-1-3.52h-5.61l-1 3.52h-3.19zm-.46 10.44H181l-1.39-4.76c-.26-.88-.63-2.54-.63-2.54s-.39 1.66-.65 2.54zm9.35 10.74a.42.42 0 00-.35-.35 1.09 1.09 0 00-.25 0 13.84 13.84 0 00-1.44 0 1.2 1.2 0 01-.33 0 17.36 17.36 0 00-2 0h-.25a18.86 18.86 0 00-2.71 0 5.81 5.81 0 01-.59 0c-.68 0-1.36-.06-2-.05h-20.96a7.25 7.25 0 00-.93.05 3.45 3.45 0 01-.85 0 10.16 10.16 0 00-1.35-.05 9.5 9.5 0 01-1.6 0 1.94 1.94 0 00-.34 0 8.15 8.15 0 01-1.78 0 6.64 6.64 0 00-1.18 0 6 6 0 01-.85 0h-19.69a4.35 4.35 0 00-.51 0 6.66 6.66 0 01-1.18 0h-6.54a3.37 3.37 0 01-.84 0 3.87 3.87 0 00-1 0 3.22 3.22 0 01-.76 0 17.05 17.05 0 00-2.37-.05h-1.61a9.62 9.62 0 01-1.61 0 2 2 0 00-.42 0 19.64 19.64 0 01-2 0c-.48 0-1-.07-1.44-.06h-2.29c-1 0-2 .08-3 0h-1.69c-.71-.05-1.42.06-2.12 0H86.08c-1 0-2-.07-3 0h-.34l-1.19-.05c-1-.05-2 .08-3 0a3 3 0 00-.42 0l-1.86.06a15.13 15.13 0 00-1.78 0h-.17a3.22 3.22 0 00-.93 0 2.09 2.09 0 01-.5 0 4.74 4.74 0 00-1.19 0 6.35 6.35 0 01-.76 0h-5a12.08 12.08 0 01-1.7-.06 3.9 3.9 0 00-.59 0 12.51 12.51 0 01-2.12 0H15.64a7.92 7.92 0 00-.85.05 3.93 3.93 0 01-.84 0 1.76 1.76 0 00-.51 0 8.18 8.18 0 01-1.85 0 12.55 12.55 0 00-2.21 0 3.14 3.14 0 01-.75 0 3.87 3.87 0 00-.59 0 3.13 3.13 0 01-.42 0 16.07 16.07 0 00-1.7 0h-.59a12.44 12.44 0 00-2.2 0 12.88 12.88 0 01-1.52.06H.77a2.61 2.61 0 00-.48 0 .38.38 0 00-.19 0A.22.22 0 000 27v.07a.82.82 0 010 .27c0 .07 0 .15.09.19a.72.72 0 00.33 0h26.07c.43 0 .85 0 1.27-.05a7.88 7.88 0 011.19 0h86.57c.43 0 .85-.05 1.27 0 1.05.06 2.09 0 3.14 0h3.23a10.47 10.47 0 011.94 0 4.34 4.34 0 00.51 0h2.2a11.54 11.54 0 011.44 0 4.34 4.34 0 00.51 0l1.78-.05h10.86c1-.06 2-.06 3.05 0 .31 0 .63.05.94 0s.79 0 1.18-.05.85 0 1.27 0h.85c2 .06 4.07.05 6.11 0 .65 0 1.3-.05 1.95 0 .85.05 1.7 0 2.54 0h24.88a2.93 2.93 0 00.83-.13.39.39 0 00.28-.38zm-58.78 4.2h.5l2.24 3.43c.25.36.49.8.49.8v-4.23h.44V36h-.48l-2.24-3.39c-.22-.34-.51-.82-.51-.82V36h-.43zm4.55 0h.46V36H132zm1.38 0h.45v2.6l2.64-2.6h.59l-2 2 2.12 2.88h-.54l-1.93-2.58-.88.86V36h-.45zm4.26 0H141v.4h-2.9v1.76h2.62v.39h-2.62v1.91h2.9V36h-3.39zm4.82 3.3h.46a1.34 1.34 0 001.52 1.29c.72 0 1.25-.37 1.25-1s-.46-.85-1.5-1.06-1.54-.45-1.54-1.31.66-1.29 1.63-1.29a1.53 1.53 0 011.72 1.4h-.44a1.14 1.14 0 00-1.27-1c-.74 0-1.19.35-1.19.89s.45.76 1.32.92 1.73.42 1.73 1.44-.69 1.43-1.72 1.43a1.75 1.75 0 01-1.97-1.71zm4.37-3.3h1.92a1.47 1.47 0 011.14.42 1.32 1.32 0 01.34.94c0 .91-.52 1.4-1.55 1.4h-1.4V36h-.45zm1.82 2.37c.79 0 1.12-.38 1.12-1s-.38-1-1.08-1h-1.41v2zm1.98.07a2.29 2.29 0 114.55 0 2.29 2.29 0 11-4.55 0zm4.07 0c0-1.18-.63-2.13-1.8-2.13s-1.79 1-1.79 2.13.62 2.13 1.79 2.13 1.8-.95 1.8-2.13zm1.16-2.44H158a1.24 1.24 0 011.38 1.32 1.1 1.1 0 01-.82 1.17c.51.17.67.54.71 1.3s.12 1 .21 1H159c-.11-.08-.14-.26-.18-1.09s-.34-1.09-1-1.09h-1.48V36h-.46zm2 2.31c.71 0 1.07-.34 1.07-1s-.27-1-1-1h-1.62v1.91zm3.58-1.9h-1.65v-.41h3.75v.41h-1.64V36h-.46zm2.25 2.89h.46a1.34 1.34 0 001.52 1.29c.72 0 1.25-.37 1.25-1s-.46-.85-1.5-1.06-1.54-.45-1.54-1.31.66-1.29 1.63-1.29a1.53 1.53 0 011.72 1.43h-.44a1.14 1.14 0 00-1.27-1c-.74 0-1.19.35-1.19.89s.45.76 1.32.92 1.73.42 1.73 1.44-.69 1.43-1.72 1.43a1.75 1.75 0 01-1.97-1.74zm3.88-3.3h.43l.84 3.29c.1.36.23 1 .23 1s.14-.59.23-.93l.9-3.32h.49l.89 3.31c.09.35.23.94.23.94s.14-.6.23-1l.85-3.29h.46L172.08 36h-.46l-.93-3.56c-.09-.3-.19-.79-.19-.79s-.11.48-.19.79l-1 3.56h-.49zm6.35 0h3.32v.4h-2.86v1.76H177v.39h-2.62v1.91h2.93V36h-3.39zm5.58 0h.5l1.87 4.88h-.49l-.57-1.54h-2.12l-.57 1.54h-.47zm1.18 3l-.68-1.85-.25-.71s-.13.41-.24.71l-.68 1.82zm1.68-3h2.18a1.25 1.25 0 011.39 1.32 1.1 1.1 0 01-.82 1.17c.5.17.67.54.7 1.3s.12 1 .21 1h-.49c-.11-.08-.14-.26-.18-1.09s-.33-1.09-1-1.09h-1.49V36h-.46zm2 2.31c.71 0 1.07-.34 1.07-1s-.27-1-1-1h-1.62v1.91zm-116.9.47c.64-.38 1.07-.62 1.07-1.3a.93.93 0 00-1-1 1 1 0 00-.77.31 1.31 1.31 0 00-.3.92H66a1.45 1.45 0 011.55-1.6A1.33 1.33 0 0169 32.59c0 .93-.66 1.26-1.35 1.67-.54.32-1.14.68-1.23 1.33h2.52V36h-3c-.03-1.2.79-1.66 1.52-2.1zm2.02-.24c0-1.52.68-2.44 1.73-2.44s1.73.91 1.73 2.44-.61 2.43-1.73 2.43-1.73-.94-1.73-2.43zm3 0c0-1.26-.44-2.06-1.27-2.06s-1.27.78-1.27 2.06.44 2.05 1.27 2.05 1.27-.77 1.27-2.05zm2.52.24c.63-.38 1.07-.62 1.07-1.3a.93.93 0 00-1-1 1 1 0 00-.78.31 1.31 1.31 0 00-.29.92h-.45a1.62 1.62 0 01.41-1.18 1.58 1.58 0 011.13-.42 1.33 1.33 0 011.44 1.36c0 .93-.67 1.26-1.36 1.67s-1.13.68-1.23 1.33h2.53V36h-3c-.03-1.2.78-1.66 1.53-2.1zm2-.24c0-1.52.68-2.44 1.74-2.44s1.72.91 1.72 2.44-.61 2.43-1.73 2.43S77 35.15 77 33.66zm3 0c0-1.26-.45-2.06-1.27-2.06s-1.28.78-1.28 2.06.45 2.05 1.28 2.05S80 34.94 80 33.66zM4.57 31.17A4.58 4.58 0 000 35.74a.16.16 0 00.16.16h2.52a.16.16 0 00.16-.16 1.74 1.74 0 013.47 0 .16.16 0 00.15.16H9a.16.16 0 00.15-.16 4.58 4.58 0 00-4.57-4.57m7.56.31H9.62a.16.16 0 00-.16.16v4.1a.16.16 0 00.16.16h2.52a.16.16 0 00.16-.16v-4.1a.16.16 0 00-.16-.16m5.04-.31a4.58 4.58 0 00-4.57 4.57.16.16 0 00.16.16h2.52a.16.16 0 00.16-.16A1.73 1.73 0 0117.18 34a.16.16 0 00.16-.16v-2.51a.16.16 0 00-.16-.16"/><path d="M102.37 28.12c0 .65.06 1.3.07 1.95s0 1.13 0 1.69v4.14h.69v-.21a1.29 1.29 0 010-.44 1.07 1.07 0 000-.4 1.88 1.88 0 010-.53 1.07 1.07 0 000-.31 4.43 4.43 0 010-1.15 2.81 2.81 0 000-.71v-1.37a1.09 1.09 0 000-.4 2.46 2.46 0 01-.06-.66v-2a2.06 2.06 0 000-.35c0-.16-.19-.24-.43-.2s-.17.05-.18.11c0 .27-.08.53-.1.8zm-59.18 0c0 .65.05 1.3.06 1.95s0 1.13 0 1.69v4.14H44a1.49 1.49 0 000-.21 1.3 1.3 0 010-.44 1.33 1.33 0 000-.4 1.58 1.58 0 010-.53 1.63 1.63 0 000-.32 4.43 4.43 0 010-1.15 2.81 2.81 0 000-.71v-1.37a1.37 1.37 0 000-.4 2.45 2.45 0 01-.05-.66v-2.35c0-.12-.19-.24-.43-.2s-.18.05-.19.11c0 .27-.07.53-.09.8z"/></g></g></svg><svg width="124.97" height="14.77" viewBox="-1 -1 247.94 27.53" y="127.39" xmlns="http://www.w3.org/2000/svg"><path data-name="CÓMPRALAS AQUÍ" d="M9.609 24.37a8.476 8.476 0 006.226-2.2 7.674 7.674 0 002.338-4.98h-4.812a3.577 3.577 0 01-3.779 3.24c-2.882 0-4.677-2.58-4.677-6.15 0-3.53 1.5-6.17 4.65-6.17a3.522 3.522 0 013.67 3.08h4.813a7.629 7.629 0 00-2.91-5.36 9.044 9.044 0 00-5.546-1.71C3.791 4.12.011 8.49.011 14.28c0 5.82 3.888 10.09 9.598 10.09zM27.455 3.55h3.372L33.709.01h-5.084zm1.822 16.93c-3.127 0-4.731-2.69-4.731-6.22S26.146 8 29.277 8c3.154 0 4.7 2.72 4.7 6.26s-1.546 6.22-4.7 6.22zm-.027 3.92c5.9 0 9.625-4.32 9.625-10.14S35.15 4.12 29.25 4.12c-5.873 0-9.6 4.32-9.6 10.14s3.727 10.14 9.6 10.14zm12.056-.46h4.323v-9.76c0-.79-.082-3.92-.082-3.92h.055s.679 2.94.9 3.64l2.773 10.04h3.97l2.8-10.06c.218-.71.9-3.62.9-3.62H57s-.082 3.1-.082 3.89v9.79h4.405V4.5h-6.535l-2.392 8.51c-.326 1.22-1.088 4.43-1.088 4.43h-.054s-.761-3.21-1.115-4.43L47.774 4.5h-6.471v19.44zm23.232 0h4.894v-6.5h4.54c4 0 6.58-2.64 6.58-6.36a6.392 6.392 0 00-1.958-4.79 7.384 7.384 0 00-5.3-1.79h-8.756v19.44zm4.894-10.31V8.55h3.561a2.406 2.406 0 012.719 2.5 2.45 2.45 0 01-2.719 2.58h-3.561zm13.386 10.31h4.813v-7.29h2.909a2.851 2.851 0 013.235 2.77c.3 1.93.218 4.22.734 4.52h4.679v-.25c-.68-.24-.408-2.69-.816-5.25a3.892 3.892 0 00-2.827-3.56v-.08a4.657 4.657 0 003.371-4.7c0-3.62-2.936-5.6-6.8-5.6h-9.3v19.44zm4.813-10.85V8.3h3.725c1.848 0 2.773 1.01 2.773 2.42 0 1.47-.979 2.37-2.882 2.37h-3.616zm12.625 10.85h4.84l1.115-3.51h6.8l1.142 3.51h5.057L112.188 4.5h-4.948zm7.069-6.96l1.5-4.71c.326-1 .788-2.74.788-2.74h.055s.435 1.74.761 2.74l1.468 4.71h-4.568zm13.8 6.96h13.54v-4.08h-8.727V4.5h-4.813v19.44zm14.555 0h4.839l1.115-3.51h6.8l1.142 3.51h5.057L147.619 4.5h-4.949zm7.069-6.96l1.5-4.71c.326-1 .789-2.74.789-2.74h.054s.435 1.74.761 2.74l1.469 4.71h-4.568zm21.544 7.42c4.486 0 7.966-2.26 7.966-6.34 0-4.16-3.263-5.27-6.879-6.11-2.909-.66-4.4-.98-4.4-2.34 0-1.09 1.114-1.82 2.8-1.82 1.795 0 2.937.84 3.127 2.34h4.7c-.19-4.08-3.452-5.99-7.667-5.99-4.35 0-7.721 1.83-7.721 5.99 0 4.07 3.561 5.11 6.933 5.89 2.664.66 4.241.98 4.241 2.53 0 1.47-1.55 2.04-3.126 2.04-2.311 0-3.589-.81-3.807-2.77h-4.839c.102 4.3 3.501 6.58 8.667 6.58zm13.878-.46h4.84l1.115-3.51h6.8l1.142 3.51h5.057L190.11 4.5h-4.948zm7.069-6.96l1.5-4.71c.326-1 .788-2.74.788-2.74h.055s.435 1.74.761 2.74l1.468 4.71h-4.568zm22.6 3.5c-3.127 0-4.7-2.69-4.7-6.22S204.717 8 207.84 8c3.154 0 4.676 2.72 4.676 6.26a8.631 8.631 0 01-.68 3.59l-1.794-1.72-2.229 2.31 1.767 1.72a4.372 4.372 0 01-1.74.32zm7.313 5.03l2.23-2.36-2.2-2.07a10.657 10.657 0 002.229-6.82c0-5.82-3.7-10.14-9.6-10.14-5.873 0-9.571 4.32-9.571 10.14s3.7 10.14 9.571 10.14a9.831 9.831 0 004.893-1.22zm12.709-1.22c5.41 0 8.1-2.72 8.1-7.2V4.5h-4.812v12.67a3 3 0 01-3.29 3.26c-2.366 0-3.344-1.28-3.344-3.18V4.5h-4.813v12.59c.002 4.54 2.721 7.2 8.159 7.2zm11.212-.35h4.814V4.5h-4.812v19.44zm.6-20.39h3.371l2.882-3.54h-5.084z" fill="#fff" fill-rule="evenodd"/></svg><svg width="29.9" height="20.62" viewBox="-1 -1 29.9 20.62" x="146.59" y="60" xmlns="http://www.w3.org/2000/svg"><g data-name="Layer 2"><path d="M8.42 7.23H6.61L6.76 4 5.53 7.23H3.71L6.42 0h2l-.26 3.09L9.32 0h1.75L8.42 7.23zm.4 0h1.82L13.28 0h-1.75L8.82 7.23zm10.81-.76l8.27-2-21.38 8.69c-1.91.78-4.48 1.27-6-.47A2.83 2.83 0 01.16 10a14 14 0 013.52-5.41C2.94 6.08 2.34 8.18 4 9.37a2.78 2.78 0 002.3.37l10.16-2.49h-2.52V4.68c0-.12 0-.11-.07-.09a.49.49 0 00-.08.13l-.93 2.52H11L13.72 0h1.8l-.71 1.91L16.47 0h5.16l-.5 1.34h-1.59L19 2.81h1.6l-.47 1.26h-1.6l-.65 1.73h2l-.24.66zm-4.09.42L18 .33l-2.62 3.06.16 3.5zM4.41 18l-.29.62h-.34L5 16l1.2 2.58h-.35L5.56 18zM5 16.7l-.45 1h.89l-.44-1zm8-.56h-.32v2.48H13v-2.48zm8.36 2.48H21l-.75-1.05h-.13v1.05h-.31v-2.48h.38a1.31 1.31 0 01.67.12.69.69 0 01-.28 1.28l.8 1.08zm-1.26-1.3h.1c.32 0 .67-.06.67-.46s-.37-.44-.68-.44h-.09v.9z" fill="#fff" data-name="Layer 1"/></g></svg><svg width="159.67" height="21.91" viewBox="-1 -1 159.67 21.91" y="38.09" xmlns="http://www.w3.org/2000/svg"><g data-name="Layer 2"><path d="M61.63 19.4h3.77l-.07-7.69 8.07-.07V8.42h-.49a2 2 0 01-.24 0c-.13 0-.25 0-.38-.06h-.64c-.21 0-.4 0-.6.05h-.55c-.15 0-.28.05-.43.05h-.59a1.86 1.86 0 00-.33 0 6.64 6.64 0 01-.77.05H65.3V4.05h4.53a4.7 4.7 0 00.65 0c.17 0 .48-.23.65-.15s.11.14.24.18a1.63 1.63 0 00.54 0c.15 0 .18-.17.36-.15s.16.12.27.15c.17 0 2.29-.07 2.29-.08V.81L61.47.84v7.08c0 .92.16 1.78.16 2.7v.7c0 .23.12.43.13.68a3 3 0 01-.21 1 1.84 1.84 0 000 .74c0 .13.1.08.07.28a3.74 3.74 0 00-.09.66v4.68zm22.59.12c4.75-.05 7.17-2.38 7.14-6.35V4.98a1.55 1.55 0 01.08-.36c0-.26-.08-.51 0-.77s0-.33 0-.49a2.85 2.85 0 000-.41V.58h-3.77v4.14a7 7 0 00.08 1.58 1.87 1.87 0 01.08.34 1.55 1.55 0 01-.06.31c0 .08 0 .16-.05.23s0 .16 0 .24a2 2 0 010 .48 2.31 2.31 0 000 .83 6.17 6.17 0 010 .75v3.64c0 1.92-1.08 3.33-3.47 3.35s-3.49-1.31-3.51-3.24L80.5.67 76.74.7v6.6a3 3 0 00.1.32 2.27 2.27 0 010 1c0 .12 0 .26-.07.39a2.1 2.1 0 000 .5 7.31 7.31 0 010 .81v2.83a1.09 1.09 0 000 .18c0 4 2.57 6.26 7.37 6.22zM93 3.73h5.58v1.46a2.05 2.05 0 010 .56c0 .17-.06.36-.07.54a5.33 5.33 0 000 .57v12.31h3.77l-.14-15.39h.94a2.55 2.55 0 01.32-.07 4 4 0 00.48 0H108V.54L93 .56v3.17zm24.12 15.5c4.76 0 7.18-2.37 7.14-6.35L124.17.29h-3.76V2.6a5.19 5.19 0 010 .88 10.94 10.94 0 000 1.15v8.23c0 1.92-1.09 3.34-3.48 3.36s-3.49-1.32-3.51-3.24V.38h-3.76v4.93a14.65 14.65 0 00.06 1.88v.23a6.62 6.62 0 010 .77 4 4 0 010 .49 1 1 0 000 .34.66.66 0 010 .14v1.89a4.4 4.4 0 010 .89.94.94 0 00-.06.28v.79c0 4 2.57 6.26 7.37 6.22zm13.52-16h4.11c2 0 3 1.09 3 2.59s-1 2.56-3 2.57h-4v-.13c0-.71 0-1.41-.05-2.13V3.21zM127 18.83h3.77l-.07-7.45h3c2.34 0 3.49 1.11 3.66 3.14s.25 4.07.72 4.27h3.61v-.18l-.16-.12a1 1 0 01-.14-.22 2.7 2.7 0 01-.18-.69 20 20 0 01-.21-2.19c0-.22-.05-.43-.07-.65a6.76 6.76 0 00-.1-.77c0-.12-.06-.24-.07-.36a1.36 1.36 0 00-.07-.53c0-.09 0-.19-.06-.28a1.58 1.58 0 00-.12-.15.35.35 0 01-.06-.22 1.33 1.33 0 000-.2.38.38 0 00-.07-.24c-.08-.1 0-.18-.09-.3A2.19 2.19 0 00140 11a3.3 3.3 0 00-1.1-.82 4.7 4.7 0 00-.82-.29v-.06a4.26 4.26 0 003.36-4.52c0-3.09-2.43-5.15-6-5.12l-8.52.08v6.47c0 .82 0 1.74.06 2.59v.49a4.1 4.1 0 01.1 1.1c0 .2-.06.4-.08.6s0 .4 0 .59-.06.46-.06.69a7.26 7.26 0 01.06.93 7.53 7.53 0 000 1v4.15zm16.91-.15l13.73-.12v-3.14l-10 .09v-5h2.09a1.76 1.76 0 00.23 0h.75a5.45 5.45 0 01.7 0l.48.05h2.44c.16 0 2-.06 2 0V7.47l-8.67.08V3.39h2.69a5.08 5.08 0 00.78 0l.24-.05h2.35c.16 0 .33.07.49.06s.25-.07.38-.08l.52-.05a1.35 1.35 0 01.4 0h1.95V.1l-13.69.02v9.62c0 .18.07.33.07.51v.37a8.7 8.7 0 000 1.35v3.29c0 .07-.1.31-.09.47s0 .24 0 .37v2.33M38.16 16.69l.05-5 8.67.08V8.68L38.2 8.6V4.45l9.89.09V1.37h-4.22a8.52 8.52 0 01-1 0h-.49l-.32-.05h-7.62V7.6a1.93 1.93 0 010 .34v11.89l13.74.12v-3.14h-2.74c-.31 0-.38.05-.58.05h-1.77c-.36 0-.71-.05-1.07-.06h-1.16a.43.43 0 00-.16 0h-2.37m-21.64 2.84h3.76l.08-8.18 7.29.07-.07 8.18h3.77l.16-18.56h-3.77v3.34a2.44 2.44 0 010 .54 3.53 3.53 0 000 .46v.74a2.57 2.57 0 010 .68 3.14 3.14 0 000 .75v.78l-7.3-.06.07-7.27h-3.77v5.51a1.62 1.62 0 010 .44v1.85M5.45 19.54h3.76l.14-15.36 5.58.05V1.06h-2.64a4.52 4.52 0 01-.64 0H9.42L6.93 1H2.27L.71.93H0V4.1l5.58.05v2.48a1.38 1.38 0 000 .2v5.88a1.62 1.62 0 000 .31 1.51 1.51 0 010 .3 1.33 1.33 0 000 .2v.13a1.41 1.41 0 000 .46v5.43" data-name="Layer 1" fill="#fff"/></g></svg><svg width="23.11" height="21.32" viewBox="-1 -1 23.11 21.32" x="146.59" y="80.62" xmlns="http://www.w3.org/2000/svg"><g data-name="Layer 2"><path d="M13.83 19.32h.3c.41 0 .81 0 1.22-.08a8.67 8.67 0 001.13-.24 7.4 7.4 0 001-.33 6.69 6.69 0 00.93-.46 6.55 6.55 0 00.81-.57 6.44 6.44 0 00.68-.7 5.06 5.06 0 00.91-1.72 6.07 6.07 0 00.21-1 2 2 0 000-.54.69.69 0 010-.2 1.62 1.62 0 000-.22c0-.12-.05-.24-.08-.36s0-.09 0-.15a2.62 2.62 0 010-.28 1.67 1.67 0 00-.06-.39c-.07-.2-.17-.39-.25-.58a2 2 0 00-.14-.34c0-.08-.1-.15-.13-.23l-.06-.15a3.17 3.17 0 00-.29-.35c-.06-.07-.11-.16-.18-.23s-.18-.12-.26-.19l-.26-.23-.31-.36a1.28 1.28 0 00-.37-.29l-.45-.22a12.17 12.17 0 00-1.83-.67c-.69-.2-1.39-.36-2.09-.52-2.75-.62-4-1.08-4-2.58C10.21 3.81 11.54 3 13.56 3s3.37 1 3.56 2.83h3.61C20.48 2.11 17.79 0 13.61 0a14.08 14.08 0 00-1.45.07 10.17 10.17 0 00-1.34.24 8.49 8.49 0 00-1.2.41 6.7 6.7 0 00-1.07.61 5.2 5.2 0 00-1.05.94l-.1.14a3.88 3.88 0 00-.23.33c-.06.09-.07.18-.12.27a2.12 2.12 0 00-.25.6v.22c0 .07-.08.25-.11.37s0 .11 0 .16v.39a2.08 2.08 0 010 .25v.31a2.69 2.69 0 00-.25.69c0 .15 0 .31.07.46a4.77 4.77 0 00.23.92 4.07 4.07 0 00.88 1.43A5.23 5.23 0 009 9.8a9.88 9.88 0 001.68.69c.62.19 1.25.36 1.88.51l.24.05c2.83.68 4.59 1.06 4.58 2.87s-1.71 2.38-3.63 2.36c-2.65 0-3.92-.91-4.16-3.15H5.91a6.78 6.78 0 00.28 1.84 1 1 0 00.07.23l.12.16c.07.09.14.2.22.29a1.55 1.55 0 01.2.35c.06.12.09.25.14.36s.09.15.13.22a1 1 0 00.1.17c.2.23.39.48.6.68a2.31 2.31 0 00.24.2.13.13 0 00.07.06 1 1 0 01.13.09c.05.05.09.11.15.16a2.35 2.35 0 00.46.28 8.83 8.83 0 001 .45 10.31 10.31 0 002.4.54 13.6 13.6 0 001.56.09zM0 18.78h3.76v-5.14a1.17 1.17 0 000-.42.75.75 0 000-.16 1 1 0 010-.3v-1.34a2.26 2.26 0 010-.45c0-.2 0-.4.06-.6a5.47 5.47 0 000-.7V.3L.16.22 0 18.78z" fill="#fff" data-name="Layer 1"/></g></svg><svg width="23.76" height="20.75" viewBox="-1 -1 23.76 20.75" x="159.67" y="38.09" xmlns="http://www.w3.org/2000/svg"><g data-name="Layer 2"><path d="M6.65 18.62h3.71l.08-9.58c0-1.29-.07-3.24-.07-3.24h.05s.71 1.59 1.3 2.58L18 18.72h3.63V13.2c0-.42-.08-.64-.06-1a16.21 16.21 0 00.09-2.51c-.05-.51-.06-1-.06-1.54a6.26 6.26 0 010-.75c0-.17.07-.31.07-.48.06-1.59 0-3.19.05-4.78v-2h-3.71L18 9.89c0 1.3.07 3.22.07 3.22H18s-.69-1.59-1.28-2.6L10.63.09 6.81.06v3.46a11.47 11.47 0 000 1.76 2.58 2.58 0 010 .68 5.19 5.19 0 000 .79v11.9zM0 18.56h3.76V8.82a3.24 3.24 0 000-.69v-.32a2 2 0 010-.34 2.12 2.12 0 000-.56 1.48 1.48 0 010-.42v-.68a1.17 1.17 0 000-.27V0H.16v13.35a10.06 10.06 0 010 1.23 4.22 4.22 0 000 .62 5.33 5.33 0 010 .56v2.84z" fill="#fff" data-name="Layer 1"/></g></svg><svg width="50.4" height="20.94" viewBox="-1 -1 50.4 20.94" y="142.16" xmlns="http://www.w3.org/2000/svg"><g data-name="Layer 2"><path d="M34.67 18.69h.22c1.11 0 2.2-.05 3.3-.07a5.42 5.42 0 01.57 0 1.45 1.45 0 00.3.05h1.72c.16 0 .3 0 .46.05s.32 0 .47 0h1.89c.5 0 1 0 1.48-.06.21 0 3.32-.07 3.32-.05v-3.14l-10 .08v-5h2.27a1.45 1.45 0 01.36 0 2.75 2.75 0 00.5 0h.71c.23 0 .27-.07.41-.09a8.76 8.76 0 011.45 0h3V7.37h-6.27a3.47 3.47 0 00-.45-.06 5.88 5.88 0 01-.73 0h-1.31V3.16l9.89-.09V-.09h-2.58a10.77 10.77 0 00-1.27 0H44c-.16 0-.32.06-.48.06a1.67 1.67 0 00-.38 0c-.4.08-.83 0-1.24.06s-.56 0-.85.06a7 7 0 00-1.21.06 6.57 6.57 0 01-1 0H34.5v6.97a1.22 1.22 0 000 .27.65.65 0 01.06.24 1.7 1.7 0 000 .39 1.09 1.09 0 010 .26v10.44zm-13.94-2.16v.09-5.99l7.3-.06.07 8.18h3.76V7.77a7.46 7.46 0 000-1.25 3.28 3.28 0 01-.06-.63 1.94 1.94 0 01.07-.42 2.26 2.26 0 000-.45V.13h-3.76L28 7.45l-7.3.07-.11-7.27h-3.76v7.66c0 .15 0 .28-.05.43s.1.3.15.45 0 .45 0 .65v1.4c0 .12-.05.31-.05.48 0 .33.06.64.07 1s0 .74 0 1.11v5.43h3.76s0-4.12-.05-6.51M0 3.59h5.58l.14 15.39h3.76v-5.63a3.62 3.62 0 010-.47 2.4 2.4 0 00-.05-.46v-1.43c0-.38-.07-1-.08-1.48a2.62 2.62 0 010-.28c0-.11 0-.2.05-.3s0-.43 0-.64a3.72 3.72 0 01.08-.67 1.25 1.25 0 000-.51 3.11 3.11 0 010-.61V3.51h5.58V.35h-3.88a5.34 5.34 0 00-.8 0h-.22a2.89 2.89 0 00-.29 0H8.79c-.36 0-.79.08-1.15.07-.22 0-.42-.1-.63-.1s-.6.07-.91.07-.85.07-1.28.08-1 0-1.54-.06C2.19.36 1.09.41 0 .43v3.16z" fill="#fff" data-name="Layer 1"/></g></svg></svg>